<?xml version="1.0" standalone="no"?>
<!DOCTYPE svg PUBLIC "-//W3C//DTD SVG 1.1//EN" "http://www.w3.org/Graphics/SVG/1.1/DTD/svg11.dtd" >
<svg xmlns="http://www.w3.org/2000/svg" xmlns:xlink="http://www.w3.org/1999/xlink" version="1.1">
<metadata>
Created by FontForge 20170731 at Mon Mar 21 10:37:32 2022
 By Aleksey,,,
Copyright (c) 2016 by Mostardesign Type Foundry. All rights reserved.
</metadata>
<defs>
<font id="UniviaPro-Regular" horiz-adv-x="1292" >
  <font-face 
    font-family="Univia Pro"
    font-weight="400"
    font-stretch="normal"
    units-per-em="2048"
    panose-1="0 0 5 0 0 0 0 0 0 0"
    ascent="1638"
    descent="-410"
    x-height="1120"
    cap-height="1550"
    bbox="-278.48 -561.9 2691 2294"
    underline-thickness="0"
    underline-position="0"
    unicode-range="U+0020-1F603"
  />
<missing-glyph horiz-adv-x="903" 
d="M201 1550h958q31 0 31 -30v-1489q0 -31 -31 -31h-958q-31 0 -31 31v1489q0 30 31 30zM657 1288q-146 0 -245 -18q-27 -6 -27 -31v-92q0 -21 21 -21h251q101 0 136.5 -17t42.5 -85v-49q0 -48 -17 -74t-57 -47l-166 -80q-60 -35 -76 -61.5t-10 -77.5l8 -76q0 -12 14 -12
h117q15 0 15 14l2 27q1 26 15 39.5t56 34.5l137 65q83 39 114.5 90t31.5 154v76q0 153 -111 200q-54 24 -109 32.5t-143 8.5zM590 446q-105 0 -105 -98q0 -96 105 -96q102 0 102 96q0 98 -102 98z" />
    <glyph glyph-name="f_f" unicode="ff" horiz-adv-x="1470" 
d="M1442 1542q26 -6 26 -33v-90q0 -30 -30 -30h-113q-102 0 -137 -20.5t-35 -90.5v-160h262q33 0 27 -33l-17 -98q-6 -26 -32 -26h-240v-930q0 -31 -31 -31h-135q-31 0 -31 31v930h-540v-930q0 -31 -31 -31h-135q-31 0 -31 31v930h-145q-31 0 -31 30v96q0 31 31 31h145v203
q0 63 20 110t52 72q32 26 76 37q74 21 157 21q84 0 181 -19q26 -6 26 -33v-90q0 -30 -31 -30h-112q-102 0 -137 -20.5t-35 -90.5v-160h540v203q0 63 20 110t52 72q32 26 76 37q73 21 158 21q83 0 180 -19z" />
    <glyph glyph-name="fi.001" unicode="fi" horiz-adv-x="1230" 
d="M1112 1448q0 -121 -121 -121t-121 121q0 119 121 119t121 -119zM524 1561q67 0 160 -19q27 -6 27 -33v-90q0 -30 -31 -30h-92q-102 0 -137 -20.5t-35 -90.5v-160h643q31 0 31 -31v-1056q0 -31 -31 -31h-135q-31 0 -31 31v930h-477v-930q0 -31 -31 -31h-135q-31 0 -31 31
v930h-145q-31 0 -31 30v96q0 31 31 31h145v203q0 63 20 110t52 72q32 26 76 37q74 21 157 21z" />
    <glyph glyph-name="fl" unicode="fl" horiz-adv-x="1208" 
d="M1036 1538q31 -3 31 -31v-1476q0 -31 -31 -31h-135q-31 0 -31 31v1353l-249 5q-111 0 -158 -22.5t-47 -88.5v-160h260q32 0 26 -33l-16 -98q-6 -26 -33 -26h-237v-930q0 -31 -31 -31h-135q-31 0 -31 31v930h-145q-31 0 -31 30v96q0 31 31 31h145v203q0 240 389 240
q88 0 428 -23z" />
    <glyph glyph-name="f_f_i" unicode="ffi" horiz-adv-x="1968" 
d="M1849 1448q0 -121 -120 -121q-121 0 -121 121q0 119 121 119q120 0 120 -119zM1262 1561q66 0 163 -19q27 -6 27 -33v-90q0 -30 -31 -30h-96q-102 0 -137 -20.5t-35 -90.5v-160h643q31 0 31 -31v-1056q0 -31 -31 -31h-135q-31 0 -31 31v930h-477v-930q0 -31 -31 -31h-135
q-31 0 -31 31v930h-540v-930q0 -31 -31 -31h-135q-31 0 -31 31v930h-145q-31 0 -31 30v96q0 31 31 31h145v203q0 63 20 110t52 72q32 26 76 37q74 21 157 21t176 -19q29 -6 29 -33v-90q0 -30 -33 -30h-108q-102 0 -137 -20.5t-35 -90.5v-160h540v203q0 63 20 110t52 72
q32 26 76 37q73 21 158 21z" />
    <glyph glyph-name="f_f_l" unicode="ffl" horiz-adv-x="1945" 
d="M1774 1538q30 -3 30 -31v-1476q0 -31 -30 -31h-136q-30 0 -30 31v1353l-250 5q-111 0 -158 -22.5t-47 -88.5v-160h258q33 0 27 -33l-17 -98q-6 -26 -35 -26h-233v-930q0 -31 -31 -31h-135q-31 0 -31 31v930h-540v-930q0 -31 -31 -31h-135q-31 0 -31 31v930h-145
q-31 0 -31 30v96q0 31 31 31h145v203q0 63 20 110t52 72q32 26 76 37q74 21 157 21q120 0 217 -19q27 -6 27 -33v-90q0 -30 -31 -30h-149q-102 0 -137 -20.5t-35 -90.5v-160h540v203q0 240 387 240q91 0 431 -23z" />
    <glyph glyph-name="f_b" unicode="fb" horiz-adv-x="1910" 
d="M1337 1130q289 0 377 -114q90 -116 90 -459q0 -342 -92 -457q-88 -110 -385 -110q-205 0 -426 35q-33 3 -33 32v1327l-247 5q-111 0 -159 -22.5t-48 -88.5v-160h262q32 0 26 -33l-18 -98q-6 -26 -33 -26h-237v-930q0 -31 -31 -31h-133q-31 0 -31 31v930h-145
q-31 0 -31 30v96q0 31 31 31h145v203q0 240 387 240q91 0 428 -23q31 -3 31 -31v-391q104 14 272 14zM1329 162q183 0 232 76t49 321q0 251 -49 324q-49 75 -234 75h-262v-780q141 -16 264 -16z" />
    <glyph glyph-name="f_f_b" unicode="ffb" horiz-adv-x="2658" 
d="M2085 1130q289 0 377 -114q90 -116 90 -459q0 -342 -92 -457q-91 -110 -385 -110q-205 0 -426 35q-33 3 -33 32v1327l-250 5q-111 0 -158 -22.5t-47 -88.5v-160h260q33 0 27 -33l-16 -98q-6 -26 -33 -26h-238v-930q0 -31 -31 -31h-135q-30 0 -30 31v930h-549v-930
q0 -31 -31 -31h-133q-31 0 -31 31v930h-145q-33 0 -33 30v96q0 31 33 31h145v203q0 63 20 110t52 72q28 25 74 37q74 21 157 21q88 0 181 -19q28 -6 28 -33v-90q0 -30 -31 -30h-112q-103 0 -138.5 -20.5t-35.5 -90.5v-160h549v203q0 240 389 240q88 0 428 -23q30 -3 30 -31
v-391q101 14 273 14zM2075 162q182 0 231 76t49 321q0 251 -49 324q-49 75 -233 75h-261v-780q141 -16 263 -16z" />
    <glyph glyph-name="f_f_j" unicode="ffj" horiz-adv-x="1923" 
d="M1683 1567q121 0 121 -119q0 -121 -121 -121q-122 0 -122 121q0 119 122 119zM1262 1561q64 0 151 -19q29 -6 29 -33v-90q0 -30 -33 -30h-84q-102 0 -137 -20.5t-35 -90.5v-160h598q31 0 31 -31v-1329q-1 -47 -15 -80.5t-34 -51t-53 -27t-59 -11.5t-65 -2q-79 0 -112 8
q-29 6 -29 33v103q0 28 33 28h47q61 0 75.5 14t14.5 74v1115h-432v-930q0 -31 -31 -31h-135q-31 0 -31 31v930h-540v-930q0 -31 -31 -31h-135q-31 0 -31 31v930h-145q-31 0 -31 30v96q0 31 31 31h145v203q0 63 20 110t52 72q32 26 76 37q74 21 157 21q88 0 181 -19
q26 -6 26 -33v-90q0 -30 -31 -30h-112q-102 0 -137 -20.5t-35 -90.5v-160h540v203q0 63 20 110t52 72q32 26 76 37q73 21 158 21z" />
    <glyph glyph-name="f_f_k" unicode="ffk" horiz-adv-x="2496" 
d="M2370 1081l-365 -401l483 -625q37 -55 -34 -55h-146q-25 0 -45 23l-463 610v-602q0 -31 -31 -31h-135q-30 0 -30 31v1353l-248 5q-111 0 -158 -22.5t-47 -88.5v-160h260q33 0 27 -33l-19 -98q-6 -26 -33 -26h-235v-930q0 -31 -31 -31h-135q-31 0 -31 31v930h-538v-930
q0 -31 -31 -31h-133q-31 0 -31 31v930h-145q-33 0 -33 30v96q0 31 33 31h145v203q0 63 20 110t52 72q28 25 74 37q74 21 157 21q88 0 181 -19q28 -6 28 -33v-90q0 -30 -31 -30h-112q-103 0 -138.5 -20.5t-35.5 -90.5v-160h538v203q0 240 387 240q91 0 428 -23q31 -3 31 -31
v-784l336 377q14 20 43 20h172q52 0 19 -39z" />
    <glyph glyph-name="f_j" unicode="fj" horiz-adv-x="1185" 
d="M946 1567q121 0 121 -119q0 -121 -121 -121q-123 0 -123 121q0 119 123 119zM524 1561q65 0 158 -19q27 -6 27 -33v-90q0 -30 -31 -30h-90q-102 0 -137 -20.5t-35 -90.5v-160h598q30 0 30 -31v-1329q-1 -47 -15 -80.5t-33.5 -51t-53 -27t-59 -11.5t-64.5 -2q-79 0 -112 8
q-29 6 -29 33v103q0 28 33 28h47q61 0 75.5 14t14.5 74v1115h-432v-930q0 -31 -31 -31h-135q-31 0 -31 31v930h-145q-31 0 -31 30v96q0 31 31 31h145v203q0 63 20 110t52 72q32 26 76 37q74 21 157 21z" />
    <glyph glyph-name="f_k" unicode="fk" horiz-adv-x="1763" 
d="M1634 1081l-364 -401l483 -625q19 -19 10 -37t-45 -18h-143q-25 0 -45 23l-463 610v-602q0 -31 -31 -31h-135q-31 0 -31 31v1353l-249 5q-111 0 -158 -22.5t-47 -88.5v-160h260q32 0 26 -33l-16 -98q-6 -26 -33 -26h-237v-930q0 -31 -31 -31h-135q-31 0 -31 31v930h-145
q-31 0 -31 30v96q0 31 31 31h145v203q0 240 389 240q88 0 428 -23q31 -3 31 -31v-784l334 377q14 20 43 20h172q26 0 30.5 -11t-12.5 -28z" />
    <glyph glyph-name=".notdef" horiz-adv-x="903" 
d="M201 1550h958q31 0 31 -30v-1489q0 -31 -31 -31h-958q-31 0 -31 31v1489q0 30 31 30zM657 1288q-146 0 -245 -18q-27 -6 -27 -31v-92q0 -21 21 -21h251q101 0 136.5 -17t42.5 -85v-49q0 -48 -17 -74t-57 -47l-166 -80q-60 -35 -76 -61.5t-10 -77.5l8 -76q0 -12 14 -12
h117q15 0 15 14l2 27q1 26 15 39.5t56 34.5l137 65q83 39 114.5 90t31.5 154v76q0 153 -111 200q-54 24 -109 32.5t-143 8.5zM590 446q-105 0 -105 -98q0 -96 105 -96q102 0 102 96q0 98 -102 98z" />
    <glyph glyph-name=".null" horiz-adv-x="0" 
 />
    <glyph glyph-name="nonmarkingreturn" horiz-adv-x="682" 
 />
    <glyph glyph-name="space" unicode=" " horiz-adv-x="462" 
 />
    <glyph glyph-name="exclam" unicode="!" horiz-adv-x="534" 
d="M199 1550h137q31 0 31 -32v-730q0 -27 -2 -43l-33 -303q-3 -30 -31 -30h-68q-24 0 -30 30l-33 303q-2 16 -2 43v730q0 32 31 32zM270 227q119 0 119 -116q0 -121 -119 -121q-123 0 -123 121q0 116 123 116z" />
    <glyph glyph-name="quotedbl" unicode="&#x22;" horiz-adv-x="827" 
d="M145 1550h138q30 0 30 -32v-197q0 -27 -2 -43l-32 -303q-3 -31 -31 -31h-66q-27 0 -30 31l-33 303q0 8 -2 24t-2 19v197q0 32 30 32zM543 1550h137q31 0 31 -32v-197q0 -27 -2 -43l-33 -303q-6 -31 -31 -31h-67q-28 0 -31 31l-33 303q-2 16 -2 43v197q0 32 31 32z" />
    <glyph glyph-name="numbersign" unicode="#" horiz-adv-x="1380" 
d="M1249 1010h-219v-471h219q31 0 31 -31v-111q0 -30 -31 -30h-219v-336q0 -31 -31 -31h-127q-30 0 -30 31v336h-328v-336q0 -31 -31 -31h-127q-30 0 -30 31v336h-197q-31 0 -31 30v111q0 31 31 31h197v471h-197q-31 0 -31 30v111q0 31 31 31h197v338q0 30 30 30h127
q31 0 31 -30v-338h328v338q0 30 30 30h127q31 0 31 -30v-338h219q31 0 31 -31v-111q0 -30 -31 -30zM514 539h328v471h-328v-471z" />
    <glyph glyph-name="dollar" unicode="$" horiz-adv-x="1241" 
d="M477 938l447 -166q130 -50 182.5 -126t52.5 -197v-62q0 -186 -141 -258q-119 -57 -330 -66v-153q0 -31 -31 -31h-79q-31 0 -31 31v153q-190 3 -436 27q-17 3 -17 16v127q0 15 19 15h608q118 0 173.5 33.5t55.5 111.5v39q0 76 -33.5 121t-121.5 76l-486 178
q-106 37 -149 113.5t-43 201.5v45q0 165 106 237t324 83v158q0 30 31 30h79q31 0 31 -30v-156q143 -3 377 -27q14 0 14 -14v-129q0 -12 -16 -12h-498q-130 0 -185.5 -33.5t-55.5 -116.5v-33q0 -71 32 -111t121 -75z" />
    <glyph glyph-name="percent" unicode="%" horiz-adv-x="1900" 
d="M147 1470q77 89 289 89t289 -89q78 -90 78 -327q0 -238 -78 -328q-76 -88 -289 -88t-289 88q-77 89 -77 328q0 238 77 327zM1305 1550h90q30 0 12 -30l-780 -1489q-15 -31 -47 -31h-91q-29 0 -14 31l780 1489q18 30 50 30zM436 1395q-102 0 -141 -54.5t-39 -197.5
q0 -146 38.5 -200t141.5 -54q104 0 143 54t39 200q0 143 -39 197.5t-143 54.5zM1464 821q213 0 289 -88q78 -90 78 -327q0 -238 -78 -328q-76 -88 -289 -88q-212 0 -288 88t-76 328q0 239 76 327t288 88zM1464 659q-103 0 -141.5 -53.5t-38.5 -199.5t38.5 -200t141.5 -54
q105 0 144 54t39 200t-39 199.5t-144 53.5z" />
    <glyph glyph-name="ampersand" unicode="&#x26;" horiz-adv-x="1343" 
d="M643 1561q120 0 240 -19q32 -3 32 -26v-115q0 -23 -30 -23h-240q-178 0 -246 -41q-65 -41 -65 -182v-33q0 -147 51 -204q53 -56 209 -56h598q31 0 31 -31v-79q0 -25 -31 -31l-141 -29v-422q0 -68 25 -89t106 -21h71q33 0 33 -29v-96q0 -27 -29 -33q-47 -12 -124 -12
q-60 0 -78 2q-31 2 -70.5 17t-66.5 42q-137 -61 -302 -61q-263 0 -378 86q-111 89 -111 332v34q0 273 174 334q-174 55 -174 336v41q0 241 117 324q119 84 399 84zM860 215v473h-270q-156 0 -205 -55q-48 -54 -51 -201v-22q0 -128 71 -183t222 -55q120 0 233 43z" />
    <glyph glyph-name="quotesingle" unicode="'" horiz-adv-x="432" 
d="M147 1550h138q30 0 30 -32v-197q0 -27 -2 -43l-32 -303q-3 -31 -31 -31h-68q-27 0 -30 31l-33 303q-2 16 -2 43v197q0 32 30 32z" />
    <glyph glyph-name="parenleft" unicode="(" horiz-adv-x="675" 
d="M473 1671h152q10 0 10 -10v-23q0 -2 -4 -14q-100 -137 -142 -197q-77 -113 -147 -290q-21 -54 -29 -131q-9 -83 -12 -140v-178v-180q3 -50 12 -137q8 -80 29 -133l55 -127q35 -75 84.5 -149t149.5 -210q4 -12 4 -14v-23q0 -10 -10 -10h-152q-15 0 -27 12q-57 74 -145 193
q-85 120 -154 293q-19 57 -28 141q-11 113 -13 150v194q0 139 5 277q7 90 39 200q33 115 100 221q64 100 196 273q12 12 27 12z" />
    <glyph glyph-name="parenright" unicode=")" horiz-adv-x="675" 
d="M49 1671h152q14 0 26 -12q142 -186 195 -273q64 -97 100 -221q36 -123 39 -200q6 -83 6 -277q0 -155 -2 -194q0 -48 -10 -150q-9 -85 -31 -141q-19 -56 -57 -133q-35 -75 -86 -148t-154 -205q-12 -12 -26 -12h-152q-10 0 -10 10v23q0 2 4 14q92 127 139 197
q70 100 150 289q19 50 28 133q11 104 11 137q2 35 2 180t-2 178q0 34 -11 138q-9 89 -26 133q-20 51 -58 129q-35 75 -84.5 149t-148.5 209q-4 12 -4 14v23q0 10 10 10z" />
    <glyph glyph-name="asterisk" unicode="*" horiz-adv-x="870" 
d="M395 1591h78q32 0 29 -30l-13 -261l240 93q33 9 39 -19l25 -69q9 -31 -21 -37l-246 -74l164 -199q21 -24 -4 -43l-59 -43q-25 -18 -43 6l-146 213l-149 -213q-18 -24 -43 -6l-56 41q-28 18 -6 43l160 201l-246 72q-29 6 -20 37l22 69q9 32 41 19l236 -91l-10 261
q-3 30 28 30z" />
    <glyph glyph-name="plus" unicode="+" horiz-adv-x="1120" 
d="M500 1106h123q30 0 30 -31v-360h363q31 0 31 -31v-121q0 -31 -31 -31h-363v-360q0 -31 -30 -31h-123q-31 0 -31 31v360h-365q-30 0 -30 31v121q0 31 30 31h365v360q0 31 31 31z" />
    <glyph glyph-name="comma" unicode="," horiz-adv-x="495" 
d="M182 244h185q20 0 20 -21v-28q0 -10 -10 -27l-281 -469q-13 -19 -28 -10l-48 24q-15 9 -6 29l142 483q6 19 26 19z" />
    <glyph glyph-name="hyphen" unicode="-" horiz-adv-x="890" 
d="M166 653h559q31 0 31 -30v-121q0 -31 -31 -31h-559q-33 0 -33 31v121q0 30 33 30z" />
    <glyph glyph-name="period" unicode="." horiz-adv-x="454" 
d="M348 111q0 -121 -121 -121t-121 121q0 116 121 116t121 -116z" />
    <glyph glyph-name="slash" unicode="/" horiz-adv-x="958" 
d="M813 1620h80q26 0 14 -35l-706 -1620q-15 -35 -47 -35h-84q-33 0 -15 35l711 1620q15 35 47 35z" />
    <glyph glyph-name="zero" unicode="0" horiz-adv-x="1370" 
d="M684 1561q117 1 202 -15t149.5 -55t104.5 -96t65.5 -149t35 -204t10.5 -270q0 -458 -114 -622q-115 -160 -453 -160q-178 0 -284.5 37t-170.5 129q-61 92 -85.5 233.5t-24.5 382.5q0 242 24.5 385t85.5 234q64 94 170 132t285 38zM328 772q0 -350 71 -477
q71 -123 285 -123q217 0 287 123q71 127 71 477q0 354 -73 479q-71 127 -285 127t-285 -127t-71 -479z" />
    <glyph glyph-name="one" unicode="1" horiz-adv-x="915" 
d="M600 1321v-1139h248q33 0 33 -30v-121q0 -31 -33 -31h-717q-33 0 -33 31v121q0 30 31 30h266v1086q0 67 -36 89.5t-142 22.5h-115q-32 -3 -32 29v94q0 26 30 35q71 23 166 23q111 0 209 -33q125 -42 125 -207z" />
    <glyph glyph-name="two" unicode="2" horiz-adv-x="1224" 
d="M569 1561q107 0 174 -6.5t136 -28.5q227 -60 227 -316v-145q0 -134 -37.5 -213t-144.5 -133l-469 -256q-84 -44 -116 -89.5t-32 -119.5v-72h793q14 0 14 -12v-158q0 -12 -12 -12h-971q-53 0 -53 57v183q0 130 55 209q54 80 205 163l485 269q76 43 76 192v125
q0 104 -80.5 142t-255.5 38h-385q-14 0 -14 15v116q0 17 16 23q271 29 389 29z" />
    <glyph glyph-name="three" unicode="3" horiz-adv-x="1198" 
d="M434 1561q378 0 508 -80q129 -77 129 -328v-41q0 -278 -172 -336q172 -61 172 -334v-34q0 -254 -129 -336q-125 -82 -508 -82q-127 0 -301 16q-31 6 -31 17v131q0 18 31 18h311q261 0 340 49q80 50 80 199v10q-3 147 -51 201q-48 57 -211 57h-393q-25 0 -25 23v127
q0 24 25 24h391q160 0 213 56q51 54 51 204v27q0 145 -86 186q-82 43 -350 43h-295q-31 0 -31 19v125q0 17 31 20q162 19 301 19z" />
    <glyph glyph-name="four" unicode="4" horiz-adv-x="1329" 
d="M393 1550h146q31 0 22 -37l-274 -940h495v416q0 27 23 37l149 57q37 15 37 -20v-490h260q33 0 33 -28v-123q0 -31 -33 -31h-260v-360q0 -31 -30 -31h-148q-31 0 -31 31v360h-692q-31 0 -31 33v68q0 20 15 69l282 969q9 20 37 20z" />
    <glyph glyph-name="five" unicode="5" horiz-adv-x="1253" 
d="M193 1550h901q30 0 30 -30v-121q0 -31 -30 -31h-734l-30 -438q81 8 190 8q370 0 500 -92q128 -88 131 -361v-47q-3 -271 -133 -358q-134 -90 -506 -90q-205 0 -358 12q-31 3 -31 25v125q0 20 31 20h381q243 0 325 55q84 60 84 222v18q-3 168 -86 227q-83 62 -323 62h-379
q-33 0 -33 22v127l37 615q3 30 33 30z" />
    <glyph glyph-name="six" unicode="6" horiz-adv-x="1243" 
d="M575 1550h166q39 0 21 -37l-299 -600q74 23 180 23q279 0 406 -107t127 -344v-43q0 -240 -128 -346t-413 -106q-287 0 -416 105.5t-129 348.5v41q0 146 47 252l402 793q11 20 36 20zM635 756q-180 0 -258 -67t-78 -222v-6q0 -155 78 -222t258 -67q178 0 255 66.5
t77 220.5v8q0 155 -77 222t-255 67z" />
    <glyph glyph-name="seven" unicode="7" horiz-adv-x="1159" 
d="M74 1550h1013q31 0 31 -30v-90q0 -26 -14 -48l-690 -1362q-11 -20 -37 -20h-168q-39 0 -21 37l674 1331h-788q-33 0 -33 29v123q0 30 33 30z" />
    <glyph glyph-name="eight" unicode="8" horiz-adv-x="1296" 
d="M635 1561h31q247 0 367 -104.5t120 -319.5q0 -134 -47 -222t-148 -149q120 -56 175 -139.5t55 -216.5q0 -213 -129.5 -316.5t-394.5 -103.5h-35q-270 0 -397.5 104.5t-127.5 325.5q0 107 63 207.5t175 167.5q-195 103 -195 335q0 220 119 325.5t369 105.5zM664 1378h-29
q-279 0 -279 -227q0 -98 50.5 -155.5t156.5 -98.5l203 -63q178 102 178 294q0 250 -280 250zM768 635l-244 80q-115 -60 -164 -130.5t-49 -164.5q0 -248 318 -248h33q317 0 317 234q0 111 -68 159q-57 47 -143 70z" />
    <glyph glyph-name="nine" unicode="9" horiz-adv-x="1243" 
d="M610 1561q285 0 414 -106t129 -349v-41q0 -149 -47 -252l-401 -793q-11 -20 -37 -20h-166q-39 0 -21 37l299 598q-70 -21 -178 -21q-282 0 -408 106t-126 345v43q0 240 128.5 346.5t413.5 106.5zM276 1090v-7q0 -155 77 -221.5t257 -66.5t257 66t77 220v6
q0 156 -77 223.5t-257 67.5t-257 -67t-77 -221z" />
    <glyph glyph-name="colon" unicode=":" horiz-adv-x="509" 
d="M258 1130q119 0 119 -118q0 -119 -119 -119q-123 0 -123 119q0 118 123 118zM258 227q119 0 119 -116q0 -121 -119 -121q-123 0 -123 121q0 116 123 116z" />
    <glyph glyph-name="semicolon" unicode=";" horiz-adv-x="557" 
d="M293 1130q121 0 121 -118q0 -119 -121 -119q-123 0 -123 119q0 118 123 118zM207 244h184q21 0 21 -21v-28q0 -9 -11 -27l-280 -469q-13 -20 -29 -10l-47 24q-15 9 -6 29l141 483q6 19 27 19z" />
    <glyph glyph-name="less" unicode="&#x3c;" horiz-adv-x="1079" 
d="M928 1251h18q12 0 12 -12v-145q0 -23 -24 -35l-641 -293l641 -295q24 -12 24 -35v-143q0 -12 -12 -12h-18q-13 0 -15 2l-821 381q-24 12 -24 34v133q0 23 24 35l821 383q2 2 15 2z" />
    <glyph glyph-name="equal" unicode="=" horiz-adv-x="1339" 
d="M170 985h999q31 0 31 -31v-120q0 -31 -31 -31h-999q-31 0 -31 31v120q0 31 31 31zM170 494h999q31 0 31 -31v-121q0 -31 -31 -31h-999q-31 0 -31 31v121q0 31 31 31z" />
    <glyph glyph-name="greater" unicode="&#x3e;" horiz-adv-x="1079" 
d="M133 1251h21q10 0 14 -2l821 -383q23 -13 23 -35v-133q0 -21 -23 -34l-821 -381q-4 -2 -14 -2h-21q-12 0 -12 12v143q0 23 24 35l641 295l-641 293q-24 12 -24 35v145q0 12 12 12z" />
    <glyph glyph-name="question" unicode="?" horiz-adv-x="1064" 
d="M457 1561q112 0 175.5 -6t131.5 -27q108 -30 161.5 -106.5t57.5 -221.5v-119q0 -163 -49 -239q-46 -76 -176 -135l-209 -101q-69 -35 -86 -55q-20 -24 -23 -72l-4 -51q0 -16 -16 -16h-139q-16 0 -19 16l-8 125q-5 64 14.5 96.5t89.5 69.5l299 145q68 33 93.5 78.5
t25.5 140.5v109q0 100 -59 145q-21 18 -72 27q-66 14 -188 14h-369q-31 0 -31 31v96q0 32 33 35q144 21 367 21zM467 111q0 -121 -121 -121t-121 121q0 116 121 116t121 -116z" />
    <glyph glyph-name="at" unicode="@" horiz-adv-x="2142" 
d="M1100 1548q473 0 703.5 -197t230.5 -622q0 -341 -154 -483q-152 -140 -459 -140l-401 3q-180 3 -256 55t-76 209v24q0 136 73.5 194t231.5 58h277v115q0 83 -51.5 119.5t-171.5 36.5h-259q-14 0 -19 5t-5 19v72q0 23 22 26q131 23 244 23q215 0 309.5 -63.5t94.5 -206.5
v-586q118 0 200 22.5t150 75.5q141 113 141 416q0 727 -829 727q-450 0 -666.5 -218.5t-216.5 -674.5q9 -480 213 -672q68 -66 133 -103.5t154 -62.5q81 -23 141 -31.5t158 -15.5q28 0 28 -30v-39q0 -29 -28 -29q-464 0 -687 244.5t-223 744.5q0 510 240.5 747.5
t757.5 237.5zM1270 250v266h-266q-100 0 -127 -24q-25 -25 -25 -105v-12q0 -77 38.5 -101t141.5 -24h238z" />
    <glyph glyph-name="A" unicode="A" horiz-adv-x="1388" 
d="M690 1561q158 0 205 -41q48 -40 92 -199l350 -1288q4 -20 -0.5 -26.5t-23.5 -6.5h-160q-12 0 -17.5 6.5t-9.5 26.5l-127 452h-616l-129 -452q-4 -20 -9.5 -26.5t-17.5 -6.5h-159q-19 0 -24 6.5t-1 26.5l363 1288q48 161 92 199q50 41 192 41zM690 1380q-42 0 -55.5 -17
t-32.5 -91l-168 -606h518l-159 606q-21 74 -37 90q-15 18 -66 18z" />
    <glyph glyph-name="B" unicode="B" horiz-adv-x="1404" 
d="M725 1561q273 0 403 -95q132 -94 132 -336q0 -303 -181 -346v-6q219 -41 219 -368q0 -245 -124 -332q-122 -88 -386 -88q-400 0 -589 14q-19 2 -25 7.5t-6 23.5v1481q0 18 6 23t25 7q202 15 526 15zM707 1378h-332v-522h252q190 0 280 18q82 21 109 69.5t35 166.5
q0 162 -80 215q-77 53 -264 53zM797 690h-422v-518h418q166 0 232.5 51.5t66.5 194.5q0 155 -69.5 213.5t-225.5 58.5z" />
    <glyph glyph-name="C" unicode="C" horiz-adv-x="1226" 
d="M739 1561q237 0 381 -21q33 -3 33 -35v-96q0 -31 -31 -31h-383q-261 0 -338 -121t-77 -483q0 -360 77 -481t338 -121h383q31 0 31 -31v-96q0 -31 -33 -37q-132 -18 -381 -18q-196 0 -311 37t-186 129q-70 91 -97.5 233.5t-27.5 384.5t27.5 385t97.5 234q70 94 185 131
t312 37z" />
    <glyph glyph-name="D" unicode="D" horiz-adv-x="1509" 
d="M762 1561q345 0 489 -185q148 -183 148 -600q0 -418 -148 -604q-144 -182 -489 -182q-374 0 -563 14q-19 2 -25 7t-6 22v1483q0 18 6 23t25 7q202 15 563 15zM733 1378h-358v-1206h387q235 0 330 139q98 140 98 465q0 320 -105 461t-352 141z" />
    <glyph glyph-name="E" unicode="E" horiz-adv-x="1288" 
d="M199 1550h958q31 0 31 -30v-121q0 -31 -31 -31h-782v-526h712q31 0 31 -31v-119q0 -30 -31 -30h-712v-480h782q31 0 31 -30v-121q0 -31 -31 -31h-958q-31 0 -31 31v1489q0 30 31 30z" />
    <glyph glyph-name="F" unicode="F" horiz-adv-x="1224" 
d="M199 1550h952q31 0 31 -30v-121q0 -31 -31 -31h-776v-526h704q31 0 31 -31v-119q0 -30 -31 -30h-704v-631q0 -31 -31 -31h-145q-31 0 -31 31v1489q0 30 31 30z" />
    <glyph glyph-name="G" unicode="G" horiz-adv-x="1355" 
d="M739 1561q250 0 394 -21q32 -3 32 -35v-96q0 -31 -30 -31h-396q-140 0 -218 -28t-124 -101q-43 -72 -58 -177.5t-15 -299.5q0 -360 77 -481q76 -119 338 -119h312v561q0 33 30 33h136q30 0 30 -33v-610q0 -26 -6 -41q-28 -67 -205 -82l-143 -8q-39 -2 -154 -2
q-290 0 -434 100q-106 82 -146 237.5t-42 444.5q0 245 27.5 387.5t97.5 233.5q70 94 185 131t312 37z" />
    <glyph glyph-name="H" unicode="H" horiz-adv-x="1583" 
d="M1239 1550h145q31 0 31 -32v-1487q0 -31 -31 -31h-145q-31 0 -31 31v665h-833v-665q0 -31 -31 -31h-145q-31 0 -31 31v1487q0 32 31 32h145q31 0 31 -32v-639h833v639q0 32 31 32z" />
    <glyph glyph-name="I" unicode="I" horiz-adv-x="542" 
d="M199 1550h145q31 0 31 -32v-1487q0 -31 -31 -31h-145q-31 0 -31 31v1487q0 32 31 32z" />
    <glyph glyph-name="J" unicode="J" horiz-adv-x="1171" 
d="M299 1550h688q31 0 31 -30v-748q0 -240 -29 -382.5t-102 -233.5q-72 -92 -192 -129t-322 -37q-175 0 -307 18q-31 6 -31 37v96q0 31 31 31h307q271 0 354 121q85 122 82 479v596h-510q-31 0 -31 31v121q0 30 31 30z" />
    <glyph glyph-name="K" unicode="K" horiz-adv-x="1271" 
d="M1020 1550h166q51 0 18 -39l-608 -680l653 -776q19 -19 10 -37t-45 -18h-159q-32 0 -45 23l-633 761v-753q0 -31 -31 -31h-147q-31 0 -31 31v1489q0 30 31 30h147q31 0 31 -30v-643l600 653q14 20 43 20z" />
    <glyph glyph-name="L" unicode="L" horiz-adv-x="1179" 
d="M199 1550h145q31 0 31 -30v-1338h743q31 0 31 -30v-121q0 -31 -31 -31h-919q-31 0 -31 31v1489q0 30 31 30z" />
    <glyph glyph-name="M" unicode="M" horiz-adv-x="1935" 
d="M1499 1550h160q28 0 31 -30l133 -1489q3 -31 -31 -31h-147q-28 0 -31 31l-94 1163l-443 -1118q-9 -25 -37 -25h-145q-30 0 -39 25l-442 1118l-95 -1163q-3 -31 -30 -31h-146q-33 0 -30 31l131 1487q3 32 30 32h160q34 0 49 -15.5t35 -64.5l449 -1163l448 1163
q20 49 35 64.5t49 15.5z" />
    <glyph glyph-name="N" unicode="N" horiz-adv-x="1579" 
d="M1235 1550h145q31 0 31 -32v-1487q0 -31 -31 -31h-125q-47 0 -71 37l-809 1218v-1224q0 -31 -31 -31h-145q-31 0 -31 31v1487q0 32 31 32h139q53 -1 72.5 -11.5t44.5 -47.5l749 -1129v1156q0 32 31 32z" />
    <glyph glyph-name="O" unicode="O" horiz-adv-x="1482" 
d="M1366 772q0 -242 -27.5 -383.5t-99.5 -232.5q-70 -92 -185.5 -129t-312.5 -37q-196 0 -311.5 37t-187.5 129q-70 91 -97.5 232.5t-27.5 383.5q0 460 127 625q126 164 497 164q372 0 498 -164q127 -165 127 -625zM326 772q0 -360 77 -481q76 -119 338 -119t338 119
q78 122 78 481q0 196 -15.5 300.5t-60.5 176.5q-43 73 -121.5 101t-218.5 28t-218 -28t-124 -101q-43 -72 -58 -177.5t-15 -299.5z" />
    <glyph glyph-name="P" unicode="P" horiz-adv-x="1327" 
d="M635 1561q191 0 297.5 -19.5t179.5 -73.5q76 -54 106.5 -148.5t30.5 -258.5q0 -163 -31 -256.5t-102 -147.5q-46 -32 -119 -49q-122 -28 -362 -28h-260v-549q0 -19 -6 -25t-25 -6h-145q-19 0 -25 6t-6 25v1485q0 18 6 23t25 7q202 15 436 15zM616 1378h-241v-622h241
q101 0 132 2q135 4 178 24q65 28 90 89.5t24 185.5q0 206 -82 264q-77 57 -342 57z" />
    <glyph glyph-name="Q" unicode="Q" horiz-adv-x="1480" 
d="M1364 772q0 -420 -104 -588q-102 -169 -394 -190l74 -250q9 -33 -31 -33h-137q-34 0 -43 33l-74 248q-318 15 -428 180t-110 600q0 463 125 625q126 164 499 164q154 0 258 -24.5t177 -78.5q106 -83 146 -240.5t42 -445.5zM1157 772q0 280 -45 414q-34 106 -121.5 149
t-249.5 43q-261 0 -340 -123q-77 -121 -77 -483q0 -278 45 -412q34 -104 121.5 -146t250.5 -42q203 0 297 76q70 64 93.5 180t25.5 344z" />
    <glyph glyph-name="R" unicode="R" horiz-adv-x="1353" 
d="M635 1561q191 0 297.5 -19.5t179.5 -73.5q76 -54 106.5 -148.5t30.5 -258.5q0 -244 -75 -344q-73 -101 -261 -125l347 -551q12 -17 5 -29t-30 -12h-131q-31 0 -47.5 9.5t-34.5 35.5l-338 535h-309v-549q0 -19 -6 -25t-25 -6h-145q-19 0 -25 6t-6 25v1485q0 18 6 23t25 7
q202 15 436 15zM616 1378h-241v-622h241q101 0 132 2q135 4 178 24q65 28 90 89.5t24 185.5q0 206 -82 264q-77 57 -342 57z" />
    <glyph glyph-name="S" unicode="S" horiz-adv-x="1236" 
d="M649 1561q141 0 398 -31q28 -3 28 -27v-94q0 -31 -26 -31h-461q-269 0 -269 -182v-35q0 -81 32.5 -127t121.5 -82l447 -184q130 -54 182.5 -137.5t52.5 -218.5v-66q0 -174 -106 -260q-46 -40 -119 -61q-127 -35 -316 -35q-247 0 -499 28q-25 6 -25 33v92q0 29 29 29h561
q138 0 202 42t64 138v39q0 87 -33 136t-122 85l-486 197q-106 41 -149 125.5t-43 222.5v49q0 173 102 258q43 37 119 60q117 37 315 37z" />
    <glyph glyph-name="T" unicode="T" horiz-adv-x="1255" 
d="M59 1550h1137q31 0 31 -30v-121q0 -31 -31 -31h-465v-1337q0 -31 -31 -31h-145q-31 0 -31 31v1337h-465q-30 0 -30 31v121q0 30 30 30z" />
    <glyph glyph-name="U" unicode="U" horiz-adv-x="1529" 
d="M1198 1550h145q31 0 31 -30v-748q0 -250 -26.5 -393t-96.5 -232t-180.5 -123t-306.5 -34q-152 0 -251 22t-173 72q-73 49 -113 143q-71 181 -71 545v748q0 30 30 30h146q30 0 30 -30v-748q0 -245 35 -373q35 -124 118.5 -175.5t248.5 -51.5q242 0 321 119q82 119 82 481
v748q0 30 31 30z" />
    <glyph glyph-name="V" unicode="V" horiz-adv-x="1366" 
d="M78 1550h160q18 0 26 -32l340 -1239q20 -74 32.5 -92.5t43.5 -18.5q41 0 55 18.5t33 92.5l326 1239q8 32 26 32h160q33 0 27 -32l-342 -1289q-28 -107 -56 -159q-24 -44 -73 -62t-156 -18q-142 0 -184 39q-44 41 -86 200l-359 1289q-6 32 27 32z" />
    <glyph glyph-name="W" unicode="W" horiz-adv-x="2232" 
d="M1974 1550h162q33 0 27 -32l-279 -1289q-35 -159 -80 -198q-47 -41 -186 -41q-156 0 -201 39q-42 39 -82 200l-221 928l-221 -928q-25 -108 -53 -159q-24 -44 -74 -62t-158 -18q-141 0 -188 41q-42 37 -78 198l-276 1289q-6 32 24 32h162q19 0 27 -32l260 -1229
q13 -67 28 -88t47 -21q41 0 56 18.5t32 90.5l293 1165q9 33 37 33h164q26 0 35 -33l293 -1165q19 -73 33 -91t55 -18q33 0 48 20.5t28 88.5l260 1229q8 32 26 32z" />
    <glyph glyph-name="X" unicode="X" horiz-adv-x="1316" 
d="M1067 1550h158q26 0 31 -11t-9 -34l-467 -698l510 -762q29 -45 -22 -45h-158q-35 0 -55 33l-398 596l-393 -596q-23 -33 -55 -33h-160q-51 0 -22 45l510 762l-469 698q-14 23 -9 34t31 11h158q36 0 55 -32l354 -535l355 535q19 32 55 32z" />
    <glyph glyph-name="Y" unicode="Y" horiz-adv-x="1351" 
d="M1155 1550h158q45 0 22 -45l-555 -1034v-440q0 -31 -30 -31h-148q-31 0 -31 31v440l-555 1034q-23 45 23 45h160q36 0 55 -32l422 -822l424 822q14 32 55 32z" />
    <glyph glyph-name="Z" unicode="Z" horiz-adv-x="1339" 
d="M119 1550h1106q30 0 30 -30v-103q0 -19 -14 -39l-905 -1196h905q33 0 33 -30v-121q0 -31 -33 -31h-1145q-30 0 -30 31l-3 100q0 21 15 39l907 1198h-864q-33 0 -33 29l-2 123q0 30 33 30z" />
    <glyph glyph-name="bracketleft" unicode="[" horiz-adv-x="804" 
d="M205 1671h510q30 0 30 -31v-104q0 -31 -30 -31h-346v-1638h346q30 0 30 -31v-104q0 -31 -30 -31h-510q-31 0 -31 31v1908q0 31 31 31z" />
    <glyph glyph-name="backslash" unicode="\" horiz-adv-x="958" 
d="M68 1620h79q34 0 46 -35l712 -1620q15 -35 -16 -35h-84q-30 0 -45 35l-709 1620q-12 35 17 35z" />
    <glyph glyph-name="bracketright" unicode="]" horiz-adv-x="804" 
d="M90 1671h510q31 0 31 -31v-1908q0 -31 -31 -31h-510q-31 0 -31 31v104q0 31 31 31h346v1638h-346q-31 0 -31 31v104q0 31 31 31z" />
    <glyph glyph-name="asciicircum" unicode="^" horiz-adv-x="1032" 
d="M457 1505h118q28 0 37 -22l342 -682q15 -37 -22 -37h-148q-25 0 -34 22l-236 486l-233 -486q-9 -22 -37 -22h-142q-43 0 -22 37l340 682q9 22 37 22z" />
    <glyph glyph-name="underscore" unicode="_" horiz-adv-x="1126" 
d="M31 -94h1065q30 0 30 -31v-68q0 -30 -30 -30h-1065q-31 0 -31 30v68q0 31 31 31z" />
    <glyph glyph-name="grave" unicode="`" horiz-adv-x="872" 
d="M266 1554h183q18 0 24 -12l150 -248q9 -15 -7 -28l-41 -27q-14 -11 -28 0l-291 256q-10 10 -10 25v14q0 20 20 20z" />
    <glyph glyph-name="a" unicode="a" horiz-adv-x="1093" 
d="M498 1130q240 0 351.5 -77t111.5 -244v-717q0 -43 -39 -57q-116 -45 -455 -45q-216 0 -305 65q-90 69 -90 264q0 173 86.5 244.5t275.5 71.5l330 2v137q0 97 -62 140.5t-204 43.5h-308q-19 0 -24.5 6t-5.5 25v84q0 17 5 22.5t23 10.5q144 24 310 24zM764 182v295h-326
q-90 0 -131 -35t-41 -118q0 -97 51.5 -131.5t184.5 -34.5q168 0 262 24z" />
    <glyph glyph-name="b" unicode="b" horiz-adv-x="1183" 
d="M172 1548h135q31 0 31 -30v-402q104 14 272 14q288 0 377 -114q90 -116 90 -459q0 -342 -92 -457q-88 -110 -385 -110q-205 0 -426 35q-33 3 -33 32v1461q0 30 31 30zM600 958h-262v-780q141 -16 264 -16q183 0 232 76t49 321q0 251 -49 324q-49 75 -234 75z" />
    <glyph glyph-name="c" unicode="c" horiz-adv-x="995" 
d="M584 1130q176 0 311 -18q29 -3 29 -35v-88q0 -31 -31 -31h-309q-181 0 -230 -75q-49 -76 -49 -324q0 -245 49 -321t230 -76h309q31 0 31 -31v-88q0 -32 -29 -35q-135 -18 -311 -18q-159 0 -246 24t-141 90q-52 65 -70 165.5t-18 289.5t18 289.5t70 165.5
q54 67 140.5 91.5t246.5 24.5z" />
    <glyph glyph-name="d" unicode="d" horiz-adv-x="1185" 
d="M879 1548h135q30 0 30 -30v-1461q0 -29 -32 -32q-221 -35 -426 -35q-232 0 -340 67q-80 59 -107.5 170t-29.5 330q0 343 90 459q89 114 376 114q172 0 273 -14v402q0 30 31 30zM848 178v780h-260q-185 0 -234 -75q-49 -73 -49 -324q0 -244 47 -321q49 -76 234 -76
q121 0 262 16z" />
    <glyph glyph-name="e" unicode="e" horiz-adv-x="1114" 
d="M573 1130q274 0 363 -108q91 -111 94 -432v-60q0 -33 -15 -45t-59 -12h-651q3 -189 55 -250t218 -61h335q31 0 31 -31v-90q0 -30 -29 -33q-135 -18 -342 -18q-288 0 -376 110q-91 117 -91 459t91 459q87 112 376 112zM573 958q-162 0 -215 -65q-52 -64 -55 -260h531
q-3 195 -54 262q-48 63 -207 63z" />
    <glyph glyph-name="f" unicode="f" horiz-adv-x="733" 
d="M524 1561q84 0 181 -19q26 -6 26 -33v-90q0 -30 -31 -30h-112q-102 0 -137 -20.5t-35 -90.5v-160h262q33 0 27 -33l-17 -98q-6 -26 -33 -26h-239v-930q0 -31 -31 -31h-135q-31 0 -31 31v930h-145q-31 0 -31 30v96q0 31 31 31h145v203q0 63 20 110t52 72q32 26 76 37
q74 21 157 21z" />
    <glyph glyph-name="g" unicode="g" horiz-adv-x="1181" 
d="M586 1130q260 0 424 -34q32 -3 32 -35v-959q0 -165 -19 -255.5t-71 -151.5q-53 -62 -141.5 -86.5t-241.5 -24.5q-151 0 -297 19q-26 3 -26 32v89q0 30 28 30h291q171 0 226 49t55 191v12q-109 -16 -271 -16q-291 0 -378 112q-91 117 -91 461q0 185 19.5 286.5t73.5 166.5
q54 66 141 90t246 24zM846 176v782h-262q-183 0 -232 -75q-49 -73 -49 -322q0 -247 49 -323q52 -76 236 -76q152 0 258 14z" />
    <glyph glyph-name="h" unicode="h" horiz-adv-x="1206" 
d="M172 1548h135q31 0 31 -30v-398q113 10 260 10q157 0 231 -14q83 -13 142 -63q59 -48 80.5 -138.5t21.5 -263.5v-620q0 -31 -31 -31h-135q-30 0 -30 31v604q0 126 -11.5 187.5t-46.5 90.5q-34 31 -72.5 39.5t-128.5 8.5h-280v-930q0 -31 -31 -31h-135q-31 0 -31 31v1487
q0 30 31 30z" />
    <glyph glyph-name="i" unicode="i" horiz-adv-x="479" 
d="M360 1448q0 -121 -120 -121q-121 0 -121 121q0 119 121 119q120 0 120 -119zM172 1120h135q31 0 31 -30v-1059q0 -31 -31 -31h-135q-31 0 -31 31v1059q0 30 31 30z" />
    <glyph glyph-name="j" unicode="j" horiz-adv-x="485" 
d="M246 1567q121 0 121 -119q0 -121 -121 -121q-123 0 -123 121q0 119 123 119zM178 1120h135q31 0 31 -30v-1332q-1 -47 -15 -80.5t-33.5 -51t-53 -27t-59 -11.5t-64.5 -2q-80 0 -113 8q-29 6 -29 33v103q0 28 33 28h47q61 0 75.5 14t14.5 74v1244q0 30 31 30z" />
    <glyph glyph-name="k" unicode="k" horiz-adv-x="1034" 
d="M172 1548h135q31 0 31 -32v-793l336 377q14 20 43 20h170q26 0 30.5 -11t-12.5 -28l-362 -401l481 -625q19 -19 10 -37t-45 -18h-143q-25 0 -45 23l-463 610v-600q0 -33 -31 -33h-135q-31 0 -31 33v1483q0 32 31 32z" />
    <glyph glyph-name="l" unicode="l" horiz-adv-x="479" 
d="M172 1550h135q31 0 31 -30v-1489q0 -31 -31 -31h-135q-31 0 -31 31v1489q0 30 31 30z" />
    <glyph glyph-name="m" unicode="m" horiz-adv-x="1779" 
d="M1182 1133q141 2 227 -15t139 -63q54 -49 77.5 -142.5t23.5 -253.5l-4 -628q0 -31 -31 -31h-131q-31 0 -31 31v604q0 162 -33 248q-16 39 -51 53q-34 16 -66 20.5t-104 4.5q-132 0 -240 -19q33 -88 33 -291l-4 -620q0 -31 -26 -31h-136q-30 0 -30 31v616
q0 120 -11.5 179.5t-46.5 88.5q-33 29 -69 36t-127 7h-205v-927q0 -31 -31 -31h-135q-31 0 -31 31v1034q0 27 31 33q157 32 342 32q209 0 340 -61q180 64 330 64z" />
    <glyph glyph-name="n" unicode="n" horiz-adv-x="1204" 
d="M596 1130q157 0 231 -14q83 -13 142 -63q59 -48 80.5 -138.5t21.5 -263.5v-620q0 -31 -35 -31h-131q-31 0 -31 31v604q0 164 -32 248q-15 36 -51 51q-35 16 -67.5 20t-107.5 4h-280v-927q0 -31 -31 -31h-135q-31 0 -31 31v1034q0 13 4 20t9.5 9t17.5 4q157 32 426 32z
" />
    <glyph glyph-name="o" unicode="o" horiz-adv-x="1165" 
d="M342 1106q88 24 242 24q152 0 241 -24q179 -46 215 -264q19 -108 19 -283q0 -174 -19 -285q-17 -103 -72 -170t-143 -92q-93 -22 -241 -22q-151 0 -244 22q-176 50 -215 262q-19 111 -19 285q0 175 19 283q39 218 217 264zM584 958q-183 0 -232 -75q-49 -76 -49 -324
q0 -245 49 -321t232 -76q180 0 229 76t49 321q0 248 -49 324q-49 75 -229 75z" />
    <glyph glyph-name="p" unicode="p" horiz-adv-x="1181" 
d="M596 1130q297 0 387 -112q92 -115 92 -457q0 -343 -90 -459q-87 -112 -379 -112q-162 0 -270 12v-377q0 -31 -31 -31h-135q-31 0 -31 31v1436q0 29 33 35q214 34 424 34zM598 958h-262v-780q141 -16 258 -16q183 0 233 74q52 76 52 323t-50 324q-49 75 -231 75z" />
    <glyph glyph-name="q" unicode="q" horiz-adv-x="1179" 
d="M584 1130q210 0 424 -34q32 -6 32 -35v-1436q0 -31 -30 -31h-136q-30 0 -30 31v375q-98 -10 -271 -10q-289 0 -376 112q-91 117 -91 461q0 342 93 455q90 112 385 112zM844 176v782h-262q-183 0 -232 -75q-47 -74 -47 -322q0 -247 49 -323t234 -76q152 0 258 14z" />
    <glyph glyph-name="r" unicode="r" horiz-adv-x="749" 
d="M461 1130q161 0 229 -22q31 -9 31 -35v-86q0 -32 -33 -29h-178q-106 0 -142 -22.5t-36 -91.5v-813q0 -31 -31 -31h-133q-31 0 -31 31v860q0 62 22.5 110.5t55.5 73.5q38 26 82 37q66 18 164 18z" />
    <glyph glyph-name="s" unicode="s" horiz-adv-x="989" 
d="M520 1130q161 0 314 -18q28 -3 28 -33v-88q0 -30 -31 -30h-380q-150 0 -150 -107v-27q0 -96 127 -143l272 -109q121 -47 163 -112.5t42 -175.5v-23q0 -163 -96 -219q-94 -55 -317 -55q-219 0 -375 18q-31 3 -31 31v90q0 31 31 31h379q127 0 171 20.5t44 85.5v25
q0 48 -26 78t-93 59l-291 111q-197 77 -197 292v43q0 162 127 213q109 43 289 43z" />
    <glyph glyph-name="t" unicode="t" horiz-adv-x="700" 
d="M223 1397l135 33q35 9 35 -27v-285h215q33 0 33 -31v-96q0 -30 -33 -30h-215v-689q0 -68 25.5 -89t107.5 -21h99q32 0 32 -29v-98q0 -27 -30 -33q-49 -12 -115 -12t-96 2.5t-78 13.5q-69 18 -102 66.5t-39 150.5v738h-115q-31 0 -31 30v96q0 31 31 31h115v246q0 27 26 33
z" />
    <glyph glyph-name="u" unicode="u" horiz-adv-x="1206" 
d="M899 1120h135q31 0 31 -30v-1037q0 -9 -1.5 -14.5t-7 -8.5t-9 -4t-13.5 -3q-165 -33 -426 -33q-152 0 -231 12q-82 15 -141 66q-60 49 -81.5 140t-21.5 263v619q0 30 35 30h131q31 0 31 -30v-605q0 -125 11 -186t44 -92q35 -29 73.5 -37t129.5 -8h280v928q0 30 31 30z
" />
    <glyph glyph-name="v" unicode="v" horiz-adv-x="1114" 
d="M881 1120h149q19 0 24 -6.5t1 -26.5l-230 -858q-19 -74 -22 -82q-21 -83 -43 -102q-1 -1 -7.5 -8t-10 -10l-10.5 -9t-13 -9t-14.5 -6t-16.5 -3q-55 -10 -135 -10q-74 0 -112 8.5t-68 30.5q-17 17 -29 45q-8 17 -14.5 33.5t-10 28.5t-11.5 41t-15 52l-240 858
q-2 20 3 26.5t22 6.5h151q12 0 16.5 -6t10.5 -27l221 -813q20 -72 32.5 -90t43.5 -18q41 0 55 17.5t33 90.5l213 813q4 20 9.5 26.5t17.5 6.5z" />
    <glyph glyph-name="w" unicode="w" horiz-adv-x="1712" 
d="M1475 1120h147q17 0 22 -6.5t3 -26.5l-181 -866q-36 -155 -73 -192q-39 -39 -166 -39q-131 0 -166 35q-35 38 -72 196l-133 574l-133 -574q-37 -158 -72 -196q-35 -35 -166 -35q-124 0 -166 39q-37 37 -73 192l-180 866q-2 21 2.5 27t21.5 6h150q15 0 24 -33l168 -841
q12 -51 22 -64.5t33 -13.5q26 0 35 12t21 66l198 809q8 32 29 32h172q21 0 29 -32l198 -809q12 -54 21 -66t35 -12q23 0 33 13.5t22 64.5l168 841q4 20 9.5 26.5t17.5 6.5z" />
    <glyph glyph-name="x" unicode="x" horiz-adv-x="1087" 
d="M827 1120h166q18 0 23 -12t-6 -25l-353 -489l398 -557q10 -17 5.5 -27t-22.5 -10h-168q-21 0 -30 18l-297 420l-299 -420q-9 -18 -31 -18h-166q-19 0 -23.5 10t5.5 27l397 557l-350 489q-8 9 -9 17.5t5 14t18 5.5h168q21 0 33 -18l252 -352l250 352q12 18 34 18z" />
    <glyph glyph-name="y" unicode="y" horiz-adv-x="1208" 
d="M901 1120h135q31 0 31 -30v-988q0 -165 -19 -255.5t-71 -151.5q-53 -62 -141.5 -86.5t-241.5 -24.5q-163 0 -309 19q-29 3 -29 32v89q0 30 31 30h303q170 0 225 49t55 191v12q-109 -16 -270 -16q-288 0 -379 110q-90 116 -90 449v541q0 30 31 30h133q31 0 31 -30v-529
q0 -247 49 -323q52 -76 237 -76q152 0 258 14v914q0 30 31 30z" />
    <glyph glyph-name="z" unicode="z" horiz-adv-x="1050" 
d="M123 1120h809q33 0 33 -30v-50q0 -17 -13 -36l-604 -832h604q33 0 33 -31v-110q0 -31 -33 -31h-856q-33 0 -33 31v57q0 22 15 37l598 823h-553q-33 0 -33 31v111q0 30 33 30z" />
    <glyph glyph-name="braceleft" unicode="{" horiz-adv-x="684" 
d="M483 1690q39 0 97 -9q30 -3 30 -32v-107q0 -31 -30 -31h-80q-58 0 -81.5 -21.5t-17.5 -70.5l56 -532q6 -47 -5.5 -70t-48.5 -51l-135 -74v-8l135 -74q37 -28 48.5 -51t5.5 -70l-56 -532q-6 -49 17.5 -70.5t81.5 -21.5h80q30 0 30 -31v-106q0 -30 -30 -33q-52 -8 -97 -8
q-163 0 -231 59.5t-55 194.5l57 544q3 22 -18 37l-160 96q-17 10 -17 37v66q0 27 17 37l160 96q21 15 18 37l-57 545q-13 135 55 194.5t231 59.5z" />
    <glyph glyph-name="bar" unicode="|" horiz-adv-x="542" 
d="M205 1645h133q31 0 31 -31v-1761q0 -31 -31 -31h-133q-31 0 -31 31v1761q0 31 31 31z" />
    <glyph glyph-name="braceright" unicode="}" horiz-adv-x="684" 
d="M201 1690q163 0 231 -59.5t55 -194.5l-57 -545q-3 -21 19 -37l159 -96q17 -10 17 -37v-66q0 -27 -17 -37l-159 -96q-22 -16 -19 -37l57 -544q13 -135 -55 -194.5t-231 -59.5q-45 0 -97 8q-30 3 -30 33v106q0 31 30 31h82q56 0 79.5 21.5t19.5 70.5l-58 532q-6 47 5.5 70
t48.5 51l135 74v8l-135 74q-37 28 -48.5 51t-5.5 70l58 532q4 49 -19.5 70.5t-79.5 21.5h-82q-30 0 -30 31v107q0 29 30 32q58 9 97 9z" />
    <glyph glyph-name="asciitilde" unicode="~" horiz-adv-x="1253" 
d="M399 899q52 3 119.5 -27t121 -67t112.5 -67t98 -27q116 0 162 98q15 27 39 12l82 -53q19 -13 10 -37q-30 -94 -106.5 -152.5t-180.5 -58.5q-44 -2 -95.5 17.5t-98 48t-91.5 57.5t-89.5 48.5t-78.5 17.5q-113 0 -159 -99q-15 -27 -39 -12l-82 53q-19 13 -10 37
q30 95 106.5 153t179.5 58z" />
    <glyph glyph-name="Adieresis" unicode="&#xa1;" horiz-adv-x="514" 
d="M260 1130q119 0 119 -120q0 -117 -119 -117q-123 0 -123 117q0 120 123 120zM223 733h68q28 0 31 -31l32 -305q2 -14 2 -41v-731q0 -31 -30 -31h-138q-30 0 -30 31v731q0 27 2 41l33 305q6 31 30 31z" />
    <glyph glyph-name="Aring" unicode="&#xa2;" horiz-adv-x="1034" 
d="M897 958h-309q-181 0 -230 -75q-49 -76 -49 -324q0 -245 49 -321t230 -76h309q31 0 31 -31v-88q0 -32 -29 -35q-135 -18 -311 -18h-58l-24 -135q-3 -31 -35 -31h-78q-29 0 -26 31l26 149q-166 29 -225 150q-55 119 -55 405q0 338 82 451q82 114 352 120l24 136
q3 30 35 30h78q30 0 27 -30l-25 -138q119 -3 213 -16q29 -3 29 -35v-88q0 -31 -31 -31z" />
    <glyph glyph-name="Ccedilla" unicode="&#xa3;" horiz-adv-x="1273" 
d="M901 1550q81 0 221 -10q31 -6 31 -27v-124q0 -21 -31 -21h-245q-246 0 -326 -57q-82 -55 -82 -219v-383h506q31 0 31 -31v-96q0 -31 -31 -31h-506v-369h705q30 0 30 -30v-121q0 -31 -30 -31h-1084q-33 0 -27 31l21 121q6 30 35 30h141v369h-110q-31 0 -31 31v96
q0 31 31 31h110v393q0 270 131 358q134 90 510 90z" />
    <glyph glyph-name="Eacute" unicode="&#xa4;" horiz-adv-x="1122" 
d="M127 1038l53 56q24 21 45 0l103 -101q97 54 233 54q131 0 236 -54l100 101q21 21 45 0l53 -56q23 -19 2 -43l-100 -98q61 -94 61 -231q0 -138 -61 -232l100 -98q21 -24 -2 -43l-53 -55q-24 -21 -45 0l-100 100q-103 -53 -236 -53q-138 0 -233 53l-103 -100q-21 -21 -45 0
l-53 55q-23 19 -2 43l100 98q-59 89 -59 232q0 142 59 231l-100 98q-21 24 2 43zM711 825q-53 56 -150 56q-95 0 -151 -56q-54 -57 -54 -159q0 -103 54 -160q55 -55 151 -55q98 0 150 55q55 55 55 160q0 104 -55 159z" />
    <glyph glyph-name="Ntilde" unicode="&#xa5;" horiz-adv-x="1433" 
d="M1194 1550h160q45 0 22 -45l-512 -895h275q30 0 30 -30v-72q0 -31 -30 -31h-318v-162h318q30 0 30 -30v-72q0 -31 -30 -31h-318v-151q0 -31 -30 -31h-148q-31 0 -31 31v151h-315q-31 0 -31 31v72q0 30 31 30h315v162h-315q-31 0 -31 31v72q0 30 31 30h274l-514 895
q-23 45 23 45h158q38 0 55 -32l424 -762l422 762q17 32 55 32z" />
    <glyph glyph-name="Odieresis" unicode="&#xa6;" horiz-adv-x="540" 
d="M203 1645h135q31 0 31 -31v-729q0 -31 -31 -31h-135q-31 0 -31 31v729q0 31 31 31zM203 614h135q31 0 31 -30v-731q0 -31 -31 -31h-135q-31 0 -31 31v731q0 30 31 30z" />
    <glyph glyph-name="Udieresis" unicode="&#xa7;" horiz-adv-x="927" 
d="M520 1571q69 0 166 -17q29 -6 29 -30v-88q0 -29 -31 -29h-233q-152 0 -152 -111v-159l319 -125q197 -77 197 -291v-578q0 -164 -125 -213q-61 -24 -123.5 -32.5t-160.5 -8.5q-82 0 -166 19q-27 6 -27 31v86q0 28 29 28h235q152 0 152 111v153l-320 125q-196 76 -196 291
v584q0 163 123 213q61 24 123.5 32.5t160.5 8.5zM500 872l-201 80v-223q0 -99 127 -149l203 -80v223q0 96 -129 149z" />
    <glyph glyph-name="aacute" unicode="&#xa8;" horiz-adv-x="1126" 
d="M373 1513q125 0 125 -120q0 -125 -125 -125q-127 0 -127 125q0 120 127 120zM754 1513q127 0 127 -120q0 -125 -127 -125q-125 0 -125 125q0 120 125 120z" />
    <glyph glyph-name="agrave" unicode="&#xa9;" horiz-adv-x="1769" 
d="M1475 174q-187 -190 -590 -190t-590 190q-189 192 -189 594t189 594q187 190 590 190t590 -190q188 -191 188 -594t-188 -594zM885 1436q-343 0 -502.5 -161t-159.5 -507q0 -341 160 -506q162 -162 502 -162q341 0 499 162q162 162 162 506t-160.5 506t-500.5 162z
M891 1159q142 0 201 -16q24 -6 24 -29v-86q0 -14 -14 -14h-211q-96 0 -131 -53q-31 -54 -31 -205q0 -149 31 -203q35 -53 131 -53h211q14 0 14 -15v-88q0 -22 -24 -28q-87 -17 -201 -17q-193 0 -262 84q-68 86 -68 320q0 236 68 319q69 84 262 84z" />
    <glyph glyph-name="acircumflex" unicode="&#xaa;" horiz-adv-x="817" 
d="M391 1561q153 0 220 -50.5t67 -160.5v-426q0 -26 -27 -35q-112 -23 -264 -23q-150 0 -209 40t-59 153v22q0 105 56 151t181 46h176v49q0 105 -141 105h-203q-12 0 -12 14v84q0 11 14 14q100 17 201 17zM532 997v162h-159q-60 0 -83.5 -18t-23.5 -60v-6q0 -51 25 -69.5
t94 -18.5q89 0 147 10zM172 748h455q30 0 30 -31v-60q0 -30 -30 -30h-455q-31 0 -31 30v60q0 31 31 31z" />
    <glyph glyph-name="adieresis" unicode="&#xab;" horiz-adv-x="1044" 
d="M358 954h134q30 0 30 -30v-15q0 -23 -14 -37l-252 -313l252 -311q14 -14 14 -37v-14q0 -31 -30 -31h-134q-21 0 -36 18l-228 297q-14 14 -14 39v78q0 21 14 41l228 297q15 18 36 18zM768 954h133q31 0 31 -30v-15q0 -23 -14 -37l-252 -313l252 -311q14 -14 14 -37v-14
q0 -31 -31 -31h-133q-22 0 -37 18l-227 297q-15 15 -15 39v78q0 20 15 41l227 297q15 18 37 18z" />
    <glyph glyph-name="atilde" unicode="&#xac;" horiz-adv-x="1247" 
d="M127 950h946q31 0 31 -30v-488q0 -31 -31 -31h-125q-30 0 -30 31v334h-791q-31 0 -31 31v123q0 30 31 30z" />
    <glyph glyph-name="aring" unicode="&#xae;" horiz-adv-x="1769" 
d="M1475 174q-187 -190 -590 -190t-590 190q-189 192 -189 594t189 594q187 190 590 190t590 -190q188 -191 188 -594t-188 -594zM885 1436q-343 0 -502.5 -161t-159.5 -507q0 -341 160 -506q162 -162 502 -162q341 0 499 162q162 162 162 506t-160.5 506t-500.5 162z
M899 1165q171 0 235 -56t64 -208q0 -115 -35 -168.5t-123 -70.5l177 -281q6 -6 2.5 -11t-11.5 -5h-145q-24 0 -33 18l-172 268h-86v-272q0 -14 -12 -14h-142q-14 0 -14 14v764q0 12 12 12q130 10 283 10zM881 1020h-109v-244h109q87 0 116 23.5t29 95.5q0 74 -29.5 99.5
t-115.5 25.5z" />
    <glyph glyph-name="ccedilla" unicode="&#xaf;" horiz-adv-x="1081" 
d="M276 1446h529q31 0 31 -31v-84q0 -31 -31 -31h-529q-30 0 -30 31v84q0 31 30 31z" />
    <glyph glyph-name="eacute" unicode="&#xb0;" horiz-adv-x="731" 
d="M367 1561q272 0 272 -265q0 -262 -272 -262q-275 0 -275 262q0 265 275 265zM367 1434q-140 0 -140 -138q0 -137 140 -137q137 0 137 137q0 138 -137 138z" />
    <glyph glyph-name="egrave" unicode="&#xb1;" horiz-adv-x="1230" 
d="M555 1305h123q31 0 31 -31v-291h360q31 0 31 -31v-112q0 -31 -31 -31h-360v-291q0 -31 -31 -31h-123q-31 0 -31 31v291h-362q-31 0 -31 31v112q0 31 31 31h362v291q0 31 31 31zM160 367h911q31 0 31 -31v-107q0 -30 -31 -30h-911q-31 0 -31 30v107q0 31 31 31z" />
    <glyph glyph-name="ecircumflex" unicode="&#xb2;" horiz-adv-x="714" 
d="M319 1872q153 0 230.5 -45t77.5 -156v-92q0 -72 -21.5 -114t-91.5 -91l-186 -121q-78 -54 -78 -75v-11h385q8 0 8 -8v-123q0 -6 -8 -6h-543q-29 0 -29 31v90q0 60 24.5 93.5t100.5 86.5l224 156q35 24 47 50t12 71v20q0 61 -37.5 84t-130.5 23h-201q-12 0 -12 14v82
q0 17 23 24q93 17 206 17z" />
    <glyph glyph-name="edieresis" unicode="&#xb3;" horiz-adv-x="718" 
d="M336 1872q299 0 299 -203v-61q0 -136 -137 -160q137 -21 137 -162v-61q0 -111 -76.5 -156t-222.5 -45q-116 0 -238 16q-22 3 -22 27v80q0 12 12 12h219q95 0 133.5 21t38.5 80v24q1 58 -39 80t-135 22h-164q-12 0 -12 15v94q0 12 12 12h164q94 0 134 22.5t40 80.5v26
q0 58 -38.5 78.5t-133.5 20.5h-219q-12 0 -12 12v82q0 21 22 24q90 19 238 19z" />
    <glyph glyph-name="iacute" unicode="&#xb4;" horiz-adv-x="872" 
d="M424 1554h182q21 0 21 -20v-14q0 -14 -11 -25l-290 -256q-15 -12 -29 0l-41 27q-15 12 -6 28l149 248q6 12 25 12z" />
    <glyph glyph-name="igrave" unicode="&#xb5;" horiz-adv-x="1214" 
d="M907 1120h135q31 0 31 -30v-1037q0 -9 -1.5 -14.5t-7 -8.5t-9 -4t-13.5 -3q-165 -33 -426 -33q-196 0 -278 28v-260q0 -30 -31 -30h-135q-31 0 -31 30v1332q0 30 35 30h131q31 0 31 -30v-605q0 -125 11 -186t44 -92q35 -29 73.5 -37t129.5 -8h281v928q0 30 30 30z" />
    <glyph glyph-name="icircumflex" unicode="&#xb6;" horiz-adv-x="1423" 
d="M641 1561q198 0 313 -37t185 -131q70 -91 96.5 -233t26.5 -386v-774h-179v788q0 308 -65 441t-240 160v-781h-133q-327 -6 -448 86q-120 94 -123 363v47q3 271 119 362q121 95 448 95z" />
    <glyph glyph-name="idieresis" unicode="&#xb7;" horiz-adv-x="483" 
d="M244 680q118 0 118 -119t-118 -119q-123 0 -123 119t123 119z" />
    <glyph glyph-name="ntilde" unicode="&#xb8;" horiz-adv-x="827" 
d="M455 31h61q26 0 35 -27q31 -118 31 -188q0 -86 -44.5 -121t-144.5 -35q-80 0 -123 16q-24 9 -24 37v70q0 31 30 31h74q59 0 76.5 11t17.5 52t-16 119q-9 35 27 35z" />
    <glyph glyph-name="oacute" unicode="&#xb9;" horiz-adv-x="557" 
d="M371 1724v-557h131q14 0 14 -14v-111q0 -12 -14 -12h-414q-14 0 -14 14v109q0 14 14 14h133v519q0 59 -69 59h-74q-15 0 -15 12v86q0 16 15 19q75 10 108 10q93 0 139 -32.5t46 -115.5z" />
    <glyph glyph-name="ograve" unicode="&#xba;" horiz-adv-x="845" 
d="M422 1561q182 0 240 -70q59 -71 59 -277q0 -209 -59 -280q-59 -68 -240 -68q-182 0 -240 70q-57 69 -57 278q0 206 59 277q58 70 238 70zM422 1432q-93 0 -123 -43q-29 -47 -29 -175q0 -126 29 -176q30 -43 123 -43q96 0 123 43q28 45 28 176q0 133 -28 175
q-27 43 -123 43zM195 748h454q31 0 31 -31v-60q0 -30 -31 -30h-454q-31 0 -31 30v60q0 31 31 31z" />
    <glyph glyph-name="ocircumflex" unicode="&#xbb;" horiz-adv-x="1042" 
d="M143 954h133q22 0 37 -18l228 -297q14 -22 14 -41v-78q0 -19 -14 -39l-228 -297q-15 -18 -37 -18h-133q-30 0 -30 31v14q0 23 14 37l250 311l-250 313q-14 14 -14 37v15q0 30 30 30zM551 954h133q22 0 37 -18l229 -297q13 -23 13 -41v-78q0 -20 -13 -39l-229 -297
q-15 -18 -37 -18h-133q-31 0 -31 31v14q0 22 15 37l251 311l-251 313q-15 15 -15 37v15q0 30 31 30z" />
    <glyph glyph-name="odieresis" unicode="&#xbc;" horiz-adv-x="1759" 
d="M1151 1620h63q27 0 15 -35l-707 -1620q-18 -35 -47 -35h-65q-33 0 -15 35l709 1620q15 35 47 35zM537 838v-111q0 -12 -15 -12h-413q-15 0 -15 14v109q0 14 15 14h135v518q0 60 -72 60h-74q-14 0 -14 12v86q0 15 14 18q75 10 109 10q93 0 138.5 -32t45.5 -115v-557h131
q15 0 15 -14zM1571 580v-232h123q14 0 14 -12v-111q0 -12 -14 -12h-123v-199q0 -14 -12 -14h-132q-10 0 -10 14v199h-366q-13 0 -13 12v82q0 14 9 35l139 483q7 11 16 11h129q17 0 8 -15l-135 -473h213v187q0 11 10 14l129 43q15 3 15 -12z" />
    <glyph glyph-name="otilde" unicode="&#xbd;" horiz-adv-x="1728" 
d="M1151 1620h63q27 0 15 -35l-707 -1620q-18 -35 -47 -35h-65q-33 0 -15 35l709 1620q15 35 47 35zM524 838v-111q0 -12 -14 -12h-414q-12 0 -12 14v109q0 14 12 14h135v518q0 60 -69 60h-76q-12 0 -12 12v86q0 15 12 18q75 10 109 10q93 0 138.5 -32t45.5 -115v-557h131
q14 0 14 -14zM1262 147v-10h387q8 0 8 -8v-123q0 -6 -8 -6h-543q-29 0 -29 31v90q0 60 24.5 93.5t100.5 86.5l223 156q35 24 47.5 50t12.5 71v20q0 61 -37.5 84t-130.5 23h-201q-12 0 -12 14v82q0 18 22 24q94 17 207 17q152 0 229.5 -45t77.5 -156v-92q0 -72 -21 -114.5
t-91 -90.5l-187 -121q-79 -55 -79 -76z" />
    <glyph glyph-name="uacute" unicode="&#xbe;" horiz-adv-x="1853" 
d="M1260 1620h63q26 0 14 -35l-704 -1620q-18 -35 -47 -35h-68q-29 0 -14 35l708 1620q15 35 48 35zM352 1556q299 0 299 -202v-62q0 -135 -137 -159q137 -21 137 -162v-62q0 -111 -76.5 -155.5t-222.5 -44.5q-117 0 -239 16q-21 3 -21 27v79q0 13 10 13h222
q95 0 133.5 20.5t38.5 79.5v25q1 58 -39 80t-135 22h-164q-15 0 -15 14v95q0 12 15 12h164q94 0 134 22t40 80v27q0 58 -38.5 78t-133.5 20h-222q-10 0 -10 13v81q0 22 21 25q86 18 239 18zM1296 836h131q15 0 9 -15l-136 -473h211v187q0 11 13 14l129 43q14 3 14 -12v-232
h121q14 0 14 -12v-111q0 -12 -14 -12h-121v-199q0 -14 -12 -14h-131q-13 0 -13 14v199h-366q-10 0 -10 12v82q0 22 8 35l139 483q4 11 14 11z" />
    <glyph glyph-name="ugrave" unicode="&#xbf;" horiz-adv-x="1048" 
d="M711 1130q120 0 120 -120q0 -117 -120 -117q-123 0 -123 117q0 120 123 120zM635 733h139q19 0 19 -16l10 -125q5 -62 -16 -95t-89 -71l-301 -145q-67 -33 -91.5 -78t-24.5 -142v-75q0 -90 57 -138t135 -64.5t211 -16.5h283q30 0 30 -31v-96q0 -31 -30 -37
q-162 -19 -285 -19q-137 0 -236 17t-188 57q-91 38 -138.5 119.5t-47.5 199.5v86q0 163 47 240q50 77 178 135l209 101q66 30 84.5 52.5t23.5 74.5l4 51q3 16 17 16z" />
    <glyph glyph-name="ucircumflex" unicode="&#xc0;" horiz-adv-x="1388" 
d="M434 1964h180q19 0 25 -12l149 -248q10 -16 -6 -29l-41 -26q-14 -11 -28 0l-289 256q-10 10 -10 24v15q0 20 20 20zM690 1561q158 0 205 -41q48 -40 92 -199l350 -1288q4 -20 -0.5 -26.5t-23.5 -6.5h-160q-12 0 -17.5 6.5t-9.5 26.5l-127 452h-616l-129 -452
q-4 -20 -9.5 -26.5t-17.5 -6.5h-159q-19 0 -24 6.5t-1 26.5l363 1288q48 161 92 199q50 41 192 41zM690 1380q-42 0 -55.5 -17t-32.5 -91l-168 -606h518l-159 606q-21 74 -37 90q-15 18 -66 18z" />
    <glyph glyph-name="udieresis" unicode="&#xc1;" horiz-adv-x="1388" 
d="M791 1964h182q20 0 20 -20v-15q0 -14 -10 -24l-291 -256q-14 -11 -28 0l-41 26q-16 13 -7 29l150 248q6 12 25 12zM690 1561q158 0 205 -41q48 -40 92 -199l350 -1288q4 -20 -0.5 -26.5t-23.5 -6.5h-160q-12 0 -17.5 6.5t-9.5 26.5l-127 452h-616l-129 -452
q-4 -20 -9.5 -26.5t-17.5 -6.5h-159q-19 0 -24 6.5t-1 26.5l363 1288q48 161 92 199q50 41 192 41zM690 1380q-42 0 -55.5 -17t-32.5 -91l-168 -606h518l-159 606q-21 74 -37 90q-15 18 -66 18z" />
    <glyph glyph-name="dagger" unicode="&#xc2;" horiz-adv-x="1388" 
d="M647 1964h86q27 0 35 -14l182 -248q12 -15 -8 -29l-35 -24q-15 -12 -30 0l-187 149l-186 -149q-15 -12 -31 0l-35 24q-20 14 -8 29l182 248q8 14 35 14zM690 1561q158 0 205 -41q48 -40 92 -199l350 -1288q4 -20 -0.5 -26.5t-23.5 -6.5h-160q-12 0 -17.5 6.5t-9.5 26.5
l-127 452h-616l-129 -452q-4 -20 -9.5 -26.5t-17.5 -6.5h-159q-19 0 -24 6.5t-1 26.5l363 1288q48 161 92 199q50 41 192 41zM690 1380q-42 0 -55.5 -17t-32.5 -91l-168 -606h518l-159 606q-21 74 -37 90q-15 18 -66 18z" />
    <glyph glyph-name="degree" unicode="&#xc3;" horiz-adv-x="1388" 
d="M547 1925q49 0 145 -41q100 -41 131 -41q37 0 56.5 14.5t38.5 55.5q15 31 38 22l48 -12q31 -9 22 -47q-37 -117 -75.5 -157t-116.5 -40q-48 0 -148 41q-96 41 -129 41q-38 0 -56.5 -14t-37.5 -55q-16 -29 -39 -21l-47 12q-32 10 -23 46q37 118 76 157t117 39zM690 1561
q158 0 205 -41q48 -40 92 -199l350 -1288q4 -20 -0.5 -26.5t-23.5 -6.5h-160q-12 0 -17.5 6.5t-9.5 26.5l-127 452h-616l-129 -452q-4 -20 -9.5 -26.5t-17.5 -6.5h-159q-19 0 -24 6.5t-1 26.5l363 1288q48 161 92 199q50 41 192 41zM690 1380q-42 0 -55.5 -17t-32.5 -91
l-168 -606h518l-159 606q-21 74 -37 90q-15 18 -66 18z" />
    <glyph glyph-name="cent" unicode="&#xc4;" horiz-adv-x="1388" 
d="M500 1923q125 0 125 -121q0 -125 -125 -125q-127 0 -127 125q0 121 127 121zM883 1923q125 0 125 -121q0 -125 -125 -125q-127 0 -127 125q0 121 127 121zM690 1561q158 0 205 -41q48 -40 92 -199l350 -1288q4 -20 -0.5 -26.5t-23.5 -6.5h-160q-12 0 -17.5 6.5t-9.5 26.5
l-127 452h-616l-129 -452q-4 -20 -9.5 -26.5t-17.5 -6.5h-159q-19 0 -24 6.5t-1 26.5l363 1288q48 161 92 199q50 41 192 41zM690 1380q-42 0 -55.5 -17t-32.5 -91l-168 -606h518l-159 606q-21 74 -37 90q-15 18 -66 18z" />
    <glyph glyph-name="sterling" unicode="&#xc5;" horiz-adv-x="1388" 
d="M473 1858q0 208 217 208t217 -208q0 -209 -217 -209t-217 209zM817 1858q0 127 -127 127t-127 -127t127 -127t127 127zM690 1561q158 0 205 -41q48 -40 92 -199l350 -1288q4 -20 -0.5 -26.5t-23.5 -6.5h-160q-12 0 -17.5 6.5t-9.5 26.5l-127 452h-616l-129 -452
q-4 -20 -9.5 -26.5t-17.5 -6.5h-159q-19 0 -24 6.5t-1 26.5l363 1288q48 161 92 199q50 41 192 41zM690 1380q-42 0 -55.5 -17t-32.5 -91l-168 -606h518l-159 606q-21 74 -37 90q-15 18 -66 18z" />
    <glyph glyph-name="section" unicode="&#xc6;" horiz-adv-x="1982" 
d="M690 1561l457 -11h704q31 0 31 -30v-121q0 -31 -31 -31h-671v-526h602q30 0 30 -31v-119q0 -30 -30 -30h-602v-480h671q31 0 31 -30v-121q0 -31 -31 -31h-850q-30 0 -30 31v454h-586l-129 -452q-4 -20 -9.5 -26.5t-17.5 -6.5h-159q-19 0 -24 6.5t-3 26.5l365 1288
q48 161 92 199q50 41 190 41zM971 666v714h-275q-46 0 -61 -18q-13 -15 -35 -96l-166 -600h537z" />
    <glyph glyph-name="bullet.001" unicode="&#xc7;" horiz-adv-x="1226" 
d="M1122 1378h-383q-261 0 -338 -121t-77 -483q0 -360 77 -481t338 -121h383q31 0 31 -31v-96q0 -31 -33 -37q-120 -18 -352 -18q27 -108 27 -174q0 -86 -44.5 -121t-144.5 -35q-80 0 -123 16q-24 9 -24 37v70q0 31 30 31h74q59 0 76.5 11t17.5 52q0 24 -16 115
q-310 18 -418 184q-106 166 -106 598q0 242 27.5 385t97.5 234q70 94 185 131t312 37q237 0 381 -21q33 -3 33 -35v-96q0 -31 -31 -31z" />
    <glyph glyph-name="paragraph" unicode="&#xc8;" horiz-adv-x="1288" 
d="M446 1964h181q18 0 24 -12l150 -248q10 -16 -6 -29l-39 -26q-14 -12 -29 0l-291 256q-10 10 -10 24v15q0 20 20 20zM199 1550h958q31 0 31 -30v-121q0 -31 -31 -31h-782v-526h712q31 0 31 -31v-119q0 -30 -31 -30h-712v-480h782q31 0 31 -30v-121q0 -31 -31 -31h-958
q-31 0 -31 31v1489q0 30 31 30z" />
    <glyph glyph-name="germandbls" unicode="&#xc9;" horiz-adv-x="1288" 
d="M696 1964h183q20 0 20 -20v-15q0 -14 -10 -24l-291 -256q-14 -12 -29 0l-41 26q-16 13 -6 29l150 248q6 12 24 12zM199 1550h958q31 0 31 -30v-121q0 -31 -31 -31h-782v-526h712q31 0 31 -31v-119q0 -30 -31 -30h-712v-480h782q31 0 31 -30v-121q0 -31 -31 -31h-958
q-31 0 -31 31v1489q0 30 31 30z" />
    <glyph glyph-name="registered" unicode="&#xca;" horiz-adv-x="1288" 
d="M623 1964h88q24 0 32 -14l183 -248q12 -14 -6 -29l-37 -24q-15 -12 -29 0l-188 149l-187 -149q-14 -11 -28 0l-37 24q-18 15 -6 29l180 248q8 14 35 14zM199 1550h958q31 0 31 -30v-121q0 -31 -31 -31h-782v-526h712q31 0 31 -31v-119q0 -30 -31 -30h-712v-480h782
q31 0 31 -30v-121q0 -31 -31 -31h-958q-31 0 -31 31v1489q0 30 31 30z" />
    <glyph glyph-name="copyright" unicode="&#xcb;" horiz-adv-x="1288" 
d="M477 1923q123 0 123 -121q0 -125 -123 -125q-127 0 -127 125q0 121 127 121zM983 1802q0 -125 -125 -125t-125 125q0 121 125 121t125 -121zM199 1550h958q31 0 31 -30v-121q0 -31 -31 -31h-782v-526h712q31 0 31 -31v-119q0 -30 -31 -30h-712v-480h782q31 0 31 -30v-121
q0 -31 -31 -31h-958q-31 0 -31 31v1489q0 30 31 30z" />
    <glyph glyph-name="trademark" unicode="&#xcc;" horiz-adv-x="544" 
d="M-4 1964h182q19 0 25 -12l149 -248q10 -16 -6 -29l-41 -26q-15 -12 -29 0l-290 256q-11 11 -11 24v15q0 20 21 20zM199 1550h147q31 0 31 -32v-1487q0 -31 -31 -31h-147q-31 0 -31 31v1487q0 32 31 32z" />
    <glyph glyph-name="acute" unicode="&#xcd;" horiz-adv-x="542" 
d="M360 1964h183q20 0 20 -20v-15q0 -14 -10 -24l-291 -256q-15 -12 -29 0l-40 26q-16 13 -7 29l150 248q6 12 24 12zM199 1550h145q31 0 31 -32v-1487q0 -31 -31 -31h-145q-31 0 -31 31v1487q0 32 31 32z" />
    <glyph glyph-name="dieresis" unicode="&#xce;" horiz-adv-x="542" 
d="M223 1964h88q27 0 35 -14l180 -248q14 -14 -6 -29l-37 -24q-14 -11 -28 0l-187 149l-186 -149q-15 -9 -31 0l-37 24q-18 15 -6 29l182 248q8 14 33 14zM199 1550h145q31 0 31 -32v-1487q0 -31 -31 -31h-145q-31 0 -31 31v1487q0 32 31 32z" />
    <glyph glyph-name="notequal" unicode="&#xcf;" horiz-adv-x="542" 
d="M78 1923q123 0 123 -121q0 -125 -123 -125q-127 0 -127 125q0 121 127 121zM584 1802q0 -125 -125 -125t-125 125q0 121 125 121t125 -121zM199 1550h145q31 0 31 -32v-1487q0 -31 -31 -31h-145q-31 0 -31 31v1487q0 32 31 32z" />
    <glyph glyph-name="AE" unicode="&#xd0;" horiz-adv-x="1533" 
d="M786 1561q346 0 490 -185q147 -182 147 -600q0 -420 -147 -604q-144 -182 -490 -182q-377 0 -563 14q-19 2 -24.5 7t-5.5 22v667h-150q-31 0 -31 31v84q0 31 31 31h150v670q0 18 5.5 23t24.5 7q199 15 563 15zM399 700v-528h387q231 0 330 141q98 140 98 463
q0 321 -104 461q-105 141 -354 141h-357v-532h324q31 0 31 -31v-84q0 -31 -31 -31h-324z" />
    <glyph glyph-name="Oslash" unicode="&#xd1;" horiz-adv-x="1579" 
d="M645 1925q48 0 148 -41t131 -41q37 0 56 14.5t38 55.5q12 31 37 22l49 -12q29 -10 20 -47q-35 -117 -73.5 -157t-116.5 -40q-48 0 -148 41q-96 41 -129 41q-38 0 -56.5 -14t-37.5 -55q-16 -29 -39 -21l-47 12q-32 9 -22 46q37 118 73 157q39 39 117 39zM1235 1550h145
q31 0 31 -32v-1487q0 -31 -31 -31h-125q-47 0 -71 37l-809 1218v-1224q0 -31 -31 -31h-145q-31 0 -31 31v1487q0 32 31 32h139q53 -1 72.5 -11.5t44.5 -47.5l749 -1129v1156q0 32 31 32z" />
    <glyph glyph-name="infinity" unicode="&#xd2;" horiz-adv-x="1482" 
d="M430 1964h182q19 0 25 -12l149 -248q10 -16 -6 -29l-41 -26q-14 -11 -28 0l-291 256q-10 10 -10 24v15q0 20 20 20zM1366 772q0 -242 -27.5 -383.5t-99.5 -232.5q-70 -92 -185.5 -129t-312.5 -37q-196 0 -311.5 37t-187.5 129q-70 91 -97.5 232.5t-27.5 383.5
q0 460 127 625q126 164 497 164q372 0 498 -164q127 -165 127 -625zM326 772q0 -360 77 -481q76 -119 338 -119t338 119q78 122 78 481q0 196 -15.5 300.5t-60.5 176.5q-43 73 -121.5 101t-218.5 28t-218 -28t-124 -101q-43 -72 -58 -177.5t-15 -299.5z" />
    <glyph glyph-name="plusminus" unicode="&#xd3;" horiz-adv-x="1482" 
d="M817 1964h182q21 0 21 -20v-15q0 -14 -10 -24l-291 -256q-15 -12 -29 0l-41 26q-16 13 -6 29l150 248q6 12 24 12zM1366 772q0 -242 -27.5 -383.5t-99.5 -232.5q-70 -92 -185.5 -129t-312.5 -37q-196 0 -311.5 37t-187.5 129q-70 91 -97.5 232.5t-27.5 383.5
q0 460 127 625q126 164 497 164q372 0 498 -164q127 -165 127 -625zM326 772q0 -360 77 -481q76 -119 338 -119t338 119q78 122 78 481q0 196 -15.5 300.5t-60.5 176.5q-43 73 -121.5 101t-218.5 28t-218 -28t-124 -101q-43 -72 -58 -177.5t-15 -299.5z" />
    <glyph glyph-name="lessequal.001" unicode="&#xd4;" horiz-adv-x="1482" 
d="M698 1964h88q25 0 33 -14l182 -248q12 -14 -6 -29l-37 -24q-15 -12 -30 0l-187 149l-186 -149q-15 -9 -31 0l-35 24q-20 15 -6 29l181 248q8 14 34 14zM1366 772q0 -242 -27.5 -383.5t-99.5 -232.5q-70 -92 -185.5 -129t-312.5 -37q-196 0 -311.5 37t-187.5 129
q-70 91 -97.5 232.5t-27.5 383.5q0 460 127 625q126 164 497 164q372 0 498 -164q127 -165 127 -625zM326 772q0 -360 77 -481q76 -119 338 -119t338 119q78 122 78 481q0 196 -15.5 300.5t-60.5 176.5q-43 73 -121.5 101t-218.5 28t-218 -28t-124 -101q-43 -72 -58 -177.5
t-15 -299.5z" />
    <glyph glyph-name="greaterequal.001" unicode="&#xd5;" horiz-adv-x="1482" 
d="M598 1925q49 0 145 -41q100 -41 131 -41q37 0 56.5 14.5t38.5 55.5q15 31 39 22l47 -12q31 -9 22 -47q-37 -117 -76 -157t-114 -40q-48 0 -148 41t-131 41q-38 0 -56.5 -14t-37.5 -55q-16 -29 -39 -21l-47 12q-31 12 -22 46q37 119 75 157q39 39 117 39zM1366 772
q0 -242 -27.5 -383.5t-99.5 -232.5q-70 -92 -185.5 -129t-312.5 -37q-196 0 -311.5 37t-187.5 129q-70 91 -97.5 232.5t-27.5 383.5q0 460 127 625q126 164 497 164q372 0 498 -164q127 -165 127 -625zM326 772q0 -360 77 -481q76 -119 338 -119t338 119q78 122 78 481
q0 196 -15.5 300.5t-60.5 176.5q-43 73 -121.5 101t-218.5 28t-218 -28t-124 -101q-43 -72 -58 -177.5t-15 -299.5z" />
    <glyph glyph-name="yen" unicode="&#xd6;" horiz-adv-x="1482" 
d="M553 1923q123 0 123 -121q0 -125 -123 -125q-129 0 -129 125q0 121 129 121zM934 1923q125 0 125 -121q0 -125 -125 -125q-127 0 -127 125q0 121 127 121zM1366 772q0 -242 -27.5 -383.5t-99.5 -232.5q-70 -92 -185.5 -129t-312.5 -37q-196 0 -311.5 37t-187.5 129
q-70 91 -97.5 232.5t-27.5 383.5q0 460 127 625q126 164 497 164q372 0 498 -164q127 -165 127 -625zM326 772q0 -360 77 -481q76 -119 338 -119t338 119q78 122 78 481q0 196 -15.5 300.5t-60.5 176.5q-43 73 -121.5 101t-218.5 28t-218 -28t-124 -101q-43 -72 -58 -177.5
t-15 -299.5z" />
    <glyph glyph-name="mu" unicode="&#xd7;" horiz-adv-x="1056" 
d="M846 1038l88 -84q22 -22 0 -45l-277 -274l277 -275q22 -22 0 -45l-88 -88q-22 -23 -45 0l-275 275l-274 -275q-22 -23 -45 0l-84 84q-23 23 -2 45l276 275l-272 274q-23 23 -2 45l88 86q23 22 45 0l272 -272l275 274q21 22 43 0z" />
    <glyph glyph-name="partialdiff.001" unicode="&#xd8;" horiz-adv-x="1482" 
d="M741 1561q274 0 408 -84l53 73q23 29 43 9l70 -48q24 -15 6 -43l-66 -94q111 -164 111 -602q0 -242 -27.5 -383.5t-99.5 -232.5q-70 -92 -185.5 -129t-312.5 -37q-269 0 -401 78l-61 -84q-19 -29 -41 -7l-70 48q-23 14 -8 41l71 100q-114 170 -114 606q0 460 127 625
q126 164 497 164zM741 1378q-140 0 -218 -28t-124 -101q-43 -72 -58 -177.5t-15 -299.5q0 -291 45 -410l661 945q-89 71 -291 71zM1116 1176l-659 -938q91 -66 284 -66q262 0 338 119q78 122 78 481q0 289 -41 404z" />
    <glyph glyph-name="summation" unicode="&#xd9;" horiz-adv-x="1529" 
d="M492 1964h182q18 0 24 -12l150 -248q10 -16 -6 -29l-41 -26q-15 -12 -29 0l-291 256q-10 10 -10 24v15q0 20 21 20zM1198 1550h145q31 0 31 -30v-748q0 -250 -26.5 -393t-96.5 -232t-180.5 -123t-306.5 -34q-152 0 -251 22t-173 72q-73 49 -113 143q-71 181 -71 545v748
q0 30 30 30h146q30 0 30 -30v-748q0 -245 35 -373q35 -124 118.5 -175.5t248.5 -51.5q242 0 321 119q82 119 82 481v748q0 30 31 30z" />
    <glyph glyph-name="product" unicode="&#xda;" horiz-adv-x="1529" 
d="M842 1964h182q20 0 20 -20v-15q0 -14 -10 -24l-291 -256q-14 -11 -28 0l-41 26q-16 13 -6 29l149 248q6 12 25 12zM1198 1550h145q31 0 31 -30v-748q0 -250 -26.5 -393t-96.5 -232t-180.5 -123t-306.5 -34q-152 0 -251 22t-173 72q-73 49 -113 143q-71 181 -71 545v748
q0 30 30 30h146q30 0 30 -30v-748q0 -245 35 -373q35 -124 118.5 -175.5t248.5 -51.5q242 0 321 119q82 119 82 481v748q0 30 31 30z" />
    <glyph glyph-name="pi.001" unicode="&#xdb;" horiz-adv-x="1529" 
d="M721 1964h88q25 0 33 -14l182 -248q12 -14 -6 -29l-37 -24q-15 -9 -31 0l-186 149l-186 -149q-14 -12 -29 0l-37 24q-19 13 -6 29l180 248q8 14 35 14zM1198 1550h145q31 0 31 -30v-748q0 -250 -26.5 -393t-96.5 -232t-180.5 -123t-306.5 -34q-152 0 -251 22t-173 72
q-73 49 -113 143q-71 181 -71 545v748q0 30 30 30h146q30 0 30 -30v-748q0 -245 35 -373q35 -124 118.5 -175.5t248.5 -51.5q242 0 321 119q82 119 82 481v748q0 30 31 30z" />
    <glyph glyph-name="integral" unicode="&#xdc;" horiz-adv-x="1529" 
d="M575 1923q123 0 123 -121q0 -125 -123 -125q-129 0 -129 125q0 121 129 121zM1081 1802q0 -125 -125 -125t-125 125q0 121 125 121t125 -121zM1198 1550h145q31 0 31 -30v-748q0 -250 -26.5 -393t-96.5 -232t-180.5 -123t-306.5 -34q-152 0 -251 22t-173 72
q-73 49 -113 143q-71 181 -71 545v748q0 30 30 30h146q30 0 30 -30v-748q0 -245 35 -373q35 -124 118.5 -175.5t248.5 -51.5q242 0 321 119q82 119 82 481v748q0 30 31 30z" />
    <glyph glyph-name="ordfeminine" unicode="&#xdd;" horiz-adv-x="1351" 
d="M762 1964h182q21 0 21 -20v-15q0 -13 -11 -24l-290 -256q-14 -12 -29 0l-41 26q-16 13 -6 29l149 248q6 12 25 12zM1155 1550h158q45 0 22 -45l-555 -1034v-440q0 -31 -30 -31h-148q-31 0 -31 31v440l-555 1034q-23 45 23 45h160q36 0 55 -32l422 -822l424 822
q14 32 55 32z" />
    <glyph glyph-name="ordmasculine" unicode="&#xde;" horiz-adv-x="1308" 
d="M199 1550h145q31 0 31 -30v-250q135 6 243 6q191 0 297.5 -19t178.5 -73q76 -54 106.5 -149.5t30.5 -260.5q0 -164 -30.5 -258.5t-106.5 -148.5q-73 -54 -179.5 -73.5t-296.5 -19.5q-96 0 -243 5v-248q0 -31 -31 -31h-145q-31 0 -31 31v1489q0 30 31 30zM600 1094h-225
v-639h225q263 0 340 57q82 58 82 262t-82 262q-79 58 -340 58z" />
    <glyph glyph-name="Omega.001" unicode="&#xdf;" horiz-adv-x="1218" 
d="M590 1561q260 0 375 -95q114 -92 114 -336q0 -306 -174 -346v-6q215 -38 215 -368q0 -246 -123 -334q-121 -86 -383 -86q-65 0 -153 8q-37 3 -27 35l33 112q6 27 33 27h123q165 0 232 52t67 194q0 155 -71 213.5t-228 58.5h-140q-30 0 -30 31v104q0 31 32 31h138
q66 0 111 11t79.5 39t51 78t16.5 126q0 161 -66 215q-65 53 -225 53q-141 0 -197 -59q-53 -59 -53 -236v-1052q0 -31 -31 -31h-137q-31 0 -31 31v1036q0 286 95 389q94 105 354 105z" />
    <glyph glyph-name="ae" unicode="&#xe0;" horiz-adv-x="1093" 
d="M303 1554h180q19 0 25 -12l149 -248q9 -16 -6 -28l-41 -27q-14 -11 -28 0l-289 256q-10 10 -10 25v14q0 20 20 20zM498 1130q240 0 351.5 -77t111.5 -244v-717q0 -43 -39 -57q-116 -45 -455 -45q-216 0 -305 65q-90 69 -90 264q0 173 86.5 244.5t275.5 71.5l330 2v137
q0 97 -62 140.5t-204 43.5h-308q-19 0 -24.5 6t-5.5 25v84q0 17 5 22.5t23 10.5q144 24 310 24zM764 182v295h-326q-90 0 -131 -35t-41 -118q0 -97 51.5 -131.5t184.5 -34.5q168 0 262 24z" />
    <glyph glyph-name="oslash" unicode="&#xe1;" horiz-adv-x="1093" 
d="M557 1554h182q21 0 21 -20v-14q0 -15 -10 -25l-291 -256q-15 -12 -29 0l-41 27q-15 12 -6 28l149 248q6 12 25 12zM498 1130q240 0 351.5 -77t111.5 -244v-717q0 -43 -39 -57q-116 -45 -455 -45q-216 0 -305 65q-90 69 -90 264q0 173 86.5 244.5t275.5 71.5l330 2v137
q0 97 -62 140.5t-204 43.5h-308q-19 0 -24.5 6t-5.5 25v84q0 17 5 22.5t23 10.5q144 24 310 24zM764 182v295h-326q-90 0 -131 -35t-41 -118q0 -97 51.5 -131.5t184.5 -34.5q168 0 262 24z" />
    <glyph glyph-name="questiondown" unicode="&#xe2;" horiz-adv-x="1093" 
d="M487 1554h88q27 0 35 -14l181 -248q13 -13 -7 -28l-36 -25q-15 -12 -29 0l-187 150l-186 -150q-16 -9 -31 0l-36 25q-18 15 -7 28l183 248q8 14 32 14zM498 1130q240 0 351.5 -77t111.5 -244v-717q0 -43 -39 -57q-116 -45 -455 -45q-216 0 -305 65q-90 69 -90 264
q0 173 86.5 244.5t275.5 71.5l330 2v137q0 97 -62 140.5t-204 43.5h-308q-19 0 -24.5 6t-5.5 25v84q0 17 5 22.5t23 10.5q144 24 310 24zM764 182v295h-326q-90 0 -131 -35t-41 -118q0 -97 51.5 -131.5t184.5 -34.5q168 0 262 24z" />
    <glyph glyph-name="exclamdown" unicode="&#xe3;" horiz-adv-x="1093" 
d="M387 1516q48 0 148 -41t131 -41q37 0 56 14t38 55q13 32 39 23l47 -13q28 -9 22 -47q-37 -117 -75.5 -156.5t-116.5 -39.5q-48 0 -148 41q-96 41 -129 41q-38 0 -56.5 -14t-37.5 -56q-16 -29 -39 -20l-47 12q-31 9 -22 45q37 119 73 158q39 39 117 39zM498 1130
q240 0 351.5 -77t111.5 -244v-717q0 -43 -39 -57q-116 -45 -455 -45q-216 0 -305 65q-90 69 -90 264q0 173 86.5 244.5t275.5 71.5l330 2v137q0 97 -62 140.5t-204 43.5h-308q-19 0 -24.5 6t-5.5 25v84q0 17 5 22.5t23 10.5q144 24 310 24zM764 182v295h-326q-90 0 -131 -35
t-41 -118q0 -97 51.5 -131.5t184.5 -34.5q168 0 262 24z" />
    <glyph glyph-name="logicalnot" unicode="&#xe4;" horiz-adv-x="1093" 
d="M342 1513q125 0 125 -120q0 -125 -125 -125q-127 0 -127 125q0 120 127 120zM723 1513q127 0 127 -120q0 -125 -127 -125q-125 0 -125 125q0 120 125 120zM498 1130q240 0 351.5 -77t111.5 -244v-717q0 -43 -39 -57q-116 -45 -455 -45q-216 0 -305 65q-90 69 -90 264
q0 173 86.5 244.5t275.5 71.5l330 2v137q0 97 -62 140.5t-204 43.5h-308q-19 0 -24.5 6t-5.5 25v84q0 17 5 22.5t23 10.5q144 24 310 24zM764 182v295h-326q-90 0 -131 -35t-41 -118q0 -97 51.5 -131.5t184.5 -34.5q168 0 262 24z" />
    <glyph glyph-name="radical.001" unicode="&#xe5;" horiz-adv-x="1093" 
d="M315 1448q0 209 217 209q218 0 218 -209t-218 -209q-217 0 -217 209zM659 1448q0 127 -127 127q-126 0 -126 -127t126 -127q127 0 127 127zM498 1130q240 0 351.5 -77t111.5 -244v-717q0 -43 -39 -57q-116 -45 -455 -45q-216 0 -305 65q-90 69 -90 264q0 173 86.5 244.5
t275.5 71.5l330 2v137q0 97 -62 140.5t-204 43.5h-308q-19 0 -24.5 6t-5.5 25v84q0 17 5 22.5t23 10.5q144 24 310 24zM764 182v295h-326q-90 0 -131 -35t-41 -118q0 -97 51.5 -131.5t184.5 -34.5q168 0 262 24z" />
    <glyph glyph-name="florin.001" unicode="&#xe6;" horiz-adv-x="1771" 
d="M1231 1130q273 0 362 -108q92 -112 95 -432v-60q0 -33 -14 -45t-60 -12h-651q6 -190 57 -250q52 -61 217 -61h336q31 0 31 -31v-90q0 -30 -29 -33q-135 -18 -344 -18q-90 0 -197 22q-97 23 -149 62q-159 -84 -416 -84q-215 0 -307 65q-90 69 -90 264q0 173 86.5 244.5
t277.5 71.5l330 2v137q0 97 -63 140.5t-205 43.5h-305q-19 0 -25 6t-6 25v84q0 17 5 22.5t23 10.5q144 24 308 24q268 0 374 -100q97 100 359 100zM1231 958q-164 0 -215 -63q-50 -65 -53 -262h528q-3 199 -53 260q-50 65 -207 65zM766 477h-326q-92 0 -132 -34.5
t-40 -118.5q0 -97 50.5 -131.5t183.5 -34.5q199 0 307 51q-43 90 -43 268z" />
    <glyph glyph-name="approxequal" unicode="&#xe7;" horiz-adv-x="995" 
d="M893 958h-309q-181 0 -230 -75q-49 -76 -49 -324q0 -245 49 -321t230 -76h309q31 0 31 -31v-88q0 -32 -29 -35q-94 -15 -254 -18q29 -110 29 -174q0 -86 -44.5 -121t-144.5 -35q-80 0 -123 16q-24 9 -24 37v70q0 31 31 31h71q59 0 77.5 11t18.5 52q0 24 -16 115
q-251 9 -330 123q-77 118 -77 444q0 189 18 289.5t70 165.5q54 67 140.5 91.5t246.5 24.5q176 0 311 -18q29 -3 29 -35v-88q0 -31 -31 -31z" />
    <glyph glyph-name="increment" unicode="&#xe8;" horiz-adv-x="1114" 
d="M305 1554h182q19 0 25 -12l150 -248q9 -15 -7 -28l-41 -27q-14 -11 -28 0l-291 256q-10 10 -10 25v14q0 20 20 20zM573 1130q274 0 363 -108q91 -111 94 -432v-60q0 -33 -15 -45t-59 -12h-651q3 -189 55 -250t218 -61h335q31 0 31 -31v-90q0 -30 -29 -33
q-135 -18 -342 -18q-288 0 -376 110q-91 117 -91 459t91 459q87 112 376 112zM573 958q-162 0 -215 -65q-52 -64 -55 -260h531q-3 195 -54 262q-48 63 -207 63z" />
    <glyph glyph-name="guillemotleft" unicode="&#xe9;" horiz-adv-x="1114" 
d="M627 1554h182q20 0 20 -20v-14q0 -15 -10 -25l-291 -256q-14 -11 -28 0l-41 27q-15 12 -6 28l149 248q6 12 25 12zM573 1130q274 0 363 -108q91 -111 94 -432v-60q0 -33 -15 -45t-59 -12h-651q3 -189 55 -250t218 -61h335q31 0 31 -31v-90q0 -30 -29 -33
q-135 -18 -342 -18q-288 0 -376 110q-91 117 -91 459t91 459q87 112 376 112zM573 958q-162 0 -215 -65q-52 -64 -55 -260h531q-3 195 -54 262q-48 63 -207 63z" />
    <glyph glyph-name="guillemotright" unicode="&#xea;" horiz-adv-x="1114" 
d="M526 1554h88q25 0 33 -14l182 -248q11 -14 -6 -28l-37 -25q-15 -9 -30 0l-187 150l-186 -150q-14 -12 -29 0l-37 25q-20 14 -6 28l181 248q8 14 34 14zM573 1130q274 0 363 -108q91 -111 94 -432v-60q0 -33 -15 -45t-59 -12h-651q3 -189 55 -250t218 -61h335q31 0 31 -31
v-90q0 -30 -29 -33q-135 -18 -342 -18q-288 0 -376 110q-91 117 -91 459t91 459q87 112 376 112zM573 958q-162 0 -215 -65q-52 -64 -55 -260h531q-3 195 -54 262q-48 63 -207 63z" />
    <glyph glyph-name="ellipsis" unicode="&#xeb;" horiz-adv-x="1114" 
d="M381 1513q123 0 123 -120q0 -125 -123 -125q-129 0 -129 125q0 120 129 120zM762 1513q125 0 125 -120q0 -125 -125 -125q-127 0 -127 125q0 120 127 120zM573 1130q274 0 363 -108q91 -111 94 -432v-60q0 -33 -15 -45t-59 -12h-651q3 -189 55 -250t218 -61h335
q31 0 31 -31v-90q0 -30 -29 -33q-135 -18 -342 -18q-288 0 -376 110q-91 117 -91 459t91 459q87 112 376 112zM573 958q-162 0 -215 -65q-52 -64 -55 -260h531q-3 195 -54 262q-48 63 -207 63z" />
    <glyph glyph-name="nbspace" unicode="&#xec;" horiz-adv-x="477" 
d="M-41 1554h180q19 0 25 -12l149 -248q9 -16 -6 -28l-39 -27q-16 -9 -28 0l-291 256q-10 10 -10 25v14q0 20 20 20zM172 1120h133q31 0 31 -30v-1059q0 -31 -31 -31h-133q-31 0 -31 31v1059q0 30 31 30z" />
    <glyph glyph-name="Agrave" unicode="&#xed;" horiz-adv-x="479" 
d="M336 1554h180q21 0 21 -20v-14q0 -14 -11 -25l-290 -256q-13 -10 -29 0l-39 27q-15 12 -6 28l149 248q6 12 25 12zM172 1120h135q31 0 31 -30v-1059q0 -31 -31 -31h-135q-31 0 -31 31v1059q0 30 31 30z" />
    <glyph glyph-name="Atilde" unicode="&#xee;" horiz-adv-x="479" 
d="M197 1554h86q26 0 34 -14l181 -248q14 -14 -6 -28l-35 -25q-15 -9 -31 0l-186 150l-187 -150q-15 -12 -30 0l-37 25q-17 14 -6 28l182 248q8 14 35 14zM307 0h-135q-31 0 -31 31v1059q0 30 31 30h135q31 0 31 -30v-1059q0 -31 -31 -31z" />
    <glyph glyph-name="Otilde" unicode="&#xef;" horiz-adv-x="479" 
d="M49 1513q123 0 123 -120q0 -125 -123 -125q-127 0 -127 125q0 120 127 120zM555 1393q0 -125 -125 -125t-125 125q0 120 125 120t125 -120zM172 1120h135q31 0 31 -30v-1059q0 -31 -31 -31h-135q-31 0 -31 31v1059q0 30 31 30z" />
    <glyph glyph-name="OE" unicode="&#xf0;" horiz-adv-x="1159" 
d="M424 1548h145q26 0 37 -20l60 -103l178 66q30 12 39 -18l20 -54q10 -30 -18 -39l-158 -57l274 -463q56 -89 56 -354q0 -165 -20 -257.5t-74 -152.5q-53 -60 -139.5 -83t-243.5 -23q-154 0 -241.5 23t-141.5 83q-53 60 -73 153t-20 257t20 255.5t73 151.5t138 83.5
t236 23.5q71 0 129 -6l-147 246l-178 -64q-30 -12 -39 18l-21 54q-10 29 19 39l158 57l-89 147q-10 17 -4 27t25 10zM580 850q-175 0 -228 -68q-48 -65 -51 -276q3 -212 51 -277q52 -67 228 -67q178 0 227 67q50 64 53 277q-3 215 -53 276q-50 68 -227 68z" />
    <glyph glyph-name="oe.001" unicode="&#xf1;" horiz-adv-x="1204" 
d="M461 1516q49 0 145 -41q100 -41 131 -41q37 0 56 14t38 55q16 32 39 23l48 -13q31 -9 22 -47q-37 -116 -76 -156t-114 -40q-48 0 -148 41t-131 41q-37 0 -56 -14.5t-38 -55.5q-13 -29 -37 -20l-49 12q-29 13 -21 45q35 118 74 157.5t117 39.5zM596 1130q157 0 231 -14
q83 -13 142 -63q59 -48 80.5 -138.5t21.5 -263.5v-620q0 -31 -35 -31h-131q-31 0 -31 31v604q0 164 -32 248q-15 36 -51 51q-35 16 -67.5 20t-107.5 4h-280v-927q0 -31 -31 -31h-135q-31 0 -31 31v1034q0 13 4 20t9.5 9t17.5 4q157 32 426 32z" />
    <glyph glyph-name="endash.001" unicode="&#xf2;" horiz-adv-x="1165" 
d="M291 1554h180q19 0 25 -12l149 -248q9 -16 -6 -28l-41 -27q-14 -12 -29 0l-288 256q-11 11 -11 25v14q0 20 21 20zM342 1106q88 24 242 24q152 0 241 -24q179 -46 215 -264q19 -108 19 -283q0 -174 -19 -285q-17 -103 -72 -170t-143 -92q-93 -22 -241 -22q-151 0 -244 22
q-176 50 -215 262q-19 111 -19 285q0 175 19 283q39 218 217 264zM584 958q-183 0 -232 -75q-49 -76 -49 -324q0 -245 49 -321t232 -76q180 0 229 76t49 321q0 248 -49 324q-49 75 -229 75z" />
    <glyph glyph-name="emdash.001" unicode="&#xf3;" horiz-adv-x="1165" 
d="M674 1554h182q21 0 21 -20v-14q0 -7 -11 -25l-291 -256q-14 -11 -28 0l-41 27q-15 12 -6 28l149 248q6 12 25 12zM342 1106q88 24 242 24q152 0 241 -24q179 -46 215 -264q19 -108 19 -283q0 -174 -19 -285q-17 -103 -72 -170t-143 -92q-93 -22 -241 -22q-151 0 -244 22
q-176 50 -215 262q-19 111 -19 285q0 175 19 283q39 218 217 264zM584 958q-183 0 -232 -75q-49 -76 -49 -324q0 -245 49 -321t232 -76q180 0 229 76t49 321q0 248 -49 324q-49 75 -229 75z" />
    <glyph glyph-name="quotedblleft" unicode="&#xf4;" horiz-adv-x="1165" 
d="M539 1554h88q27 0 35 -14l180 -248q11 -14 -6 -28l-37 -25q-15 -12 -29 0l-186 150l-189 -150q-14 -11 -28 0l-37 25q-17 14 -6 28l182 248q8 14 33 14zM342 1106q88 24 242 24q152 0 241 -24q179 -46 215 -264q19 -108 19 -283q0 -174 -19 -285q-17 -103 -72 -170
t-143 -92q-93 -22 -241 -22q-151 0 -244 22q-176 50 -215 262q-19 111 -19 285q0 175 19 283q39 218 217 264zM584 958q-183 0 -232 -75q-49 -76 -49 -324q0 -245 49 -321t232 -76q180 0 229 76t49 321q0 248 -49 324q-49 75 -229 75z" />
    <glyph glyph-name="quotedblright.001" unicode="&#xf5;" horiz-adv-x="1165" 
d="M438 1516q48 0 148 -41t131 -41q37 0 56 14t36 55q16 32 39 23l47 -13q32 -10 23 -47q-37 -117 -75 -156.5t-116 -39.5q-47 0 -147 41t-131 41q-37 0 -55.5 -14.5t-37.5 -55.5q-16 -29 -39 -20l-47 12q-31 9 -22 45q37 118 74 158q39 39 116 39zM342 1106q88 24 242 24
q152 0 241 -24q179 -46 215 -264q19 -108 19 -283q0 -174 -19 -285q-17 -103 -72 -170t-143 -92q-93 -22 -241 -22q-151 0 -244 22q-176 50 -215 262q-19 111 -19 285q0 175 19 283q39 218 217 264zM584 958q-183 0 -232 -75q-49 -76 -49 -324q0 -245 49 -321t232 -76
q180 0 229 76t49 321q0 248 -49 324q-49 75 -229 75z" />
    <glyph glyph-name="quoteleft" unicode="&#xf6;" horiz-adv-x="1165" 
d="M393 1513q123 0 123 -120q0 -125 -123 -125q-127 0 -127 125q0 120 127 120zM899 1393q0 -125 -125 -125t-125 125q0 120 125 120t125 -120zM342 1106q88 24 242 24q152 0 241 -24q179 -46 215 -264q19 -108 19 -283q0 -174 -19 -285q-17 -103 -72 -170t-143 -92
q-93 -22 -241 -22q-151 0 -244 22q-176 50 -215 262q-19 111 -19 285q0 175 19 283q39 218 217 264zM584 958q-183 0 -232 -75q-49 -76 -49 -324q0 -245 49 -321t232 -76q180 0 229 76t49 321q0 248 -49 324q-49 75 -229 75z" />
    <glyph glyph-name="quoteright.001" unicode="&#xf7;" horiz-adv-x="1167" 
d="M586 1077q121 0 121 -116q0 -121 -121 -121q-123 0 -123 121q0 116 123 116zM129 721h909q31 0 31 -31v-123q0 -30 -31 -30h-909q-31 0 -31 30v123q0 31 31 31zM586 416q121 0 121 -117q0 -121 -121 -121q-123 0 -123 121q0 117 123 117z" />
    <glyph glyph-name="divide" unicode="&#xf8;" horiz-adv-x="1165" 
d="M584 1130q179 0 272 -34l33 45q22 29 43 8l69 -47q25 -16 7 -43l-35 -49q86 -109 86 -451q0 -189 -18.5 -289.5t-71.5 -165.5q-54 -66 -140 -90t-245 -24q-204 0 -295 45l-39 -55q-19 -29 -41 -7l-70 47q-27 15 -8 41l47 68q-72 116 -72 430q0 186 19.5 287.5t71.5 167.5
q54 67 140.5 91.5t246.5 24.5zM584 958q-183 0 -232 -75q-49 -76 -49 -324q0 -168 14 -231l428 608q-61 22 -161 22zM840 821l-441 -626q56 -33 185 -33q180 0 229 76t49 321q0 188 -22 262z" />
    <glyph glyph-name="lozenge" unicode="&#xf9;" horiz-adv-x="1206" 
d="M328 1554h182q19 0 25 -12l149 -248q9 -16 -6 -28l-41 -27q-15 -12 -29 0l-291 256q-10 10 -10 25v14q0 20 21 20zM899 1120h135q31 0 31 -30v-1037q0 -9 -1.5 -14.5t-7 -8.5t-9 -4t-13.5 -3q-165 -33 -426 -33q-152 0 -231 12q-82 15 -141 66q-60 49 -81.5 140
t-21.5 263v619q0 30 35 30h131q31 0 31 -30v-605q0 -125 11 -186t44 -92q35 -29 73.5 -37t129.5 -8h280v928q0 30 31 30z" />
    <glyph glyph-name="ydieresis" unicode="&#xfa;" horiz-adv-x="1206" 
d="M670 1554h182q20 0 20 -20v-14q0 -15 -10 -25l-291 -256q-14 -11 -28 0l-41 27q-15 12 -6 28l149 248q6 12 25 12zM899 1120h135q31 0 31 -30v-1037q0 -9 -1.5 -14.5t-7 -8.5t-9 -4t-13.5 -3q-165 -33 -426 -33q-152 0 -231 12q-82 15 -141 66q-60 49 -81.5 140
t-21.5 263v619q0 30 35 30h131q31 0 31 -30v-605q0 -125 11 -186t44 -92q35 -29 73.5 -37t129.5 -8h280v928q0 30 31 30z" />
    <glyph glyph-name="Ydieresis.001" unicode="&#xfb;" horiz-adv-x="1206" 
d="M555 1554h88q27 0 35 -14l180 -248q14 -14 -6 -28l-35 -25q-15 -9 -31 0l-186 150l-186 -150q-15 -12 -31 0l-37 25q-17 14 -6 28l182 248q8 14 33 14zM899 1120h135q31 0 31 -30v-1037q0 -9 -1.5 -14.5t-7 -8.5t-9 -4t-13.5 -3q-165 -33 -426 -33q-152 0 -231 12
q-82 15 -141 66q-60 49 -81.5 140t-21.5 263v619q0 30 35 30h131q31 0 31 -30v-605q0 -125 11 -186t44 -92q35 -29 73.5 -37t129.5 -8h280v928q0 30 31 30z" />
    <glyph glyph-name="fraction" unicode="&#xfc;" horiz-adv-x="1206" 
d="M408 1513q122 0 122 -120q0 -125 -122 -125q-127 0 -127 125q0 120 127 120zM913 1393q0 -125 -125 -125q-124 0 -124 125q0 120 124 120q125 0 125 -120zM899 1120h135q31 0 31 -30v-1037q0 -9 -1.5 -14.5t-7 -8.5t-9 -4t-13.5 -3q-165 -33 -426 -33q-152 0 -231 12
q-82 15 -141 66q-60 49 -81.5 140t-21.5 263v619q0 30 35 30h131q31 0 31 -30v-605q0 -125 11 -186t44 -92q35 -29 73.5 -37t129.5 -8h280v928q0 30 31 30z" />
    <glyph glyph-name="currency" unicode="&#xfd;" horiz-adv-x="1208" 
d="M688 1554h182q21 0 21 -20v-14q0 -15 -10 -25l-291 -256q-15 -12 -29 0l-41 27q-15 12 -6 28l150 248q6 12 24 12zM901 1120h135q31 0 31 -30v-988q0 -165 -19 -255.5t-71 -151.5q-53 -62 -141.5 -86.5t-241.5 -24.5q-163 0 -309 19q-29 3 -29 32v89q0 30 31 30h303
q170 0 225 49t55 191v12q-109 -16 -270 -16q-288 0 -379 110q-90 116 -90 449v541q0 30 31 30h133q31 0 31 -30v-529q0 -247 49 -323q52 -76 237 -76q152 0 258 14v914q0 30 31 30z" />
    <glyph glyph-name="guilsinglleft.001" unicode="&#xfe;" horiz-adv-x="1183" 
d="M172 1548h133q31 0 31 -30v-402q104 14 272 14q154 0 240.5 -25.5t138.5 -92.5q52 -65 71 -167t19 -288q0 -342 -92 -457q-91 -110 -387 -110q-151 0 -262 12v-377q0 -31 -31 -31h-133q-31 0 -31 31v1893q0 30 31 30zM598 958h-262v-780q141 -16 264 -16q182 0 231 76
q50 77 50 321q0 250 -50 324q-49 75 -233 75z" />
    <glyph glyph-name="guilsinglright.001" unicode="&#xff;" horiz-adv-x="1208" 
d="M426 1513q125 0 125 -120q0 -125 -125 -125q-127 0 -127 125q0 120 127 120zM809 1513q125 0 125 -120q0 -125 -125 -125q-127 0 -127 125q0 120 127 120zM901 1120h135q31 0 31 -30v-988q0 -165 -19 -255.5t-71 -151.5q-53 -62 -141.5 -86.5t-241.5 -24.5
q-163 0 -309 19q-29 3 -29 32v89q0 30 31 30h303q170 0 225 49t55 191v12q-109 -16 -270 -16q-288 0 -379 110q-90 116 -90 449v541q0 30 31 30h133q31 0 31 -30v-529q0 -247 49 -323q52 -76 237 -76q152 0 258 14v914q0 30 31 30z" />
    <glyph glyph-name="fi" unicode="&#x100;" horiz-adv-x="1388" 
d="M426 1855h526q31 0 31 -30v-84q0 -31 -31 -31h-526q-31 0 -31 31v84q0 30 31 30zM690 1561q158 0 205 -41q48 -40 92 -199l350 -1288q4 -20 -0.5 -26.5t-23.5 -6.5h-160q-12 0 -17.5 6.5t-9.5 26.5l-127 452h-616l-129 -452q-4 -20 -9.5 -26.5t-17.5 -6.5h-159
q-19 0 -24 6.5t-1 26.5l363 1288q48 161 92 199q50 41 192 41zM690 1380q-42 0 -55.5 -17t-32.5 -91l-168 -606h518l-159 606q-21 74 -37 90q-15 18 -66 18z" />
    <glyph glyph-name="fl.001" unicode="&#x101;" horiz-adv-x="1093" 
d="M268 1446h527q30 0 30 -31v-84q0 -31 -30 -31h-527q-30 0 -30 31v84q0 31 30 31zM498 1130q240 0 351.5 -77t111.5 -244v-717q0 -43 -39 -57q-116 -45 -455 -45q-216 0 -305 65q-90 69 -90 264q0 173 86.5 244.5t275.5 71.5l330 2v137q0 97 -62 140.5t-204 43.5h-308
q-19 0 -24.5 6t-5.5 25v84q0 17 5 22.5t23 10.5q144 24 310 24zM764 182v295h-326q-90 0 -131 -35t-41 -118q0 -97 51.5 -131.5t184.5 -34.5q168 0 262 24z" />
    <glyph glyph-name="daggerdbl.001" unicode="&#x102;" horiz-adv-x="1388" 
d="M903 1946h68q34 0 28 -33q-21 -140 -88 -195q-63 -51 -221 -51t-221 51q-67 55 -88 195q-6 33 29 33h67q26 0 35 -25q26 -66 64.5 -90.5t113.5 -24.5t113.5 24.5t64.5 90.5q9 25 35 25zM690 1561q158 0 205 -41q48 -40 92 -199l350 -1288q4 -20 -0.5 -26.5t-23.5 -6.5
h-160q-12 0 -17.5 6.5t-9.5 26.5l-127 452h-616l-129 -452q-4 -20 -9.5 -26.5t-17.5 -6.5h-159q-19 0 -24 6.5t-1 26.5l363 1288q48 161 92 199q50 41 192 41zM690 1380q-42 0 -55.5 -17t-32.5 -91l-168 -606h518l-159 606q-21 74 -37 90q-15 18 -66 18z" />
    <glyph glyph-name="middot" unicode="&#x103;" horiz-adv-x="1093" 
d="M745 1536h68q35 0 29 -33q-21 -139 -88 -194q-64 -52 -222 -52q-157 0 -221 52q-67 55 -88 194q-6 33 29 33h65q26 0 35 -25q29 -66 67 -90t113 -24t112.5 24t66.5 90q9 25 34 25zM498 1130q240 0 351.5 -77t111.5 -244v-717q0 -43 -39 -57q-116 -45 -455 -45
q-216 0 -305 65q-90 69 -90 264q0 173 86.5 244.5t275.5 71.5l330 2v137q0 97 -62 140.5t-204 43.5h-308q-19 0 -24.5 6t-5.5 25v84q0 17 5 22.5t23 10.5q144 24 310 24zM764 182v295h-326q-90 0 -131 -35t-41 -118q0 -97 51.5 -131.5t184.5 -34.5q168 0 262 24z" />
    <glyph glyph-name="quotesinglbase.001" unicode="&#x104;" horiz-adv-x="1388" 
d="M688 1561q158 0 205 -41q48 -40 92 -199l350 -1288q4 -20 -0.5 -26.5t-23.5 -6.5h-72q-18 -88 -18 -123q0 -40 18.5 -51.5t77.5 -11.5h74q30 0 30 -31v-70q0 -28 -24 -37q-43 -16 -123 -16q-100 0 -144.5 35t-44.5 121q0 104 41 207l-129 462h-616l-129 -452
q-4 -20 -9.5 -26.5t-17.5 -6.5h-159q-19 0 -24 6.5t-1 26.5l362 1288q48 159 93 199q50 41 192 41zM688 1380q-42 0 -55.5 -17t-32.5 -91l-168 -606h518l-159 606q-21 74 -37 90q-15 18 -66 18z" />
    <glyph glyph-name="quotedblbase.001" unicode="&#x105;" horiz-adv-x="1093" 
d="M866 -186h74q29 0 29 -31v-70q0 -28 -25 -37q-43 -16 -123 -16q-100 0 -143 35t-43 121q0 66 27 180q-88 -6 -195 -6q-216 0 -305 65q-90 69 -90 264q0 173 86.5 244.5t275.5 71.5l330 2v137q0 97 -62 140.5t-204 43.5h-308q-19 0 -24.5 6t-5.5 25v84q0 17 5 22.5
t23 10.5q144 24 310 24q240 0 351.5 -77t111.5 -244v-717q0 -43 -39 -57q-49 -18 -134 -27q-18 -85 -18 -131q0 -40 18.5 -51.5t77.5 -11.5zM266 324q0 -97 51.5 -131.5t184.5 -34.5q168 0 262 24v295h-326q-90 0 -131 -35t-41 -118z" />
    <glyph glyph-name="perthousand" unicode="&#x106;" horiz-adv-x="1226" 
d="M766 1964h182q21 0 21 -20v-15q0 -13 -11 -24l-290 -256q-14 -12 -29 0l-41 26q-16 13 -6 29l149 248q6 12 25 12zM739 1561q237 0 381 -21q33 -3 33 -35v-96q0 -31 -31 -31h-383q-261 0 -338 -121t-77 -483q0 -360 77 -481t338 -121h383q31 0 31 -31v-96q0 -31 -33 -37
q-132 -18 -381 -18q-196 0 -311 37t-186 129q-70 91 -97.5 233.5t-27.5 384.5t27.5 385t97.5 234q70 94 185 131t312 37z" />
    <glyph glyph-name="Acircumflex" unicode="&#x107;" horiz-adv-x="995" 
d="M616 1554h183q20 0 20 -20v-14q0 -15 -10 -25l-291 -256q-14 -12 -29 0l-40 27q-16 13 -7 28l150 248q6 12 24 12zM584 1130q176 0 311 -18q29 -3 29 -35v-88q0 -31 -31 -31h-309q-181 0 -230 -75q-49 -76 -49 -324q0 -245 49 -321t230 -76h309q31 0 31 -31v-88
q0 -32 -29 -35q-135 -18 -311 -18q-159 0 -246 24t-141 90q-52 65 -70 165.5t-18 289.5t18 289.5t70 165.5q54 67 140.5 91.5t246.5 24.5z" />
    <glyph glyph-name="Ecircumflex" unicode="&#x108;" horiz-adv-x="1226" 
d="M670 1964h88q25 0 33 -14l182 -248q12 -14 -6 -29l-37 -24q-14 -12 -29 0l-188 149l-187 -149q-14 -11 -28 0l-37 24q-18 15 -6 29l180 248q14 14 35 14zM739 1561q237 0 381 -21q33 -3 33 -35v-96q0 -31 -31 -31h-383q-261 0 -338 -121t-77 -483q0 -360 77 -481
t338 -121h383q31 0 31 -31v-96q0 -31 -33 -37q-132 -18 -381 -18q-196 0 -311 37t-186 129q-70 91 -97.5 233.5t-27.5 384.5t27.5 385t97.5 234q70 94 185 131t312 37z" />
    <glyph glyph-name="Aacute" unicode="&#x109;" horiz-adv-x="995" 
d="M506 1554h86q27 0 35 -14l182 -248q11 -14 -8 -28l-35 -25q-15 -12 -31 0l-186 150l-187 -150q-15 -9 -30 0l-35 25q-19 14 -8 28l182 248q8 14 35 14zM584 1130q176 0 311 -18q29 -3 29 -35v-88q0 -31 -31 -31h-309q-181 0 -230 -75q-49 -76 -49 -324q0 -245 49 -321
t230 -76h309q31 0 31 -31v-88q0 -32 -29 -35q-135 -18 -311 -18q-159 0 -246 24t-141 90q-52 65 -70 165.5t-18 289.5t18 289.5t70 165.5q54 67 140.5 91.5t246.5 24.5z" />
    <glyph glyph-name="Edieresis" unicode="&#x10a;" horiz-adv-x="1226" 
d="M709 1925q125 0 125 -123q0 -125 -125 -125q-127 0 -127 125q0 123 127 123zM739 1561q237 0 381 -21q33 -3 33 -35v-96q0 -31 -31 -31h-383q-261 0 -338 -121t-77 -483q0 -360 77 -481t338 -121h383q31 0 31 -31v-96q0 -31 -33 -37q-132 -18 -381 -18q-196 0 -311 37
t-186 129q-70 91 -97.5 233.5t-27.5 384.5t27.5 385t97.5 234q70 94 185 131t312 37z" />
    <glyph glyph-name="Egrave" unicode="&#x10b;" horiz-adv-x="995" 
d="M541 1516q125 0 125 -123q0 -125 -125 -125q-127 0 -127 125q0 123 127 123zM584 1130q176 0 311 -18q29 -3 29 -35v-88q0 -31 -31 -31h-309q-181 0 -230 -75q-49 -76 -49 -324q0 -245 49 -321t230 -76h309q31 0 31 -31v-88q0 -32 -29 -35q-135 -18 -311 -18
q-159 0 -246 24t-141 90q-52 65 -70 165.5t-18 289.5t18 289.5t70 165.5q54 67 140.5 91.5t246.5 24.5z" />
    <glyph glyph-name="Iacute" unicode="&#x10c;" horiz-adv-x="1226" 
d="M909 1958l37 -25q17 -14 6 -28l-180 -248q-15 -15 -35 -15h-88q-20 0 -35 15l-180 248q-11 14 6 28l37 25q14 12 29 0l188 -150l187 150q14 11 28 0zM739 1561q237 0 381 -21q33 -3 33 -35v-96q0 -31 -31 -31h-383q-261 0 -338 -121t-77 -483q0 -360 77 -481t338 -121
h383q31 0 31 -31v-96q0 -31 -33 -37q-132 -18 -381 -18q-196 0 -311 37t-186 129q-70 91 -97.5 233.5t-27.5 384.5t27.5 385t97.5 234q70 94 185 131t312 37z" />
    <glyph glyph-name="Icircumflex" unicode="&#x10d;" horiz-adv-x="995" 
d="M784 1548l37 -24q20 -15 6 -29l-180 -248q-8 -14 -35 -14h-88q-24 0 -32 14l-183 248q-12 14 6 29l37 24q16 9 31 0l186 -149l187 149q14 11 28 0zM584 1130q176 0 311 -18q29 -3 29 -35v-88q0 -31 -31 -31h-309q-181 0 -230 -75q-49 -76 -49 -324q0 -245 49 -321
t230 -76h309q31 0 31 -31v-88q0 -32 -29 -35q-135 -18 -311 -18q-159 0 -246 24t-141 90q-52 65 -70 165.5t-18 289.5t18 289.5t70 165.5q54 67 140.5 91.5t246.5 24.5z" />
    <glyph glyph-name="Idieresis" unicode="&#x10e;" horiz-adv-x="1509" 
d="M903 1958l35 -25q19 -14 8 -28l-182 -248q-9 -15 -35 -15h-86q-26 0 -35 15l-182 248q-11 14 6 28l37 25q15 12 31 0l186 -150l186 150q15 9 31 0zM762 1561q345 0 489 -185q148 -183 148 -600q0 -418 -148 -604q-144 -182 -489 -182q-374 0 -563 14q-19 2 -25 7t-6 22
v1483q0 18 6 23t25 7q202 15 563 15zM733 1378h-358v-1206h387q235 0 330 139q98 140 98 465q0 320 -105 461t-352 141z" />
    <glyph glyph-name="Igrave" unicode="&#x10f;" horiz-adv-x="1245" 
d="M879 1548h135q30 0 30 -30v-1461q0 -29 -32 -32q-221 -35 -426 -35q-232 0 -340 67q-80 59 -107.5 170t-29.5 330q0 343 90 459q89 114 376 114q172 0 273 -14v402q0 30 31 30zM1255 1548h166q21 0 21 -20v-15q0 -14 -10 -24l-203 -256q-10 -16 -29 0l-37 27q-12 9 -6 28
l74 248q3 12 24 12zM848 178v780h-260q-185 0 -234 -75q-49 -73 -49 -324q0 -244 47 -321q49 -76 234 -76q121 0 262 16z" />
    <glyph glyph-name="Oacute" unicode="&#x110;" horiz-adv-x="1533" 
d="M786 1561q346 0 490 -185q147 -182 147 -600q0 -420 -147 -604q-144 -182 -490 -182q-377 0 -563 14q-19 2 -24.5 7t-5.5 22v667h-150q-31 0 -31 31v84q0 31 31 31h150v670q0 18 5.5 23t24.5 7q199 15 563 15zM399 700v-528h387q231 0 330 141q98 140 98 463
q0 321 -104 461q-105 141 -354 141h-357v-532h324q31 0 31 -31v-84q0 -31 -31 -31h-324z" />
    <glyph glyph-name="Ocircumflex" unicode="&#x111;" horiz-adv-x="1185" 
d="M1044 1518v-123h127q31 0 31 -31v-57q0 -31 -31 -31h-127v-1219q0 -29 -32 -32q-221 -35 -426 -35q-232 0 -340 67q-80 59 -107.5 170t-29.5 330q0 343 90 459q89 114 376 114q172 0 273 -14v160h-295q-31 0 -31 31v57q0 31 31 31h295v123q0 30 31 30h135q30 0 30 -30z
M848 178v780h-260q-185 0 -234 -75q-49 -73 -49 -324q0 -244 47 -321q49 -76 234 -76q121 0 262 16z" />
    <glyph glyph-name="apple" unicode="&#x112;" horiz-adv-x="1288" 
d="M401 1855h529q31 0 31 -30v-84q0 -31 -31 -31h-529q-30 0 -30 31v84q0 30 30 30zM199 1550h958q31 0 31 -30v-121q0 -31 -31 -31h-782v-526h712q31 0 31 -31v-119q0 -30 -31 -30h-712v-480h782q31 0 31 -30v-121q0 -31 -31 -31h-958q-31 0 -31 31v1489q0 30 31 30z" />
    <glyph glyph-name="Ograve" unicode="&#x113;" horiz-adv-x="1114" 
d="M305 1446h529q30 0 30 -31v-84q0 -31 -30 -31h-529q-31 0 -31 31v84q0 31 31 31zM573 1130q274 0 363 -108q91 -111 94 -432v-60q0 -33 -15 -45t-59 -12h-651q3 -189 55 -250t218 -61h335q31 0 31 -31v-90q0 -30 -29 -33q-135 -18 -342 -18q-288 0 -376 110
q-91 117 -91 459t91 459q87 112 376 112zM573 958q-162 0 -215 -65q-52 -64 -55 -260h531q-3 195 -54 262q-48 63 -207 63z" />
    <glyph glyph-name="Uacute" unicode="&#x114;" horiz-adv-x="1288" 
d="M907 1946h66q34 0 28 -33q-21 -140 -88 -195q-63 -51 -219 -51q-158 0 -221 51q-67 55 -88 195q-6 33 29 33h65q26 0 35 -25q29 -66 67 -90.5t113 -24.5q74 0 111.5 24t66.5 91q9 25 35 25zM199 1550h958q31 0 31 -30v-121q0 -31 -31 -31h-782v-526h712q31 0 31 -31v-119
q0 -30 -31 -30h-712v-480h782q31 0 31 -30v-121q0 -31 -31 -31h-958q-31 0 -31 31v1489q0 30 31 30z" />
    <glyph glyph-name="Ucircumflex" unicode="&#x115;" horiz-adv-x="1114" 
d="M784 1536h66q35 0 29 -33q-21 -139 -88 -194q-64 -52 -222 -52q-157 0 -221 52q-65 53 -86 194q-6 33 29 33h65q26 0 35 -25q29 -66 66 -90t112 -24t113.5 24t67.5 90q9 25 34 25zM573 1130q274 0 363 -108q91 -111 94 -432v-60q0 -33 -15 -45t-59 -12h-651
q3 -189 55 -250t218 -61h335q31 0 31 -31v-90q0 -30 -29 -33q-135 -18 -342 -18q-288 0 -376 110q-91 117 -91 459t91 459q87 112 376 112zM573 958q-162 0 -215 -65q-52 -64 -55 -260h531q-3 195 -54 262q-48 63 -207 63z" />
    <glyph glyph-name="Ugrave" unicode="&#x116;" horiz-adv-x="1288" 
d="M793 1802q0 -125 -127 -125t-127 125q0 123 127 123t127 -123zM199 1550h958q31 0 31 -30v-121q0 -31 -31 -31h-782v-526h712q31 0 31 -31v-119q0 -30 -31 -30h-712v-480h782q31 0 31 -30v-121q0 -31 -31 -31h-958q-31 0 -31 31v1489q0 30 31 30z" />
    <glyph glyph-name="dotlessi" unicode="&#x117;" horiz-adv-x="1114" 
d="M696 1393q0 -125 -127 -125t-127 125q0 123 127 123t127 -123zM573 1130q274 0 363 -108q91 -111 94 -432v-60q0 -33 -15 -45t-59 -12h-651q3 -189 55 -250t218 -61h335q31 0 31 -31v-90q0 -30 -29 -33q-135 -18 -342 -18q-288 0 -376 110q-91 117 -91 459t91 459
q87 112 376 112zM573 958q-162 0 -215 -65q-52 -64 -55 -260h531q-3 195 -54 262q-48 63 -207 63z" />
    <glyph glyph-name="circumflex" unicode="&#x118;" horiz-adv-x="1288" 
d="M199 1550h958q31 0 31 -30v-121q0 -31 -31 -31h-782v-526h712q31 0 31 -31v-119q0 -30 -31 -30h-712v-480h782q31 0 31 -30v-121q0 -31 -31 -31h-174q-18 -88 -18 -123q0 -41 17.5 -52t76.5 -11h74q30 0 30 -31v-70q0 -28 -24 -37q-43 -16 -123 -16q-100 0 -144.5 35
t-44.5 121q0 66 31 184h-659q-31 0 -31 31v1489q0 30 31 30z" />
    <glyph glyph-name="tilde.001" unicode="&#x119;" horiz-adv-x="1114" 
d="M573 1130q274 0 363 -108q91 -111 94 -432v-60q0 -33 -15 -45t-59 -12h-651q3 -189 55 -250t218 -61h335q31 0 31 -31v-90q0 -30 -29 -33q-108 -12 -114 -12q-17 -100 -17 -119q0 -40 19 -51.5t78 -11.5h73q29 0 29 -31v-70q0 -28 -25 -37q-43 -16 -122 -16
q-100 0 -143.5 35t-43.5 121q0 74 27 176l-103 -2q-288 0 -376 110q-91 117 -91 459t91 459q87 112 376 112zM573 958q-162 0 -215 -65q-52 -64 -55 -260h531q-3 195 -54 262q-48 63 -207 63z" />
    <glyph glyph-name="overscore" unicode="&#x11a;" horiz-adv-x="1288" 
d="M883 1958l37 -25q17 -14 6 -28l-183 -248q-9 -15 -32 -15h-88q-26 0 -35 15l-180 248q-11 14 6 28l37 25q14 11 28 0l187 -150l188 150q14 12 29 0zM199 1550h958q31 0 31 -30v-121q0 -31 -31 -31h-782v-526h712q31 0 31 -31v-119q0 -30 -31 -30h-712v-480h782
q31 0 31 -30v-121q0 -31 -31 -31h-958q-31 0 -31 31v1489q0 30 31 30z" />
    <glyph glyph-name="breve" unicode="&#x11b;" horiz-adv-x="1114" 
d="M786 1548l37 -24q18 -15 6 -29l-182 -248q-8 -14 -33 -14h-88q-26 0 -34 14l-181 248q-14 14 6 29l37 24q15 12 29 0l186 -149l187 149q15 9 30 0zM573 1130q274 0 363 -108q91 -111 94 -432v-60q0 -33 -15 -45t-59 -12h-651q3 -189 55 -250t218 -61h335q31 0 31 -31v-90
q0 -30 -29 -33q-135 -18 -342 -18q-288 0 -376 110q-91 117 -91 459t91 459q87 112 376 112zM573 958q-162 0 -215 -65q-52 -64 -55 -260h531q-3 195 -54 262q-48 63 -207 63z" />
    <glyph glyph-name="dotaccent" unicode="&#x11c;" horiz-adv-x="1355" 
d="M653 1964h88q27 0 35 -14l180 -248q13 -16 -6 -29l-37 -24q-14 -11 -28 0l-187 149l-186 -149q-16 -9 -31 0l-37 24q-18 15 -6 29l183 248q8 14 32 14zM739 1561q250 0 394 -21q32 -3 32 -35v-96q0 -31 -30 -31h-396q-140 0 -218 -28t-124 -101q-43 -72 -58 -177.5
t-15 -299.5q0 -360 77 -481q76 -119 338 -119h312v561q0 33 30 33h136q30 0 30 -33v-610q0 -26 -6 -41q-28 -67 -205 -82l-143 -8q-39 -2 -154 -2q-290 0 -434 100q-106 82 -146 237.5t-42 444.5q0 245 27.5 387.5t97.5 233.5q70 94 185 131t312 37z" />
    <glyph glyph-name="ring.001" unicode="&#x11d;" horiz-adv-x="1181" 
d="M551 1554h88q27 0 35 -14l180 -248q13 -16 -6 -28l-37 -25q-15 -12 -29 0l-186 150l-186 -150q-16 -9 -31 0l-37 25q-17 14 -6 28l182 248q8 14 33 14zM586 1130q260 0 424 -34q32 -3 32 -35v-959q0 -165 -19 -255.5t-71 -151.5q-53 -62 -141.5 -86.5t-241.5 -24.5
q-151 0 -297 19q-26 3 -26 32v89q0 30 28 30h291q171 0 226 49t55 191v12q-109 -16 -271 -16q-291 0 -378 112q-91 117 -91 461q0 185 19.5 286.5t73.5 166.5q54 66 141 90t246 24zM846 176v782h-262q-183 0 -232 -75q-49 -73 -49 -322q0 -247 49 -323q52 -76 236 -76
q152 0 258 14z" />
    <glyph glyph-name="cedilla" unicode="&#x11e;" horiz-adv-x="1355" 
d="M924 1946h67q35 0 29 -33q-21 -140 -88 -195q-63 -51 -221 -51q-159 0 -222 51q-67 55 -88 195q-6 33 29 33h66q25 0 34 -25q29 -66 67.5 -90.5t113.5 -24.5q74 0 111.5 24t66.5 91q9 25 35 25zM739 1561q250 0 394 -21q32 -3 32 -35v-96q0 -31 -30 -31h-396
q-140 0 -218 -28t-124 -101q-43 -72 -58 -177.5t-15 -299.5q0 -360 77 -481q76 -119 338 -119h312v561q0 33 30 33h136q30 0 30 -33v-610q0 -26 -6 -41q-28 -67 -205 -82l-143 -8q-39 -2 -154 -2q-290 0 -434 100q-106 82 -146 237.5t-42 444.5q0 245 27.5 387.5t97.5 233.5
q70 94 185 131t312 37z" />
    <glyph glyph-name="hungarumlaut" unicode="&#x11f;" horiz-adv-x="1181" 
d="M809 1536h65q35 0 29 -33q-21 -141 -86 -194q-64 -52 -221 -52t-221 52q-67 55 -88 194q-6 33 28 33h66q26 0 35 -25q29 -66 67 -90t113 -24t112 24t66 90q9 25 35 25zM586 1130q260 0 424 -34q32 -3 32 -35v-959q0 -165 -19 -255.5t-71 -151.5q-53 -62 -141.5 -86.5
t-241.5 -24.5q-151 0 -297 19q-26 3 -26 32v89q0 30 28 30h291q171 0 226 49t55 191v12q-109 -16 -271 -16q-291 0 -378 112q-91 117 -91 461q0 185 19.5 286.5t73.5 166.5q54 66 141 90t246 24zM846 176v782h-262q-183 0 -232 -75q-49 -73 -49 -322q0 -247 49 -323
q52 -76 236 -76q152 0 258 14z" />
    <glyph glyph-name="ogonek.001" unicode="&#x120;" horiz-adv-x="1355" 
d="M713 1925q125 0 125 -123q0 -125 -125 -125q-129 0 -129 125q0 123 129 123zM739 1561q250 0 394 -21q32 -3 32 -35v-96q0 -31 -30 -31h-396q-140 0 -218 -28t-124 -101q-43 -72 -58 -177.5t-15 -299.5q0 -360 77 -481q76 -119 338 -119h312v561q0 33 30 33h136
q30 0 30 -33v-610q0 -26 -6 -41q-28 -67 -205 -82l-143 -8q-39 -2 -154 -2q-290 0 -434 100q-106 82 -146 237.5t-42 444.5q0 245 27.5 387.5t97.5 233.5q70 94 185 131t312 37z" />
    <glyph glyph-name="caron" unicode="&#x121;" horiz-adv-x="1181" 
d="M596 1516q125 0 125 -123q0 -125 -125 -125q-129 0 -129 125q0 123 129 123zM586 1130q260 0 424 -34q32 -3 32 -35v-959q0 -165 -19 -255.5t-71 -151.5q-53 -62 -141.5 -86.5t-241.5 -24.5q-151 0 -297 19q-26 3 -26 32v89q0 30 28 30h291q171 0 226 49t55 191v12
q-109 -16 -271 -16q-291 0 -378 112q-91 117 -91 461q0 185 19.5 286.5t73.5 166.5q54 66 141 90t246 24zM846 176v782h-262q-183 0 -232 -75q-49 -73 -49 -322q0 -247 49 -323q52 -76 236 -76q152 0 258 14z" />
    <glyph glyph-name="Lslash" unicode="&#x122;" horiz-adv-x="1355" 
d="M739 1561q250 0 394 -21q32 -3 32 -35v-96q0 -31 -30 -31h-396q-140 0 -218 -28t-124 -101q-43 -72 -58 -177.5t-15 -299.5q0 -360 77 -481q76 -119 338 -119h312v561q0 33 30 33h136q30 0 30 -33v-610q0 -26 -6 -41q-28 -67 -205 -82l-143 -8q-39 -2 -154 -2
q-290 0 -434 100q-106 82 -146 237.5t-42 444.5q0 245 27.5 387.5t97.5 233.5q70 94 185 131t312 37zM668 -80h155q21 0 21 -20v-15q0 -14 -10 -24l-267 -252q-12 -9 -28 0l-37 26q-16 13 -6 29l147 244q6 12 25 12z" />
    <glyph glyph-name="lslash" unicode="&#x123;" horiz-adv-x="1181" 
d="M799 1550l37 -26q16 -13 6 -29l-148 -244q-6 -12 -24 -12h-156q-20 0 -20 21v14q0 14 10 24l266 252q14 12 29 0zM586 1130q260 0 424 -34q32 -3 32 -35v-959q0 -165 -19 -255.5t-71 -151.5q-53 -62 -141.5 -86.5t-241.5 -24.5q-151 0 -297 19q-26 3 -26 32v89
q0 30 28 30h291q171 0 226 49t55 191v12q-109 -16 -271 -16q-291 0 -378 112q-91 117 -91 461q0 185 19.5 286.5t73.5 166.5q54 66 141 90t246 24zM846 176v782h-262q-183 0 -232 -75q-49 -73 -49 -322q0 -247 49 -323q52 -76 236 -76q152 0 258 14z" />
    <glyph glyph-name="Scaron.001" unicode="&#x124;" horiz-adv-x="1583" 
d="M768 1964h88q27 0 35 -14l180 -248q12 -14 -6 -29l-37 -24q-14 -12 -29 0l-186 149l-188 -149q-15 -12 -29 0l-37 24q-18 15 -6 29l182 248q8 14 33 14zM1239 1550h145q31 0 31 -32v-1487q0 -31 -31 -31h-145q-31 0 -31 31v665h-833v-665q0 -31 -31 -31h-145
q-31 0 -31 31v1487q0 32 31 32h145q31 0 31 -32v-639h833v639q0 32 31 32z" />
    <glyph glyph-name="scaron.001" unicode="&#x125;" horiz-adv-x="1206" 
d="M186 1929h88q22 0 35 -16l180 -246q12 -16 -6 -31l-37 -22q-16 -12 -28 0l-187 149l-188 -149q-13 -13 -29 0l-37 22q-18 15 -6 31l181 246q13 16 34 16zM172 1548h135q31 0 31 -30v-398q113 10 260 10q157 0 231 -14q83 -13 142 -63q59 -48 80.5 -138.5t21.5 -263.5
v-620q0 -31 -31 -31h-135q-30 0 -30 31v604q0 126 -11.5 187.5t-46.5 90.5q-34 31 -72.5 39.5t-128.5 8.5h-280v-930q0 -31 -31 -31h-135q-31 0 -31 31v1487q0 30 31 30z" />
    <glyph glyph-name="Zcaron" unicode="&#x126;" horiz-adv-x="1597" 
d="M1423 1518v-168h84q31 0 31 -31v-76q0 -31 -31 -31h-84v-1181q0 -31 -30 -31h-148q-31 0 -31 31v665h-831v-665q0 -31 -31 -31h-147q-31 0 -31 31v1181h-86q-31 0 -31 31v76q0 31 31 31h86v168q0 32 31 32h147q31 0 31 -32v-168h831v168q0 32 31 32h148q30 0 30 -32z
M383 879h831v333h-831v-333z" />
    <glyph glyph-name="zcaron" unicode="&#x127;" horiz-adv-x="1206" 
d="M598 1130q157 0 231 -14q83 -13 142 -63q59 -48 80.5 -138.5t21.5 -263.5v-620q0 -31 -31 -31h-135q-30 0 -30 31v604q0 126 -11.5 187.5t-46.5 90.5q-34 31 -72.5 39.5t-128.5 8.5h-280v-930q0 -31 -31 -31h-135q-31 0 -31 31v1245h-127q-30 0 -30 31v57q0 31 30 31h127
v123q0 30 31 30h135q31 0 31 -30v-123h295q31 0 31 -31v-57q0 -31 -31 -31h-295v-156q113 10 260 10z" />
    <glyph glyph-name="brokenbar" unicode="&#x128;" horiz-adv-x="542" 
d="M125 1925q47 0 147 -41t131 -41q37 0 55.5 14.5t37.5 55.5q15 31 39 22l47 -12q31 -9 22 -47q-37 -117 -76 -157t-114 -40q-48 0 -148 41t-131 41q-37 0 -55 -14t-37 -55q-16 -29 -39 -21l-47 12q-32 10 -23 46q36 116 74 157q39 39 117 39zM201 1550h145q31 0 31 -32
v-1487q0 -31 -31 -31h-145q-31 0 -31 31v1487q0 32 31 32z" />
    <glyph glyph-name="Eth" unicode="&#x129;" horiz-adv-x="479" 
d="M96 1516q48 0 148 -41t131 -41q37 0 56 14t36 55q16 32 39 23l47 -13q31 -9 22 -47q-37 -118 -74.5 -157t-115.5 -39q-47 0 -147 41t-132 41q-36 0 -54.5 -14t-37.5 -56q-16 -29 -39 -20l-47 12q-31 9 -22 45q37 119 76 158q36 39 114 39zM174 1120h135q31 0 31 -30
v-1059q0 -31 -31 -31h-135q-31 0 -31 31v1059q0 30 31 30z" />
    <glyph glyph-name="eth" unicode="&#x12a;" horiz-adv-x="542" 
d="M2 1855h528q31 0 31 -30v-84q0 -31 -31 -31h-528q-31 0 -31 31v84q0 30 31 30zM199 1550h145q31 0 31 -32v-1487q0 -31 -31 -31h-145q-31 0 -31 31v1487q0 32 31 32z" />
    <glyph glyph-name="Yacute" unicode="&#x12b;" horiz-adv-x="479" 
d="M-25 1446h529q31 0 31 -31v-84q0 -31 -31 -31h-529q-30 0 -30 31v84q0 31 30 31zM172 1120h135q31 0 31 -30v-1059q0 -31 -31 -31h-135q-31 0 -31 31v1059q0 30 31 30z" />
    <glyph glyph-name="yacute" unicode="&#x12e;" horiz-adv-x="542" 
d="M199 1550h145q31 0 31 -32v-1487q0 -31 -31 -31h-55q-19 -93 -19 -123q0 -40 19 -51.5t78 -11.5h73q31 0 31 -31v-70q0 -28 -25 -37q-43 -16 -122 -16q-102 0 -145.5 35t-43.5 121q0 78 33 190v1512q0 32 31 32z" />
    <glyph glyph-name="Thorn" unicode="&#x12f;" horiz-adv-x="479" 
d="M244 1516q125 0 125 -123q0 -125 -125 -125q-129 0 -129 125q0 123 129 123zM172 1120h135q31 0 31 -30v-1059q0 -31 -31 -31h-41q-18 -76 -18 -123q0 -41 17.5 -52t76.5 -11h74q30 0 30 -31v-70q0 -28 -24 -37q-43 -16 -123 -16q-100 0 -144 35t-44 121q0 74 30 188
v1086q0 30 31 30z" />
    <glyph glyph-name="thorn" unicode="&#x130;" horiz-adv-x="542" 
d="M268 1925q125 0 125 -123q0 -125 -125 -125q-129 0 -129 125q0 123 129 123zM199 1550h145q31 0 31 -32v-1487q0 -31 -31 -31h-145q-31 0 -31 31v1487q0 32 31 32z" />
    <glyph glyph-name="minus.001" unicode="&#x131;" horiz-adv-x="479" 
d="M172 1120h135q31 0 31 -30v-1059q0 -31 -31 -31h-135q-31 0 -31 31v1059q0 30 31 30z" />
    <glyph glyph-name="multiply" unicode="&#x132;" horiz-adv-x="1714" 
d="M199 1550h145q31 0 31 -32v-1487q0 -31 -31 -31h-145q-31 0 -31 31v1487q0 32 31 32zM842 1550h688q31 0 31 -30v-748q0 -240 -29 -382.5t-102 -233.5q-72 -91 -192.5 -128.5t-322.5 -37.5q-175 0 -307 18q-30 6 -30 37v96q0 31 30 31h307q272 0 355 121q85 122 82 479
v596h-510q-31 0 -31 31v121q0 30 31 30z" />
    <glyph glyph-name="onesuperior" unicode="&#x133;" horiz-adv-x="964" 
d="M360 1448q0 -121 -120 -121q-121 0 -121 121q0 119 121 119q120 0 120 -119zM172 1120h135q31 0 31 -30v-1059q0 -31 -31 -31h-135q-31 0 -31 31v1059q0 30 31 30zM725 1567q121 0 121 -119q0 -121 -121 -121q-123 0 -123 121q0 119 123 119zM657 1120h136q30 0 30 -30
v-1332q-1 -47 -15 -80.5t-33.5 -51t-53 -27t-59 -11.5t-64.5 -2q-80 0 -113 8q-28 6 -28 33v103q0 28 32 28h48q61 0 75.5 14t14.5 74v1244q0 30 30 30z" />
    <glyph glyph-name="twosuperior" unicode="&#x134;" horiz-adv-x="1157" 
d="M569 1964h86q27 0 35 -14l182 -248q12 -14 -6 -29l-37 -24q-15 -12 -30 0l-187 149l-186 -149q-16 -9 -31 0l-35 24q-20 14 -8 29l183 248q8 14 34 14zM285 1550h688q31 0 31 -30v-748q0 -239 -29.5 -381.5t-102.5 -234.5q-72 -92 -192 -129t-322 -37q-175 0 -307 18
q-31 6 -31 37v96q0 31 31 31h307q272 0 355 121q85 122 82 479v596h-510q-31 0 -31 31v121q0 30 31 30z" />
    <glyph glyph-name="threesuperior" unicode="&#x135;" horiz-adv-x="485" 
d="M197 1554h88q24 0 32 -14l183 -248q11 -14 -6 -28l-37 -25q-15 -12 -31 0l-186 150l-187 -150q-15 -9 -30 0l-35 25q-20 14 -6 28l180 248q8 14 35 14zM176 1120h135q31 0 31 -30v-1332q-1 -47 -15 -80.5t-33.5 -51t-53 -27t-59 -11.5t-64.5 -2q-80 0 -111 8
q-31 6 -31 33v103q0 28 33 28h47q63 0 76.5 14t13.5 74v1244q0 30 31 30z" />
    <glyph glyph-name="onehalf" unicode="&#x136;" horiz-adv-x="1271" 
d="M1020 1550h166q51 0 18 -39l-608 -680l653 -776q19 -19 10 -37t-45 -18h-159q-32 0 -45 23l-633 761v-753q0 -31 -31 -31h-147q-31 0 -31 31v1489q0 30 31 30h147q31 0 31 -30v-643l600 653q14 20 43 20zM610 -80h158q20 0 20 -20v-15q0 -14 -10 -24l-266 -252
q-13 -10 -29 0l-37 26q-16 13 -6 29l146 244q6 12 24 12z" />
    <glyph glyph-name="onequarter" unicode="&#x137;" horiz-adv-x="1034" 
d="M172 1548h133q31 0 31 -32v-793l336 377q14 20 43 20h172q51 0 18 -39l-364 -401l483 -625q19 -19 10 -37t-45 -18h-145q-25 0 -45 23l-463 610v-600q0 -33 -31 -33h-133q-31 0 -31 33v1483q0 32 31 32zM485 -80h158q21 0 21 -20v-15q0 -13 -11 -24l-266 -252
q-13 -10 -29 0l-39 26q-16 13 -6 29l148 244q6 12 24 12z" />
    <glyph glyph-name="threequarters" unicode="&#x138;" horiz-adv-x="1081" 
d="M823 1120h168q48 0 13 -41l-433 -504l482 -540q18 -13 11.5 -27t-32.5 -14h-184q-29 0 -43 20l-455 500v-483q0 -31 -31 -31h-147q-31 0 -31 31v1059q0 30 31 30h147q31 0 31 -30v-484l428 492q19 22 45 22z" />
    <glyph glyph-name="franc" unicode="&#x139;" horiz-adv-x="1179" 
d="M362 1964h183q20 0 20 -20v-15q0 -14 -10 -24l-291 -256q-14 -11 -28 0l-41 26q-16 13 -7 29l150 248q6 12 24 12zM199 1550h145q31 0 31 -30v-1338h743q31 0 31 -30v-121q0 -31 -31 -31h-919q-31 0 -31 31v1489q0 30 31 30z" />
    <glyph glyph-name="Gbreve" unicode="&#x13a;" horiz-adv-x="479" 
d="M322 1954h182q20 0 20 -21v-14q0 -15 -10 -25l-291 -256q-14 -11 -28 0l-41 27q-16 13 -7 29l150 248q6 12 25 12zM172 1550h135q31 0 31 -30v-1489q0 -31 -31 -31h-135q-31 0 -31 31v1489q0 30 31 30z" />
    <glyph glyph-name="gbreve" unicode="&#x13b;" horiz-adv-x="1179" 
d="M199 1550h145q31 0 31 -30v-1338h743q31 0 31 -30v-121q0 -31 -31 -31h-919q-31 0 -31 31v1489q0 30 31 30zM633 -80h158q20 0 20 -20v-15q0 -14 -10 -24l-266 -252q-13 -10 -29 0l-39 26q-16 13 -6 29l147 244q6 12 25 12z" />
    <glyph glyph-name="Idot" unicode="&#x13c;" horiz-adv-x="477" 
d="M172 1550h133q31 0 31 -30v-1489q0 -31 -31 -31h-133q-31 0 -31 31v1489q0 30 31 30zM156 -80h157q21 0 21 -20v-15q0 -14 -10 -24l-267 -252q-12 -9 -28 0l-39 26q-16 13 -6 29l147 244q6 12 25 12z" />
    <glyph glyph-name="Scedilla.001" unicode="&#x13d;" horiz-adv-x="1179" 
d="M199 1550h145q31 0 31 -30v-1338h743q31 0 31 -30v-121q0 -31 -31 -31h-919q-31 0 -31 31v1489q0 30 31 30zM657 1548h166q21 0 21 -20v-15q0 -14 -10 -24l-203 -256q-10 -16 -29 0l-35 27q-14 9 -8 28l74 248q3 12 24 12z" />
    <glyph glyph-name="scedilla.001" unicode="&#x13e;" horiz-adv-x="538" 
d="M172 1550h133q31 0 31 -30v-1489q0 -31 -31 -31h-133q-31 0 -31 31v1489q0 30 31 30zM522 1548h164q21 0 21 -20v-15q0 -13 -11 -24l-200 -256q-10 -16 -29 0l-37 27q-12 9 -6 28l72 248q3 12 26 12z" />
    <glyph glyph-name="Cacute" unicode="&#x13f;" horiz-adv-x="1179" 
d="M199 1550h145q31 0 31 -30v-1338h743q31 0 31 -30v-121q0 -31 -31 -31h-919q-31 0 -31 31v1489q0 30 31 30zM762 811q125 0 125 -123q0 -125 -125 -125q-127 0 -127 125q0 123 127 123z" />
    <glyph glyph-name="cacute" unicode="&#x140;" horiz-adv-x="649" 
d="M172 1550h133q31 0 31 -30v-1489q0 -31 -31 -31h-133q-31 0 -31 31v1489q0 30 31 30zM565 811q125 0 125 -123q0 -125 -125 -125q-129 0 -129 125q0 123 129 123z" />
    <glyph glyph-name="Ccaron" unicode="&#x141;" horiz-adv-x="1214" 
d="M410 698v-516h743q31 0 31 -30v-121q0 -31 -31 -31h-920q-30 0 -30 31v549l-131 -76q-30 -20 -39 12l-33 59q-16 26 10 41l193 111v793q0 30 30 30h146q31 0 31 -30v-674l221 127q32 16 43 -10l33 -60q16 -25 -13 -41z" />
    <glyph glyph-name="ccaron" unicode="&#x142;" horiz-adv-x="587" 
d="M219 1550h133q31 0 31 -30v-650l100 58q32 16 43 -10l35 -60q16 -25 -12 -41l-166 -94v-692q0 -31 -31 -31h-133q-31 0 -31 31v577l-92 -51q-30 -20 -39 12l-32 60q-16 26 10 41l153 88v762q0 30 31 30z" />
    <glyph glyph-name="dslash" unicode="&#x143;" horiz-adv-x="1579" 
d="M815 1964h182q21 0 21 -20v-15q0 -14 -10 -24l-291 -256q-15 -12 -29 0l-41 26q-16 13 -6 29l150 248q6 12 24 12zM1235 1550h145q31 0 31 -32v-1487q0 -31 -31 -31h-125q-47 0 -71 37l-809 1218v-1224q0 -31 -31 -31h-145q-31 0 -31 31v1487q0 32 31 32h139
q53 -1 72.5 -11.5t44.5 -47.5l749 -1129v1156q0 32 31 32z" />
    <glyph glyph-name="nacute" unicode="&#x144;" horiz-adv-x="1204" 
d="M631 1554h180q20 0 20 -20v-14q0 -15 -10 -25l-291 -256q-12 -9 -28 0l-39 27q-15 12 -6 28l149 248q6 12 25 12zM596 1130q157 0 231 -14q83 -13 142 -63q59 -48 80.5 -138.5t21.5 -263.5v-620q0 -31 -35 -31h-131q-31 0 -31 31v604q0 164 -32 248q-15 36 -51 51
q-35 16 -67.5 20t-107.5 4h-280v-927q0 -31 -31 -31h-135q-31 0 -31 31v1034q0 13 4 20t9.5 9t17.5 4q157 32 426 32z" />
    <glyph glyph-name="uni0145" unicode="&#x145;" horiz-adv-x="1579" 
d="M1235 1550h145q31 0 31 -32v-1487q0 -31 -31 -31h-125q-47 0 -71 37l-809 1218v-1224q0 -31 -31 -31h-145q-31 0 -31 31v1487q0 32 31 32h139q53 -1 72.5 -11.5t44.5 -47.5l749 -1129v1156q0 32 31 32zM707 -80h157q21 0 21 -20v-15q0 -13 -11 -24l-266 -252
q-12 -9 -28 0l-37 26q-16 13 -6 29l145 244q6 12 25 12z" />
    <glyph glyph-name="uni0146" unicode="&#x146;" horiz-adv-x="1204" 
d="M596 1130q157 0 231 -14q83 -13 142 -63q59 -48 80.5 -138.5t21.5 -263.5v-620q0 -31 -35 -31h-131q-31 0 -31 31v604q0 164 -32 248q-15 36 -51 51q-35 16 -67.5 20t-107.5 4h-280v-927q0 -31 -31 -31h-135q-31 0 -31 31v1034q0 13 4 20t9.5 9t17.5 4q157 32 426 32z
M520 -80h158q20 0 20 -20v-15q0 -14 -10 -24l-268 -252q-10 -10 -29 0l-37 26q-16 13 -6 29l148 244q6 12 24 12z" />
    <glyph glyph-name="Ncaron" unicode="&#x147;" horiz-adv-x="1579" 
d="M1006 1958l36 -25q19 -13 7 -28l-181 -248q-9 -15 -34 -15h-89q-23 0 -32 15l-183 248q-11 13 7 28l36 25q15 9 31 0l187 -150l186 150q15 12 29 0zM1235 1550h145q31 0 31 -32v-1487q0 -31 -31 -31h-125q-47 0 -71 37l-809 1218v-1224q0 -31 -31 -31h-145q-31 0 -31 31
v1487q0 32 31 32h139q53 -1 72.5 -11.5t44.5 -47.5l749 -1129v1156q0 32 31 32z" />
    <glyph glyph-name="ncaron" unicode="&#x148;" horiz-adv-x="1204" 
d="M821 1548l37 -24q18 -15 6 -29l-182 -248q-8 -14 -33 -14h-88q-27 0 -35 14l-180 248q-13 16 6 29l37 24q15 12 29 0l186 -149l187 149q15 9 30 0zM596 1130q157 0 231 -14q83 -13 142 -63q59 -48 80.5 -138.5t21.5 -263.5v-620q0 -31 -35 -31h-131q-31 0 -31 31v604
q0 164 -32 248q-15 36 -51 51q-35 16 -67.5 20t-107.5 4h-280v-927q0 -31 -31 -31h-135q-31 0 -31 31v1034q0 13 4 20t9.5 9t17.5 4q157 32 426 32z" />
    <glyph glyph-name="napostrophe" unicode="&#x149;" horiz-adv-x="1204" 
d="M82 1548h164q20 0 20 -20v-15q0 -14 -10 -24l-201 -256q-9 -16 -28 0l-37 27q-12 9 -6 28l71 248q3 12 27 12zM596 1130q157 0 231 -14q83 -13 142 -63q59 -48 80.5 -138.5t21.5 -263.5v-620q0 -31 -35 -31h-131q-31 0 -31 31v604q0 164 -32 248q-15 36 -51 51
q-35 16 -67.5 20t-107.5 4h-280v-927q0 -31 -31 -31h-135q-31 0 -31 31v1034q0 13 4 20t9.5 9t17.5 4q157 32 426 32z" />
    <glyph glyph-name="Eng" unicode="&#x14a;" horiz-adv-x="1579" 
d="M1235 1550h145q31 0 31 -32v-1149q0 -166 -6 -271q-5 -109 -25.5 -204t-54.5 -144q-58 -87 -169 -127.5t-294 -36.5q-91 0 -203 17q-30 6 -30 37v98q0 31 30 31h193q200 0 276 61q78 60 72 217l-825 1208v-1224q0 -31 -31 -31h-145q-31 0 -31 31v1487q0 32 31 32h139
q53 -1 72.5 -11.5t44.5 -47.5l749 -1129v1156q0 32 31 32z" />
    <glyph glyph-name="eng" unicode="&#x14b;" horiz-adv-x="1204" 
d="M596 1130q157 0 231 -14q83 -13 142 -63q59 -48 80.5 -138.5t21.5 -263.5v-893q-1 -47 -15 -80.5t-33.5 -51t-53 -27t-59 -11.5t-64.5 -2q-80 0 -111 8q-30 6 -30 33v103q0 28 34 28h45q62 0 76 14t14 74v789q0 164 -32 248q-15 36 -51 51q-35 16 -67.5 20t-107.5 4h-280
v-927q0 -31 -31 -31h-135q-31 0 -31 31v1034q0 13 4 20t9.5 9t17.5 4q157 32 426 32z" />
    <glyph glyph-name="Omacron" unicode="&#x14c;" horiz-adv-x="1482" 
d="M477 1855h529q30 0 30 -30v-84q0 -31 -30 -31h-529q-31 0 -31 31v84q0 30 31 30zM1366 772q0 -242 -27.5 -383.5t-99.5 -232.5q-70 -92 -185.5 -129t-312.5 -37q-196 0 -311.5 37t-187.5 129q-70 91 -97.5 232.5t-27.5 383.5q0 460 127 625q126 164 497 164
q372 0 498 -164q127 -165 127 -625zM326 772q0 -360 77 -481q76 -119 338 -119t338 119q78 122 78 481q0 196 -15.5 300.5t-60.5 176.5q-43 73 -121.5 101t-218.5 28t-218 -28t-124 -101q-43 -72 -58 -177.5t-15 -299.5z" />
    <glyph glyph-name="omacron" unicode="&#x14d;" horiz-adv-x="1165" 
d="M317 1446h529q31 0 31 -31v-84q0 -31 -31 -31h-529q-30 0 -30 31v84q0 31 30 31zM342 1106q88 24 242 24q152 0 241 -24q179 -46 215 -264q19 -108 19 -283q0 -174 -19 -285q-17 -103 -72 -170t-143 -92q-93 -22 -241 -22q-151 0 -244 22q-176 50 -215 262
q-19 111 -19 285q0 175 19 283q39 218 217 264zM584 958q-183 0 -232 -75q-49 -76 -49 -324q0 -245 49 -321t232 -76q180 0 229 76t49 321q0 248 -49 324q-49 75 -229 75z" />
    <glyph glyph-name="Obreve" unicode="&#x14e;" horiz-adv-x="1482" 
d="M956 1946h66q35 0 29 -33q-21 -140 -88 -195q-63 -51 -222 -51q-158 0 -221 51q-65 53 -86 195q-6 33 29 33h65q26 0 35 -25q26 -66 64.5 -90.5t113.5 -24.5t113.5 24.5t67.5 90.5q9 25 34 25zM1366 772q0 -242 -27.5 -383.5t-99.5 -232.5q-70 -92 -185.5 -129
t-312.5 -37q-196 0 -311.5 37t-187.5 129q-70 91 -97.5 232.5t-27.5 383.5q0 460 127 625q126 164 497 164q372 0 498 -164q127 -165 127 -625zM326 772q0 -360 77 -481q76 -119 338 -119t338 119q78 122 78 481q0 196 -15.5 300.5t-60.5 176.5q-43 73 -121.5 101t-218.5 28
t-218 -28t-124 -101q-43 -72 -58 -177.5t-15 -299.5z" />
    <glyph glyph-name="obreve" unicode="&#x14f;" horiz-adv-x="1165" 
d="M797 1536h65q35 0 29 -33q-21 -139 -88 -194q-64 -52 -219 -52q-158 0 -222 52q-67 55 -88 194q-6 33 29 33h66q25 0 34 -25q29 -66 67.5 -90t113.5 -24t112 24t66 90q9 25 35 25zM342 1106q88 24 242 24q152 0 241 -24q179 -46 215 -264q19 -108 19 -283
q0 -174 -19 -285q-17 -103 -72 -170t-143 -92q-93 -22 -241 -22q-151 0 -244 22q-176 50 -215 262q-19 111 -19 285q0 175 19 283q39 218 217 264zM584 958q-183 0 -232 -75q-49 -76 -49 -324q0 -245 49 -321t232 -76q180 0 229 76t49 321q0 248 -49 324q-49 75 -229 75z
" />
    <glyph glyph-name="Ohungarumlaut" unicode="&#x150;" horiz-adv-x="1482" 
d="M670 1964h164q20 0 20 -20v-15q0 -14 -10 -24l-281 -254q-14 -11 -28 0l-33 24q-16 13 -6 29l149 248q6 12 25 12zM1032 1964h166q21 0 21 -20v-15q0 -6 -11 -24l-282 -254q-14 -12 -29 0l-33 24q-16 13 -6 29l150 248q6 12 24 12zM1366 772q0 -242 -27.5 -383.5
t-99.5 -232.5q-70 -92 -185.5 -129t-312.5 -37q-196 0 -311.5 37t-187.5 129q-70 91 -97.5 232.5t-27.5 383.5q0 460 127 625q126 164 497 164q372 0 498 -164q127 -165 127 -625zM326 772q0 -360 77 -481q76 -119 338 -119t338 119q78 122 78 481q0 196 -15.5 300.5
t-60.5 176.5q-43 73 -121.5 101t-218.5 28t-218 -28t-124 -101q-43 -72 -58 -177.5t-15 -299.5z" />
    <glyph glyph-name="ohungarumlaut" unicode="&#x151;" horiz-adv-x="1165" 
d="M504 1554h164q20 0 20 -20v-14q0 -15 -10 -25l-281 -254q-14 -11 -28 0l-33 25q-15 12 -6 28l149 248q6 12 25 12zM866 1554h164q21 0 21 -20v-14q0 -14 -11 -25l-280 -254q-14 -12 -29 0l-33 25q-15 12 -6 28l150 248q6 12 24 12zM342 1106q88 24 242 24q152 0 241 -24
q179 -46 215 -264q19 -108 19 -283q0 -174 -19 -285q-17 -103 -72 -170t-143 -92q-93 -22 -241 -22q-151 0 -244 22q-176 50 -215 262q-19 111 -19 285q0 175 19 283q39 218 217 264zM584 958q-183 0 -232 -75q-49 -76 -49 -324q0 -245 49 -321t232 -76q180 0 229 76t49 321
q0 248 -49 324q-49 75 -229 75z" />
    <glyph glyph-name="OE.001" unicode="&#x152;" horiz-adv-x="2142" 
d="M741 1561l713 -11h557q31 0 31 -30v-121q0 -31 -31 -31h-778v-526h709q30 0 30 -31v-119q0 -30 -30 -30h-709v-480h778q31 0 31 -30v-121q0 -31 -31 -31h-557l-713 -10q-195 -2 -312 35t-187 129q-70 91 -97.5 233.5t-27.5 384.5t27.5 385.5t97.5 237.5t186 131t313 35z
M1024 172v1206h-283q-140 0 -218 -28t-124 -101q-43 -72 -58 -177.5t-15 -299.5q0 -360 77 -481q76 -119 338 -119h283z" />
    <glyph glyph-name="oe" unicode="&#x153;" horiz-adv-x="1871" 
d="M1331 1130q275 0 363 -108q91 -111 94 -432v-60q0 -33 -15 -45t-61 -12h-651q6 -190 57 -250q52 -61 217 -61h336q31 0 31 -31v-90q0 -30 -29 -33q-135 -18 -342 -18q-276 0 -370 110q-91 -110 -377 -110q-159 0 -246 24t-141 90q-52 66 -71.5 167.5t-19.5 287.5
t19.5 287.5t71.5 167.5q54 67 140.5 91.5t246.5 24.5q286 0 377 -110q94 110 370 110zM303 559q0 -245 49 -321t232 -76q182 0 231 76t49 321q0 248 -49 324q-49 75 -231 75q-183 0 -232 -75q-49 -76 -49 -324zM1331 958q-162 0 -215 -65q-52 -64 -55 -260h530
q-3 197 -53 262q-48 63 -207 63z" />
    <glyph glyph-name="Racute" unicode="&#x154;" horiz-adv-x="1353" 
d="M707 1964h182q20 0 20 -20v-15q0 -14 -10 -24l-291 -256q-14 -11 -28 0l-41 26q-16 13 -7 29l150 248q6 12 25 12zM635 1561q191 0 297.5 -19.5t179.5 -73.5q76 -54 106.5 -148.5t30.5 -258.5q0 -244 -75 -344q-73 -101 -261 -125l347 -551q12 -17 5 -29t-30 -12h-131
q-31 0 -47.5 9.5t-34.5 35.5l-338 535h-309v-549q0 -19 -6 -25t-25 -6h-145q-19 0 -25 6t-6 25v1485q0 18 6 23t25 7q202 15 436 15zM616 1378h-241v-622h241q101 0 132 2q135 4 178 24q65 28 90 89.5t24 185.5q0 206 -82 264q-77 57 -342 57z" />
    <glyph glyph-name="racute" unicode="&#x155;" horiz-adv-x="749" 
d="M483 1554h183q20 0 20 -20v-14q0 -15 -10 -25l-291 -256q-15 -12 -29 0l-41 27q-15 12 -6 28l150 248q6 12 24 12zM461 1130q161 0 229 -22q31 -9 31 -35v-86q0 -32 -33 -29h-178q-106 0 -142 -22.5t-36 -91.5v-813q0 -31 -31 -31h-133q-31 0 -31 31v860q0 62 22.5 110.5
t55.5 73.5q38 26 82 37q66 18 164 18z" />
    <glyph glyph-name="uni0156" unicode="&#x156;" horiz-adv-x="1353" 
d="M635 1561q191 0 297.5 -19.5t179.5 -73.5q76 -54 106.5 -148.5t30.5 -258.5q0 -244 -75 -344q-73 -101 -261 -125l347 -551q12 -17 5 -29t-30 -12h-131q-31 0 -47.5 9.5t-34.5 35.5l-338 535h-309v-549q0 -19 -6 -25t-25 -6h-145q-19 0 -25 6t-6 25v1485q0 18 6 23t25 7
q202 15 436 15zM616 1378h-241v-622h241q101 0 132 2q135 4 178 24q65 28 90 89.5t24 185.5q0 206 -82 264q-77 57 -342 57zM623 -80h157q21 0 21 -20v-15q0 -7 -10 -24l-269 -252q-12 -9 -28 0l-37 26q-16 13 -6 29l147 244q6 12 25 12z" />
    <glyph glyph-name="uni0157" unicode="&#x157;" horiz-adv-x="749" 
d="M461 1130q161 0 229 -22q31 -9 31 -35v-86q0 -32 -33 -29h-178q-106 0 -142 -22.5t-36 -91.5v-813q0 -31 -31 -31h-133q-31 0 -31 31v860q0 62 22.5 110.5t55.5 73.5q38 26 82 37q66 18 164 18zM152 -80h157q21 0 21 -20v-15q0 -13 -11 -24l-266 -252q-12 -9 -28 0
l-39 26q-16 13 -6 29l147 244q6 12 25 12z" />
    <glyph glyph-name="Rcaron" unicode="&#x158;" horiz-adv-x="1353" 
d="M895 1958l37 -25q19 -12 6 -28l-180 -248q-9 -15 -35 -15h-88q-24 0 -33 15l-182 248q-11 14 6 28l37 25q15 9 31 0l186 -150l186 150q15 12 29 0zM635 1561q191 0 297.5 -19.5t179.5 -73.5q76 -54 106.5 -148.5t30.5 -258.5q0 -244 -75 -344q-73 -101 -261 -125
l347 -551q12 -17 5 -29t-30 -12h-131q-31 0 -47.5 9.5t-34.5 35.5l-338 535h-309v-549q0 -19 -6 -25t-25 -6h-145q-19 0 -25 6t-6 25v1485q0 18 6 23t25 7q202 15 436 15zM616 1378h-241v-622h241q101 0 132 2q135 4 178 24q65 28 90 89.5t24 185.5q0 206 -82 264
q-77 57 -342 57z" />
    <glyph glyph-name="rcaron" unicode="&#x159;" horiz-adv-x="749" 
d="M582 1548l36 -24q18 -15 7 -29l-183 -248q-8 -14 -34 -14h-86q-27 0 -35 14l-181 248q-14 14 7 29l34 24q16 9 31 0l187 -149l186 149q15 12 31 0zM459 1130q161 0 229 -22q31 -9 31 -35v-86q0 -32 -33 -29h-178q-106 0 -142 -22.5t-36 -91.5v-813q0 -31 -31 -31h-133
q-31 0 -31 31v860q0 62 22.5 110.5t55.5 73.5q38 26 82 37q66 18 164 18z" />
    <glyph glyph-name="Sacute" unicode="&#x15a;" horiz-adv-x="1236" 
d="M713 1964h180q20 0 20 -20v-15q0 -14 -10 -24l-289 -256q-14 -11 -28 0l-41 26q-16 13 -6 29l149 248q6 12 25 12zM649 1561q141 0 398 -31q28 -3 28 -27v-94q0 -31 -26 -31h-461q-269 0 -269 -182v-35q0 -81 32.5 -127t121.5 -82l447 -184q130 -54 182.5 -137.5
t52.5 -218.5v-66q0 -174 -106 -260q-46 -40 -119 -61q-127 -35 -316 -35q-247 0 -499 28q-25 6 -25 33v92q0 29 29 29h561q138 0 202 42t64 138v39q0 87 -33 136t-122 85l-486 197q-106 41 -149 125.5t-43 222.5v49q0 173 102 258q43 37 119 60q117 37 315 37z" />
    <glyph glyph-name="sacute" unicode="&#x15b;" horiz-adv-x="989" 
d="M530 1554h183q20 0 20 -20v-14q0 -15 -10 -25l-291 -256q-14 -12 -29 0l-41 27q-15 12 -6 28l150 248q6 12 24 12zM520 1130q161 0 314 -18q28 -3 28 -33v-88q0 -30 -31 -30h-380q-150 0 -150 -107v-27q0 -96 127 -143l272 -109q121 -47 163 -112.5t42 -175.5v-23
q0 -163 -96 -219q-94 -55 -317 -55q-219 0 -375 18q-31 3 -31 31v90q0 31 31 31h379q127 0 171 20.5t44 85.5v25q0 48 -26 78t-93 59l-291 111q-197 77 -197 292v43q0 162 127 213q109 43 289 43z" />
    <glyph glyph-name="Scircumflex" unicode="&#x15c;" horiz-adv-x="1236" 
d="M578 1964h88q26 0 34 -14l181 -248q14 -14 -7 -29l-36 -24q-14 -12 -29 0l-186 149l-187 -149q-15 -9 -30 0l-37 24q-18 15 -7 29l183 248q8 14 33 14zM649 1561q141 0 398 -31q28 -3 28 -27v-94q0 -31 -26 -31h-461q-269 0 -269 -182v-35q0 -81 32.5 -127t121.5 -82
l447 -184q130 -54 182.5 -137.5t52.5 -218.5v-66q0 -174 -106 -260q-46 -40 -119 -61q-127 -35 -316 -35q-247 0 -499 28q-25 6 -25 33v92q0 29 29 29h561q138 0 202 42t64 138v39q0 87 -33 136t-122 85l-486 197q-106 41 -149 125.5t-43 222.5v49q0 173 102 258
q43 37 119 60q117 37 315 37z" />
    <glyph glyph-name="scircumflex" unicode="&#x15d;" horiz-adv-x="989" 
d="M455 1554h88q27 0 35 -14l180 -248q11 -14 -6 -28l-37 -25q-14 -12 -29 0l-186 150l-189 -150q-14 -11 -28 0l-37 25q-17 14 -6 28l182 248q8 14 33 14zM520 1130q161 0 314 -18q28 -3 28 -33v-88q0 -30 -31 -30h-380q-150 0 -150 -107v-27q0 -96 127 -143l272 -109
q121 -47 163 -112.5t42 -175.5v-23q0 -163 -96 -219q-94 -55 -317 -55q-219 0 -375 18q-31 3 -31 31v90q0 31 31 31h379q127 0 171 20.5t44 85.5v25q0 48 -26 78t-93 59l-291 111q-197 77 -197 292v43q0 162 127 213q109 43 289 43z" />
    <glyph glyph-name="Scedilla" unicode="&#x15e;" horiz-adv-x="1236" 
d="M649 1561q113 0 398 -31q28 -3 28 -27v-94q0 -31 -26 -31h-461q-269 0 -269 -182v-35q0 -81 32.5 -127t121.5 -82l447 -184q130 -54 182.5 -137.5t52.5 -218.5v-66q0 -173 -97 -252.5t-296 -97.5q29 -116 29 -180q0 -86 -44.5 -121t-144.5 -35q-80 0 -123 16
q-24 9 -24 37v70q0 31 30 31h72q59 0 77.5 11t18.5 52t-16 113h-23q-245 0 -497 28q-27 6 -27 33v92q0 29 29 29h561q138 0 202 42t64 138v39q0 87 -33 136t-122 85l-486 197q-106 41 -149 125.5t-43 222.5v49q0 173 102 258q43 37 119 60q117 37 315 37z" />
    <glyph glyph-name="scedilla" unicode="&#x15f;" horiz-adv-x="989" 
d="M428 684l272 -109q121 -47 163 -112.5t42 -175.5v-23q0 -132 -63 -193t-205 -75q29 -98 29 -180q0 -86 -43.5 -121t-143.5 -35q-80 0 -123 16q-24 9 -24 37v70q0 31 28 31h74q59 0 77.5 11.5t18.5 51.5q0 25 -16 113h-22q-219 0 -375 18q-31 3 -31 31v90q0 31 31 31h379
q127 0 171 20.5t44 85.5v25q0 48 -26 78t-93 59l-291 111q-197 77 -197 292v43q0 162 127 213q109 43 289 43q161 0 314 -18q28 -3 28 -33v-88q0 -30 -31 -30h-380q-150 0 -150 -107v-27q0 -96 127 -143z" />
    <glyph glyph-name="Scaron" unicode="&#x160;" horiz-adv-x="1236" 
d="M838 1958l36 -25q20 -15 7 -28l-181 -248q-9 -15 -34 -15h-88q-24 0 -33 15l-183 248q-11 13 7 28l37 25q15 9 30 0l187 -150l186 150q15 12 29 0zM649 1561q141 0 398 -31q28 -3 28 -27v-94q0 -31 -26 -31h-461q-269 0 -269 -182v-35q0 -81 32.5 -127t121.5 -82
l447 -184q130 -54 182.5 -137.5t52.5 -218.5v-66q0 -174 -106 -260q-46 -40 -119 -61q-127 -35 -316 -35q-247 0 -499 28q-25 6 -25 33v92q0 29 29 29h561q138 0 202 42t64 138v39q0 87 -33 136t-122 85l-486 197q-106 41 -149 125.5t-43 222.5v49q0 173 102 258
q43 37 119 60q117 37 315 37z" />
    <glyph glyph-name="scaron" unicode="&#x161;" horiz-adv-x="989" 
d="M715 1548l37 -24q18 -15 6 -29l-180 -248q-8 -14 -35 -14h-88q-25 0 -33 14l-182 248q-12 14 6 29l37 24q14 11 28 0l189 -149l186 149q15 12 29 0zM520 1130q161 0 314 -18q28 -3 28 -33v-88q0 -30 -31 -30h-380q-150 0 -150 -107v-27q0 -96 127 -143l272 -109
q121 -47 163 -112.5t42 -175.5v-23q0 -163 -96 -219q-94 -55 -317 -55q-219 0 -375 18q-31 3 -31 31v90q0 31 31 31h379q127 0 171 20.5t44 85.5v25q0 48 -26 78t-93 59l-291 111q-197 77 -197 292v43q0 162 127 213q109 43 289 43z" />
    <glyph glyph-name="uni0162" unicode="&#x162;" horiz-adv-x="1255" 
d="M59 1550h1137q31 0 31 -30v-121q0 -31 -31 -31h-465v-1337q29 -168 29 -215q0 -86 -43.5 -121t-143.5 -35q-79 0 -122 16q-25 9 -25 37v70q0 31 29 31h73q59 0 78 11.5t19 51.5q0 30 -19 123h-51q-31 0 -31 31v1337h-465q-30 0 -30 31v121q0 30 30 30z" />
    <glyph glyph-name="uni0163" unicode="&#x163;" horiz-adv-x="700" 
d="M526 162h99q32 0 32 -29v-98q0 -27 -30 -33q-49 -12 -115 -12h-8q28 -106 28 -174q0 -86 -44 -121t-144 -35q-80 0 -123 16q-24 9 -24 37v70q0 31 30 31h74q59 0 76.5 11t17.5 52q0 25 -16 119q-91 14 -136.5 66.5t-45.5 160.5v738h-115q-31 0 -31 30v96q0 31 31 31h115
v246q0 27 26 33l135 33q35 9 35 -27v-285h215q33 0 33 -31v-96q0 -30 -33 -30h-215v-689q0 -68 25.5 -89t107.5 -21z" />
    <glyph glyph-name="Tcaron" unicode="&#x164;" horiz-adv-x="1255" 
d="M844 1958l37 -25q17 -14 6 -28l-182 -248q-9 -15 -33 -15h-88q-26 0 -35 15l-180 248q-13 16 6 28l37 25q14 11 28 0l187 -150l186 150q15 9 31 0zM59 1550h1137q31 0 31 -30v-121q0 -31 -31 -31h-465v-1337q0 -31 -31 -31h-145q-31 0 -31 31v1337h-465q-30 0 -30 31v121
q0 30 30 30z" />
    <glyph glyph-name="tcaron" unicode="&#x165;" horiz-adv-x="739" 
d="M643 1548h166q20 0 20 -20v-15q0 -14 -10 -24l-201 -252q-12 -15 -28 -2l-37 25q-12 9 -6 28l71 244q3 16 25 16zM223 1397l135 33q35 9 35 -27v-285h215q33 0 33 -31v-96q0 -30 -33 -30h-215v-689q0 -68 25.5 -89t107.5 -21h99q32 0 32 -29v-98q0 -27 -30 -33
q-49 -12 -115 -12t-96 2.5t-78 13.5q-69 18 -102 66.5t-39 150.5v738h-115q-31 0 -31 30v96q0 31 31 31h115v246q0 27 26 33z" />
    <glyph glyph-name="Tbar" unicode="&#x166;" horiz-adv-x="1300" 
d="M82 1550h1137q30 0 30 -30v-121q0 -31 -30 -31h-465v-487h329q31 0 31 -31v-82q0 -31 -31 -31h-329v-706q0 -31 -31 -31h-145q-31 0 -31 31v706h-330q-31 0 -31 31v82q0 31 31 31h330v487h-465q-31 0 -31 31v121q0 30 31 30z" />
    <glyph glyph-name="tbar" unicode="&#x167;" horiz-adv-x="702" 
d="M528 162h99q32 0 32 -29v-98q0 -27 -30 -33q-49 -12 -115 -12q-67 0 -96.5 2.5t-77.5 13.5q-69 18 -102 66.5t-39 150.5v320h-70q-31 0 -31 30v82q0 31 31 31h70v275h-115q-31 0 -31 30v96q0 31 31 31h115v246q0 27 26 33l135 33q35 9 35 -27v-285h215q33 0 33 -31v-96
q0 -30 -33 -30h-215v-275h166q31 0 31 -31v-82q0 -30 -31 -30h-166v-271q0 -68 25.5 -89t107.5 -21z" />
    <glyph glyph-name="Utilde" unicode="&#x168;" horiz-adv-x="1529" 
d="M621 1925q49 0 145 -41q100 -41 131 -41q37 0 56 14.5t38 55.5q15 31 39 22l47 -12q32 -10 23 -47q-37 -116 -76.5 -156.5t-114.5 -40.5q-47 0 -147 41t-131 41q-37 0 -56 -14t-38 -55q-13 -30 -37 -21l-49 12q-30 13 -21 46q35 118 73.5 157t117.5 39zM1198 1550h145
q31 0 31 -30v-748q0 -250 -26.5 -393t-96.5 -232t-180.5 -123t-306.5 -34q-152 0 -251 22t-173 72q-73 49 -113 143q-71 181 -71 545v748q0 30 30 30h146q30 0 30 -30v-748q0 -245 35 -373q35 -124 118.5 -175.5t248.5 -51.5q242 0 321 119q82 119 82 481v748q0 30 31 30z
" />
    <glyph glyph-name="utilde" unicode="&#x169;" horiz-adv-x="1206" 
d="M453 1516q47 0 147 -41t131 -41q37 0 55 14t37 55q16 32 39 23l47 -13q32 -10 23 -47q-36 -116 -75.5 -156t-115.5 -40q-47 0 -147 41t-131 41q-37 0 -56 -14.5t-36 -55.5q-16 -29 -39 -20l-49 12q-29 13 -21 45q35 118 74 157.5t117 39.5zM899 1120h135q31 0 31 -30
v-1037q0 -9 -1.5 -14.5t-7 -8.5t-9 -4t-13.5 -3q-165 -33 -426 -33q-152 0 -231 12q-82 15 -141 66q-60 49 -81.5 140t-21.5 263v619q0 30 35 30h131q31 0 31 -30v-605q0 -125 11 -186t44 -92q35 -29 73.5 -37t129.5 -8h280v928q0 30 31 30z" />
    <glyph glyph-name="Umacron" unicode="&#x16a;" horiz-adv-x="1529" 
d="M500 1855h528q31 0 31 -30v-84q0 -31 -31 -31h-528q-31 0 -31 31v84q0 30 31 30zM1198 1550h145q31 0 31 -30v-748q0 -250 -26.5 -393t-96.5 -232t-180.5 -123t-306.5 -34q-152 0 -251 22t-173 72q-73 49 -113 143q-71 181 -71 545v748q0 30 30 30h146q30 0 30 -30v-748
q0 -245 35 -373q35 -124 118.5 -175.5t248.5 -51.5q242 0 321 119q82 119 82 481v748q0 30 31 30z" />
    <glyph glyph-name="umacron" unicode="&#x16b;" horiz-adv-x="1206" 
d="M332 1446h528q31 0 31 -31v-84q0 -31 -31 -31h-528q-31 0 -31 31v84q0 31 31 31zM899 1120h135q31 0 31 -30v-1037q0 -9 -1.5 -14.5t-7 -8.5t-9 -4t-13.5 -3q-165 -33 -426 -33q-152 0 -231 12q-82 15 -141 66q-60 49 -81.5 140t-21.5 263v619q0 30 35 30h131
q31 0 31 -30v-605q0 -125 11 -186t44 -92q35 -29 73.5 -37t129.5 -8h280v928q0 30 31 30z" />
    <glyph glyph-name="Ubreve" unicode="&#x16c;" horiz-adv-x="1529" 
d="M979 1946h65q35 0 29 -33q-21 -140 -88 -195q-63 -51 -221 -51t-221 51q-65 53 -86 195q-6 33 28 33h66q26 0 35 -25q29 -67 66.5 -91t111.5 -24q75 0 113 24.5t67 90.5q9 25 35 25zM1198 1550h145q31 0 31 -30v-748q0 -250 -26.5 -393t-96.5 -232t-180.5 -123
t-306.5 -34q-152 0 -251 22t-173 72q-73 49 -113 143q-71 181 -71 545v748q0 30 30 30h146q30 0 30 -30v-748q0 -245 35 -373q35 -124 118.5 -175.5t248.5 -51.5q242 0 321 119q82 119 82 481v748q0 30 31 30z" />
    <glyph glyph-name="ubreve" unicode="&#x16d;" horiz-adv-x="1206" 
d="M811 1536h66q34 0 28 -33q-21 -139 -88 -194q-64 -52 -221 -52t-221 52q-65 53 -86 194q-6 33 28 33h66q26 0 35 -25q29 -66 66 -90t112 -24t113 24t67 90q9 25 35 25zM899 1120h135q31 0 31 -30v-1037q0 -9 -1.5 -14.5t-7 -8.5t-9 -4t-13.5 -3q-165 -33 -426 -33
q-152 0 -231 12q-82 15 -141 66q-60 49 -81.5 140t-21.5 263v619q0 30 35 30h131q31 0 31 -30v-605q0 -125 11 -186t44 -92q35 -29 73.5 -37t129.5 -8h280v928q0 30 31 30z" />
    <glyph glyph-name="Uring" unicode="&#x16e;" horiz-adv-x="1529" 
d="M764 2066q219 0 219 -208q0 -209 -219 -209q-217 0 -217 209q0 208 217 208zM891 1858q0 127 -127 127t-127 -127t127 -127t127 127zM1198 1550h145q31 0 31 -30v-748q0 -250 -26.5 -393t-96.5 -232t-180.5 -123t-306.5 -34q-152 0 -251 22t-173 72q-73 49 -113 143
q-71 181 -71 545v748q0 30 30 30h146q30 0 30 -30v-748q0 -245 35 -373q35 -124 118.5 -175.5t248.5 -51.5q242 0 321 119q82 119 82 481v748q0 30 31 30z" />
    <glyph glyph-name="uring" unicode="&#x16f;" horiz-adv-x="1206" 
d="M596 1657q219 0 219 -209t-219 -209q-217 0 -217 209t217 209zM723 1448q0 127 -127 127t-127 -127t127 -127t127 127zM899 1120h135q31 0 31 -30v-1037q0 -9 -1.5 -14.5t-7 -8.5t-9 -4t-13.5 -3q-165 -33 -426 -33q-152 0 -231 12q-82 15 -141 66q-60 49 -81.5 140
t-21.5 263v619q0 30 35 30h131q31 0 31 -30v-605q0 -125 11 -186t44 -92q35 -29 73.5 -37t129.5 -8h280v928q0 30 31 30z" />
    <glyph glyph-name="Uhungarumlaut" unicode="&#x170;" horiz-adv-x="1529" 
d="M633 1964h166q20 0 20 -20v-15q0 -14 -10 -24l-281 -254q-14 -11 -28 0l-35 24q-16 13 -6 29l149 248q6 12 25 12zM995 1964h166q21 0 21 -20v-15q0 -13 -11 -24l-280 -254q-15 -12 -29 0l-35 24q-16 13 -6 29l150 248q6 12 24 12zM1198 1550h145q31 0 31 -30v-748
q0 -250 -26.5 -393t-96.5 -232t-180.5 -123t-306.5 -34q-152 0 -251 22t-173 72q-73 49 -113 143q-71 181 -71 545v748q0 30 30 30h146q30 0 30 -30v-748q0 -245 35 -373q35 -124 118.5 -175.5t248.5 -51.5q242 0 321 119q82 119 82 481v748q0 30 31 30z" />
    <glyph glyph-name="uhungarumlaut" unicode="&#x171;" horiz-adv-x="1206" 
d="M492 1554h163q21 0 21 -20v-14q0 -15 -10 -25l-281 -254q-15 -12 -29 0l-32 25q-16 13 -7 28l150 248q6 12 25 12zM854 1554h166q20 0 20 -20v-14q0 -8 -10 -25l-282 -254q-15 -12 -29 0l-33 25q-15 12 -6 28l149 248q6 12 25 12zM899 1120h135q31 0 31 -30v-1037
q0 -9 -1.5 -14.5t-7 -8.5t-9 -4t-13.5 -3q-165 -33 -426 -33q-152 0 -231 12q-82 15 -141 66q-60 49 -81.5 140t-21.5 263v619q0 30 35 30h131q31 0 31 -30v-605q0 -125 11 -186t44 -92q35 -29 73.5 -37t129.5 -8h280v928q0 30 31 30z" />
    <glyph glyph-name="Uogonek" unicode="&#x172;" horiz-adv-x="1529" 
d="M1198 1550h145q31 0 31 -30v-748q0 -237 -23.5 -376t-84.5 -230q-60 -90 -158 -129t-266 -45q-19 -84 -19 -115q0 -40 19 -51.5t78 -11.5h73q31 0 31 -31v-70q0 -28 -25 -37q-43 -16 -122 -16q-100 0 -144.5 35t-44.5 121q0 82 27 174q-177 5 -280 41.5t-167 126.5
q-64 91 -88 231t-24 383v748q0 30 30 30h146q30 0 30 -30v-748q0 -245 35 -373q35 -124 118.5 -175.5t248.5 -51.5q242 0 321 119q82 119 82 481v748q0 30 31 30z" />
    <glyph glyph-name="uogonek" unicode="&#x173;" horiz-adv-x="1206" 
d="M899 1120h135q31 0 31 -30v-1037q0 -9 -1.5 -14.5t-7 -8.5t-9 -4t-13.5 -3l-131 -21q-20 -64 -20 -125q0 -40 18.5 -51.5t77.5 -11.5h74q30 0 30 -31v-70q0 -28 -24 -37q-43 -16 -123 -16q-100 0 -144 35t-44 121q0 80 26 178q-86 -4 -166 -4q-152 0 -231 12
q-82 15 -141 66q-60 49 -81.5 140t-21.5 263v619q0 30 35 30h131q31 0 31 -30v-605q0 -125 11 -186t44 -92q35 -29 73.5 -37t129.5 -8h280v928q0 30 31 30z" />
    <glyph glyph-name="Wcircumflex" unicode="&#x174;" horiz-adv-x="2232" 
d="M1069 1964h88q27 0 35 -14l180 -248q13 -16 -6 -29l-37 -24q-15 -12 -29 0l-186 149l-186 -149q-16 -9 -31 0l-37 24q-18 15 -6 29l182 248q8 14 33 14zM1974 1550h162q33 0 27 -32l-279 -1289q-35 -159 -80 -198q-47 -41 -186 -41q-156 0 -201 39q-42 39 -82 200
l-221 928l-221 -928q-25 -108 -53 -159q-24 -44 -74 -62t-158 -18q-141 0 -188 41q-42 37 -78 198l-276 1289q-6 32 24 32h162q19 0 27 -32l260 -1229q13 -67 28 -88t47 -21q41 0 56 18.5t32 90.5l293 1165q9 33 37 33h164q26 0 35 -33l293 -1165q19 -73 33 -91t55 -18
q33 0 48 20.5t28 88.5l260 1229q8 32 26 32z" />
    <glyph glyph-name="wcircumflex" unicode="&#x175;" horiz-adv-x="1712" 
d="M813 1554h86q27 0 35 -14l182 -248q11 -14 -8 -28l-35 -25q-15 -12 -31 0l-186 150l-186 -150q-16 -12 -31 0l-35 25q-19 14 -8 28l182 248q8 14 35 14zM1475 1120h147q17 0 22 -6.5t3 -26.5l-181 -866q-36 -155 -73 -192q-39 -39 -166 -39q-131 0 -166 35
q-35 38 -72 196l-133 574l-133 -574q-37 -158 -72 -196q-35 -35 -166 -35q-124 0 -166 39q-37 37 -73 192l-180 866q-2 21 2.5 27t21.5 6h150q15 0 24 -33l168 -841q12 -51 22 -64.5t33 -13.5q26 0 35 12t21 66l198 809q8 32 29 32h172q21 0 29 -32l198 -809q12 -54 21 -66
t35 -12q23 0 33 13.5t22 64.5l168 841q4 20 9.5 26.5t17.5 6.5z" />
    <glyph glyph-name="Ycircumflex" unicode="&#x176;" horiz-adv-x="1351" 
d="M633 1964h86q27 0 35 -14l182 -248q12 -14 -6 -29l-37 -24q-15 -12 -31 0l-186 149l-187 -149q-15 -9 -30 0l-35 24q-20 15 -6 29l180 248q8 14 35 14zM1155 1550h158q45 0 22 -45l-555 -1034v-440q0 -31 -30 -31h-148q-31 0 -31 31v440l-555 1034q-23 45 23 45h160
q36 0 55 -32l422 -822l424 822q14 32 55 32z" />
    <glyph glyph-name="ycircumflex" unicode="&#x177;" horiz-adv-x="1208" 
d="M573 1554h86q27 0 35 -14l183 -248q11 -13 -7 -28l-36 -25q-16 -12 -31 0l-187 150l-186 -150q-16 -9 -31 0l-34 25q-20 14 -9 28l183 248q8 14 34 14zM901 1120h135q31 0 31 -30v-988q0 -165 -19 -255.5t-71 -151.5q-53 -62 -141.5 -86.5t-241.5 -24.5q-163 0 -309 19
q-29 3 -29 32v89q0 30 31 30h303q170 0 225 49t55 191v12q-109 -16 -270 -16q-288 0 -379 110q-90 116 -90 449v541q0 30 31 30h133q31 0 31 -30v-529q0 -247 49 -323q52 -76 237 -76q152 0 258 14v914q0 30 31 30z" />
    <glyph glyph-name="Ydieresis" unicode="&#x178;" horiz-adv-x="1351" 
d="M485 1923q125 0 125 -121q0 -125 -125 -125q-127 0 -127 125q0 121 127 121zM868 1923q125 0 125 -121q0 -125 -125 -125q-127 0 -127 125q0 121 127 121zM1155 1550h158q45 0 22 -45l-555 -1034v-440q0 -31 -30 -31h-148q-31 0 -31 31v440l-555 1034q-23 45 23 45h160
q36 0 55 -32l422 -822l424 822q14 32 55 32z" />
    <glyph glyph-name="Zacute" unicode="&#x179;" horiz-adv-x="1339" 
d="M694 1964h183q20 0 20 -20v-15q0 -14 -10 -24l-291 -256q-14 -12 -29 0l-41 26q-16 13 -6 29l150 248q6 12 24 12zM119 1550h1106q30 0 30 -30v-103q0 -19 -14 -39l-905 -1196h905q33 0 33 -30v-121q0 -31 -33 -31h-1145q-30 0 -30 31l-3 100q0 21 15 39l907 1198h-864
q-33 0 -33 29l-2 123q0 30 33 30z" />
    <glyph glyph-name="zacute" unicode="&#x17a;" horiz-adv-x="1050" 
d="M549 1554h180q21 0 21 -20v-14q0 -14 -11 -25l-290 -256q-15 -12 -29 0l-39 27q-15 12 -6 28l149 248q6 12 25 12zM123 1120h809q33 0 33 -30v-50q0 -17 -13 -36l-604 -832h604q33 0 33 -31v-110q0 -31 -33 -31h-856q-33 0 -33 31v57q0 22 15 37l598 823h-553
q-33 0 -33 31v111q0 30 33 30z" />
    <glyph glyph-name="Zdotaccent" unicode="&#x17b;" horiz-adv-x="1339" 
d="M670 1925q125 0 125 -123q0 -125 -125 -125q-129 0 -129 125q0 123 129 123zM119 1550h1106q30 0 30 -30v-103q0 -19 -14 -39l-905 -1196h905q33 0 33 -30v-121q0 -31 -33 -31h-1145q-30 0 -30 31l-3 100q0 21 15 39l907 1198h-864q-33 0 -33 29l-2 123q0 30 33 30z" />
    <glyph glyph-name="zdotaccent" unicode="&#x17c;" horiz-adv-x="1050" 
d="M649 1393q0 -125 -127 -125t-127 125q0 123 127 123t127 -123zM123 1120h809q33 0 33 -30v-50q0 -17 -13 -36l-604 -832h604q33 0 33 -31v-110q0 -31 -33 -31h-856q-33 0 -33 31v57q0 22 15 37l598 823h-553q-33 0 -33 31v111q0 30 33 30z" />
    <glyph glyph-name="Zcaron.001" unicode="&#x17d;" horiz-adv-x="1339" 
d="M885 1958l37 -25q19 -12 6 -28l-180 -248q-9 -15 -35 -15h-88q-24 0 -33 15l-182 248q-11 14 6 28l37 25q15 9 30 0l187 -150l186 150q15 12 29 0zM119 1550h1106q30 0 30 -30v-103q0 -19 -14 -39l-905 -1196h905q33 0 33 -30v-121q0 -31 -33 -31h-1145q-30 0 -30 31
l-3 100q0 21 15 39l907 1198h-864q-33 0 -33 29l-2 123q0 30 33 30z" />
    <glyph glyph-name="zcaron.001" unicode="&#x17e;" horiz-adv-x="1050" 
d="M739 1548l37 -24q18 -15 6 -29l-182 -248q-8 -14 -33 -14h-88q-27 0 -35 14l-180 248q-14 14 6 29l37 24q14 12 29 0l186 -149l187 149q15 9 30 0zM123 1120h809q33 0 33 -30v-50q0 -17 -13 -36l-604 -832h604q33 0 33 -31v-110q0 -31 -33 -31h-856q-33 0 -33 31v57
q0 22 15 37l598 823h-553q-33 0 -33 31v111q0 30 33 30z" />
    <glyph glyph-name="florin" unicode="&#x192;" horiz-adv-x="1138" 
d="M909 1561q88 0 176 -21q36 -6 33 -37l-14 -88q-3 -26 -31 -26h-110q-102 0 -143.5 -22.5t-51.5 -92.5l-41 -297h242q30 0 30 -31v-96q0 -31 -30 -31h-264l-82 -594q-20 -123 -99 -184q-34 -24 -80 -35q-63 -16 -151 -16q-81 0 -176 18q-36 6 -33 37l12 90q3 27 31 27h113
q101 0 141.5 22t50.5 92l78 543h-141q-31 0 -31 35v96q0 27 31 27h163l48 348q22 163 137 205q53 19 92 25t100 6z" />
    <glyph glyph-name="uni01CD" unicode="&#x1cd;" horiz-adv-x="1388" 
d="M907 1958l35 -25q19 -14 8 -28l-182 -248q-9 -15 -35 -15h-86q-26 0 -35 15l-182 248q-11 14 8 28l35 25q16 12 31 0l186 -150l187 150q15 12 30 0zM690 1561q158 0 205 -41q48 -40 92 -199l350 -1288q4 -20 -0.5 -26.5t-23.5 -6.5h-160q-12 0 -17.5 6.5t-9.5 26.5
l-127 452h-616l-129 -452q-4 -20 -9.5 -26.5t-17.5 -6.5h-159q-19 0 -24 6.5t-1 26.5l363 1288q48 161 92 199q50 41 192 41zM688 1380q-42 0 -55 -16q-12 -15 -33 -92l-168 -606h518l-159 606q-21 74 -37 90q-15 18 -66 18z" />
    <glyph glyph-name="uni01CE" unicode="&#x1ce;" horiz-adv-x="1093" 
d="M748 1548l36 -24q21 -15 7 -29l-181 -248q-8 -14 -35 -14h-88q-24 0 -32 14l-183 248q-11 14 7 29l36 24q16 9 31 0l186 -149l187 149q14 12 29 0zM498 1130q240 0 351.5 -77t111.5 -244v-717q0 -43 -39 -57q-116 -45 -455 -45q-216 0 -305 65q-90 69 -90 264
q0 173 86.5 244.5t275.5 71.5l330 2v137q0 97 -62 140.5t-204 43.5h-308q-19 0 -24.5 6t-5.5 25v84q0 17 5 22.5t23 10.5q144 24 310 24zM764 182v295h-326q-90 0 -131 -35t-41 -118q0 -97 51.5 -131.5t184.5 -34.5q168 0 262 24z" />
    <glyph glyph-name="uni01CF" unicode="&#x1cf;" horiz-adv-x="542" 
d="M483 1958l37 -25q17 -14 6 -28l-180 -248q-15 -15 -35 -15h-88q-20 0 -35 15l-180 248q-11 14 6 28l37 25q14 12 29 0l188 -150l187 150q14 11 28 0zM199 1550h145q31 0 31 -32v-1487q0 -31 -31 -31h-145q-31 0 -31 31v1487q0 32 31 32z" />
    <glyph glyph-name="uni01D0" unicode="&#x1d0;" horiz-adv-x="479" 
d="M455 1548l37 -24q18 -15 6 -29l-181 -248q-8 -14 -34 -14h-88q-25 0 -33 14l-182 248q-12 14 6 29l37 24q14 11 28 0l189 -149l186 149q14 12 29 0zM172 1120h135q31 0 31 -30v-1059q0 -31 -31 -31h-135q-31 0 -31 31v1059q0 30 31 30z" />
    <glyph glyph-name="uni01D1" unicode="&#x1d1;" horiz-adv-x="1482" 
d="M958 1958l37 -25q17 -14 6 -28l-182 -248q-9 -15 -33 -15h-88q-25 0 -34 15l-181 248q-14 14 6 28l35 25q16 9 31 0l186 -150l187 150q15 12 30 0zM1366 772q0 -242 -27.5 -383.5t-99.5 -232.5q-70 -92 -185.5 -129t-312.5 -37q-196 0 -311.5 37t-187.5 129
q-70 91 -97.5 232.5t-27.5 383.5q0 460 127 625q126 164 497 164q372 0 498 -164q127 -165 127 -625zM326 772q0 -360 77 -481q76 -119 338 -119t338 119q78 122 78 481q0 196 -15.5 300.5t-60.5 176.5q-43 73 -121.5 101t-218.5 28t-218 -28t-124 -101q-43 -72 -58 -177.5
t-15 -299.5z" />
    <glyph glyph-name="uni01D2" unicode="&#x1d2;" horiz-adv-x="1165" 
d="M799 1548l37 -24q18 -15 6 -29l-180 -248q-8 -14 -35 -14h-88q-25 0 -33 14l-182 248q-12 14 6 29l37 24q14 11 28 0l189 -149l186 149q14 12 29 0zM342 1106q88 24 242 24q152 0 241 -24q179 -46 215 -264q19 -108 19 -283q0 -174 -19 -285q-17 -103 -72 -170t-143 -92
q-93 -22 -241 -22q-151 0 -244 22q-176 50 -215 262q-19 111 -19 285q0 175 19 283q39 218 217 264zM584 958q-183 0 -232 -75q-49 -76 -49 -324q0 -245 49 -321t232 -76q180 0 229 76t49 321q0 248 -49 324q-49 75 -229 75z" />
    <glyph glyph-name="uni01D3" unicode="&#x1d3;" horiz-adv-x="1529" 
d="M981 1958l37 -25q17 -14 6 -28l-182 -248q-9 -15 -33 -15h-88q-26 0 -35 15l-180 248q-13 16 6 28l37 25q15 12 29 0l186 -150l186 150q16 9 31 0zM1198 1550h145q31 0 31 -30v-748q0 -250 -26.5 -393t-96.5 -232t-180.5 -123t-306.5 -34q-152 0 -251 22t-173 72
q-73 49 -113 143q-71 181 -71 545v748q0 30 30 30h146q30 0 30 -30v-748q0 -245 35 -373q35 -124 118.5 -175.5t248.5 -51.5q242 0 321 119q82 119 82 481v748q0 30 31 30z" />
    <glyph glyph-name="uni01D4" unicode="&#x1d4;" horiz-adv-x="1206" 
d="M813 1548l37 -24q18 -15 6 -29l-182 -248q-8 -14 -33 -14h-88q-27 0 -35 14l-180 248q-12 14 6 29l37 24q14 12 29 0l186 -149l186 149q16 9 31 0zM899 1120h135q31 0 31 -30v-1037q0 -9 -1.5 -14.5t-7 -8.5t-9 -4t-13.5 -3q-165 -33 -426 -33q-152 0 -231 12
q-82 15 -141 66q-60 49 -81.5 140t-21.5 263v619q0 30 35 30h131q31 0 31 -30v-605q0 -125 11 -186t44 -92q35 -29 73.5 -37t129.5 -8h280v928q0 30 31 30z" />
    <glyph glyph-name="uni01D5" unicode="&#x1d5;" horiz-adv-x="1529" 
d="M500 2187h528q31 0 31 -30v-84q0 -31 -31 -31h-528q-31 0 -31 31v84q0 30 31 30zM575 1923q123 0 123 -121q0 -125 -123 -125q-129 0 -129 125q0 121 129 121zM1081 1802q0 -125 -125 -125t-125 125q0 121 125 121t125 -121zM1198 1550h145q31 0 31 -30v-748
q0 -250 -26.5 -393t-96.5 -232t-180.5 -123t-306.5 -34q-152 0 -251 22t-173 72q-73 49 -113 143q-71 181 -71 545v748q0 30 30 30h146q30 0 30 -30v-748q0 -245 35 -373q35 -124 118.5 -175.5t248.5 -51.5q242 0 321 119q82 119 82 481v748q0 30 31 30z" />
    <glyph glyph-name="uni01D6" unicode="&#x1d6;" horiz-adv-x="1206" 
d="M332 1757h528q31 0 31 -31v-84q0 -30 -31 -30h-528q-31 0 -31 30v84q0 31 31 31zM408 1513q122 0 122 -120q0 -125 -122 -125q-127 0 -127 125q0 120 127 120zM913 1393q0 -125 -125 -125q-124 0 -124 125q0 120 124 120q125 0 125 -120zM899 1120h135q31 0 31 -30v-1037
q0 -9 -1.5 -14.5t-7 -8.5t-9 -4t-13.5 -3q-165 -33 -426 -33q-152 0 -231 12q-82 15 -141 66q-60 49 -81.5 140t-21.5 263v619q0 30 35 30h131q31 0 31 -30v-605q0 -125 11 -186t44 -92q35 -29 73.5 -37t129.5 -8h280v928q0 30 31 30z" />
    <glyph glyph-name="uni01D7" unicode="&#x1d7;" horiz-adv-x="1529" 
d="M883 2277h182q20 0 20 -20v-14q0 -15 -10 -25l-291 -256q-14 -11 -28 0l-41 27q-15 12 -6 28l149 248q6 12 25 12zM575 1923q123 0 123 -121q0 -125 -123 -125q-129 0 -129 125q0 121 129 121zM1081 1802q0 -125 -125 -125t-125 125q0 121 125 121t125 -121zM1198 1550
h145q31 0 31 -30v-748q0 -250 -26.5 -393t-96.5 -232t-180.5 -123t-306.5 -34q-152 0 -251 22t-173 72q-73 49 -113 143q-71 181 -71 545v748q0 30 30 30h146q30 0 30 -30v-748q0 -245 35 -373q35 -124 118.5 -175.5t248.5 -51.5q242 0 321 119q82 119 82 481v748
q0 30 31 30z" />
    <glyph glyph-name="uni01D8" unicode="&#x1d8;" horiz-adv-x="1206" 
d="M727 1874h182q21 0 21 -21v-14q0 -14 -10 -24l-291 -259q-13 -10 -29 0l-41 29q-16 13 -6 29l149 248q6 12 25 12zM408 1513q122 0 122 -120q0 -125 -122 -125q-127 0 -127 125q0 120 127 120zM913 1393q0 -125 -125 -125q-124 0 -124 125q0 120 124 120q125 0 125 -120z
M899 1120h135q31 0 31 -30v-1037q0 -9 -1.5 -14.5t-7 -8.5t-9 -4t-13.5 -3q-165 -33 -426 -33q-152 0 -231 12q-82 15 -141 66q-60 49 -81.5 140t-21.5 263v619q0 30 35 30h131q31 0 31 -30v-605q0 -125 11 -186t44 -92q35 -29 73.5 -37t129.5 -8h280v928q0 30 31 30z" />
    <glyph glyph-name="uni01D9" unicode="&#x1d9;" horiz-adv-x="1529" 
d="M981 2288l37 -25q18 -15 6 -31l-182 -245q-10 -17 -33 -17h-88q-25 0 -35 17l-180 245q-16 16 6 31l37 25q15 12 29 0l186 -152l186 152q16 9 31 0zM575 1923q123 0 123 -121q0 -125 -123 -125q-129 0 -129 125q0 121 129 121zM1081 1802q0 -125 -125 -125t-125 125
q0 121 125 121t125 -121zM1198 1550h145q31 0 31 -30v-748q0 -250 -26.5 -393t-96.5 -232t-180.5 -123t-306.5 -34q-152 0 -251 22t-173 72q-73 49 -113 143q-71 181 -71 545v748q0 30 30 30h146q30 0 30 -30v-748q0 -245 35 -373q35 -124 118.5 -175.5t248.5 -51.5
q242 0 321 119q82 119 82 481v748q0 30 31 30z" />
    <glyph glyph-name="uni01DA" unicode="&#x1da;" horiz-adv-x="1206" 
d="M813 1870l37 -25q17 -14 6 -28l-182 -248q-9 -15 -33 -15h-88q-26 0 -35 15l-180 248q-11 14 6 28l37 25q14 12 29 0l186 -150l186 150q16 9 31 0zM408 1513q122 0 122 -120q0 -125 -122 -125q-127 0 -127 125q0 120 127 120zM913 1393q0 -125 -125 -125q-124 0 -124 125
q0 120 124 120q125 0 125 -120zM899 1120h135q31 0 31 -30v-1037q0 -9 -1.5 -14.5t-7 -8.5t-9 -4t-13.5 -3q-165 -33 -426 -33q-152 0 -231 12q-82 15 -141 66q-60 49 -81.5 140t-21.5 263v619q0 30 35 30h131q31 0 31 -30v-605q0 -125 11 -186t44 -92q35 -29 73.5 -37
t129.5 -8h280v928q0 30 31 30z" />
    <glyph glyph-name="uni01DB" unicode="&#x1db;" horiz-adv-x="1529" 
d="M471 2277h182q19 0 25 -12l149 -248q9 -16 -6 -28l-41 -27q-14 -11 -28 0l-291 256q-10 10 -10 25v14q0 20 20 20zM575 1923q123 0 123 -121q0 -125 -123 -125q-129 0 -129 125q0 121 129 121zM1081 1802q0 -125 -125 -125t-125 125q0 121 125 121t125 -121zM1198 1550
h145q31 0 31 -30v-748q0 -250 -26.5 -393t-96.5 -232t-180.5 -123t-306.5 -34q-152 0 -251 22t-173 72q-73 49 -113 143q-71 181 -71 545v748q0 30 30 30h146q30 0 30 -30v-748q0 -245 35 -373q35 -124 118.5 -175.5t248.5 -51.5q242 0 321 119q82 119 82 481v748
q0 30 31 30z" />
    <glyph glyph-name="uni01DC" unicode="&#x1dc;" horiz-adv-x="1206" 
d="M285 1874h182q19 0 25 -12l149 -248q10 -16 -6 -29l-41 -29q-16 -10 -29 0l-291 259q-10 17 -10 24v14q0 21 21 21zM408 1513q122 0 122 -120q0 -125 -122 -125q-127 0 -127 125q0 120 127 120zM913 1393q0 -125 -125 -125q-124 0 -124 125q0 120 124 120q125 0 125 -120
zM899 1120h135q31 0 31 -30v-1037q0 -9 -1.5 -14.5t-7 -8.5t-9 -4t-13.5 -3q-165 -33 -426 -33q-152 0 -231 12q-82 15 -141 66q-60 49 -81.5 140t-21.5 263v619q0 30 35 30h131q31 0 31 -30v-605q0 -125 11 -186t44 -92q35 -29 73.5 -37t129.5 -8h280v928q0 30 31 30z" />
    <glyph glyph-name="Aringacute" unicode="&#x1fa;" horiz-adv-x="1388" 
d="M748 2251h182q20 0 20 -21v-14q0 -18 -10 -25l-170 -135q137 -30 137 -198q0 -209 -217 -209t-217 209q0 166 143 200l107 180q7 13 25 13zM817 1858q0 127 -127 127t-127 -127t127 -127t127 127zM690 1561q158 0 205 -41q48 -40 92 -199l350 -1288q4 -20 -0.5 -26.5
t-23.5 -6.5h-160q-12 0 -17.5 6.5t-9.5 26.5l-127 452h-616l-129 -452q-4 -20 -9.5 -26.5t-17.5 -6.5h-159q-19 0 -24 6.5t-1 26.5l363 1288q48 161 92 199q50 41 192 41zM690 1380q-42 0 -55.5 -17t-32.5 -91l-168 -606h518l-159 606q-21 74 -37 90q-15 18 -66 18z" />
    <glyph glyph-name="aringacute" unicode="&#x1fb;" horiz-adv-x="1093" 
d="M590 1841h182q21 0 21 -20v-15q0 -17 -11 -24l-172 -135q140 -35 140 -199q0 -209 -218 -209q-217 0 -217 209q0 166 142 201l108 180q6 12 25 12zM659 1448q0 127 -127 127q-126 0 -126 -127t126 -127q127 0 127 127zM498 1130q240 0 351.5 -77t111.5 -244v-717
q0 -43 -39 -57q-116 -45 -455 -45q-216 0 -305 65q-90 69 -90 264q0 173 86.5 244.5t275.5 71.5l330 2v137q0 97 -62 140.5t-204 43.5h-308q-19 0 -24.5 6t-5.5 25v84q0 17 5 22.5t23 10.5q144 24 310 24zM764 182v295h-326q-90 0 -131 -35t-41 -118q0 -97 51.5 -131.5
t184.5 -34.5q168 0 262 24z" />
    <glyph glyph-name="AEacute" unicode="&#x1fc;" horiz-adv-x="1982" 
d="M1194 1964h180q21 0 21 -20v-15q0 -13 -11 -24l-290 -256q-14 -12 -29 0l-39 26q-16 13 -6 29l149 248q6 12 25 12zM690 1561l457 -11h704q31 0 31 -30v-121q0 -31 -31 -31h-671v-526h602q30 0 30 -31v-119q0 -30 -30 -30h-602v-480h671q31 0 31 -30v-121q0 -31 -31 -31
h-850q-30 0 -30 31v454h-586l-129 -452q-4 -20 -9.5 -26.5t-17.5 -6.5h-159q-19 0 -24 6.5t-3 26.5l365 1288q48 161 92 199q50 41 190 41zM971 666v714h-275q-46 0 -61 -18q-13 -15 -35 -96l-166 -600h537z" />
    <glyph glyph-name="aeacute" unicode="&#x1fd;" horiz-adv-x="1771" 
d="M987 1554h180q21 0 21 -20v-14q0 -15 -10 -25l-291 -256q-13 -10 -29 0l-39 27q-15 12 -6 28l150 248q6 12 24 12zM1231 1130q273 0 362 -108q92 -112 95 -432v-60q0 -33 -14 -45t-60 -12h-651q6 -190 57 -250q52 -61 217 -61h336q31 0 31 -31v-90q0 -30 -29 -33
q-135 -18 -344 -18q-90 0 -197 22q-97 23 -149 62q-159 -84 -416 -84q-215 0 -307 65q-90 69 -90 264q0 173 86.5 244.5t277.5 71.5l330 2v137q0 97 -63 140.5t-205 43.5h-305q-19 0 -25 6t-6 25v84q0 17 5 22.5t23 10.5q144 24 308 24q268 0 374 -100q97 100 359 100z
M1231 958q-164 0 -215 -63q-50 -65 -53 -262h528q-3 199 -53 260q-50 65 -207 65zM766 477h-326q-92 0 -132 -34.5t-40 -118.5q0 -97 50.5 -131.5t183.5 -34.5q199 0 307 51q-43 90 -43 268z" />
    <glyph glyph-name="Oslashacute" unicode="&#x1fe;" horiz-adv-x="1482" 
d="M864 1964h183q20 0 20 -20v-15q0 -14 -10 -24l-291 -256q-14 -12 -29 0l-41 26q-16 13 -6 29l150 248q6 12 24 12zM1366 772q0 -242 -27.5 -383.5t-99.5 -232.5q-70 -92 -185.5 -129t-312.5 -37q-269 0 -401 78l-61 -84q-19 -29 -41 -7l-70 48q-23 14 -8 41l71 100
q-114 170 -114 606q0 460 127 625q126 164 497 164q274 0 408 -84l53 73q23 29 43 9l70 -48q24 -15 6 -43l-66 -94q111 -164 111 -602zM741 1378q-140 0 -218 -28t-124 -101q-43 -72 -58 -177.5t-15 -299.5q0 -291 45 -410l661 945q-89 71 -291 71zM1157 772q0 289 -41 404
l-659 -938q91 -66 284 -66q262 0 338 119q78 122 78 481z" />
    <glyph glyph-name="oslashacute" unicode="&#x1ff;" horiz-adv-x="1165" 
d="M678 1554h182q21 0 21 -20v-14q0 -14 -11 -25l-290 -256q-15 -12 -29 0l-41 27q-15 12 -6 28l149 248q6 12 25 12zM1059 559q0 -189 -18.5 -289.5t-71.5 -165.5q-54 -66 -140 -90t-245 -24q-204 0 -295 45l-39 -55q-19 -29 -41 -7l-70 47q-27 15 -8 41l47 68
q-72 116 -72 430q0 186 19.5 287.5t71.5 167.5q54 67 140.5 91.5t246.5 24.5q179 0 272 -34l33 45q22 29 43 8l69 -47q25 -16 7 -43l-35 -49q86 -109 86 -451zM584 958q-183 0 -232 -75q-49 -76 -49 -324q0 -168 14 -231l428 608q-61 22 -161 22zM840 821l-441 -626
q56 -33 185 -33q180 0 229 76t49 321q0 188 -22 262z" />
    <glyph glyph-name="uni0218" unicode="&#x218;" horiz-adv-x="1236" 
d="M649 1561q141 0 398 -31q28 -3 28 -27v-94q0 -31 -26 -31h-461q-269 0 -269 -182v-35q0 -81 32.5 -127t121.5 -82l447 -184q130 -54 182.5 -137.5t52.5 -218.5v-66q0 -174 -106 -260q-46 -40 -119 -61q-127 -35 -316 -35q-247 0 -499 28q-25 6 -25 33v92q0 29 29 29h561
q138 0 202 42t64 138v39q0 87 -33 136t-122 85l-486 197q-106 41 -149 125.5t-43 222.5v49q0 173 102 258q43 37 119 60q117 37 315 37zM543 -80h155q21 0 21 -20v-15q0 -14 -10 -24l-267 -252q-12 -9 -28 0l-37 26q-16 13 -6 29l147 244q6 12 25 12z" />
    <glyph glyph-name="uni0219" unicode="&#x219;" horiz-adv-x="989" 
d="M520 1130q161 0 314 -18q28 -3 28 -33v-88q0 -30 -31 -30h-380q-150 0 -150 -107v-27q0 -96 127 -143l272 -109q121 -47 163 -112.5t42 -175.5v-23q0 -163 -96 -219q-94 -55 -317 -55q-219 0 -375 18q-31 3 -31 31v90q0 31 31 31h379q127 0 171 20.5t44 85.5v25
q0 48 -26 78t-93 59l-291 111q-197 77 -197 292v43q0 162 127 213q109 43 289 43zM420 -80h158q20 0 20 -20v-15q0 -14 -10 -24l-266 -252q-13 -10 -29 0l-39 26q-16 13 -6 29l147 244q6 12 25 12z" />
    <glyph glyph-name="uni021A" unicode="&#x21a;" horiz-adv-x="1255" 
d="M59 1550h1137q31 0 31 -30v-121q0 -31 -31 -31h-465v-1337q0 -31 -31 -31h-145q-31 0 -31 31v1337h-465q-30 0 -30 31v121q0 30 30 30zM545 -80h157q21 0 21 -20v-15q0 -14 -10 -24l-269 -252q-9 -9 -28 0l-37 26q-16 13 -6 29l147 244q6 12 25 12z" />
    <glyph glyph-name="uni021B" unicode="&#x21b;" horiz-adv-x="700" 
d="M223 1397l135 33q35 9 35 -27v-285h215q33 0 33 -31v-96q0 -30 -33 -30h-215v-689q0 -68 25.5 -89t107.5 -21h99q32 0 32 -29v-98q0 -27 -30 -33q-49 -12 -115 -12t-96 2.5t-78 13.5q-69 18 -102 66.5t-39 150.5v738h-115q-31 0 -31 30v96q0 31 31 31h115v246q0 27 26 33
zM356 -80h158q21 0 21 -20v-15q0 -13 -11 -24l-268 -252q-10 -10 -29 0l-37 26q-16 13 -6 29l148 244q6 12 24 12z" />
    <glyph glyph-name="circumflex.001" unicode="&#x2c6;" horiz-adv-x="1019" 
d="M465 1554h88q27 0 35 -14l180 -248q14 -14 -6 -28l-37 -25q-14 -12 -29 0l-186 150l-186 -150q-15 -9 -31 0l-37 25q-17 14 -6 28l182 248q8 14 33 14z" />
    <glyph glyph-name="caron.001" unicode="&#x2c7;" horiz-adv-x="1019" 
d="M725 1548l37 -24q20 -15 6 -29l-180 -248q-8 -14 -35 -14h-88q-25 0 -33 14l-182 248q-12 14 6 29l37 24q15 9 31 0l186 -149l186 149q15 12 29 0z" />
    <glyph glyph-name="breve.001" unicode="&#x2d8;" horiz-adv-x="1112" 
d="M770 1536h66q34 0 28 -33q-21 -141 -86 -194q-64 -52 -221 -52t-221 52q-67 55 -88 194q-6 33 28 33h66q26 0 35 -25q29 -66 67 -90t113 -24t112 24t66 90q9 25 35 25z" />
    <glyph glyph-name="dotaccent.001" unicode="&#x2d9;" horiz-adv-x="745" 
d="M500 1393q0 -125 -127 -125t-127 125q0 123 127 123t127 -123z" />
    <glyph glyph-name="ring" unicode="&#x2da;" horiz-adv-x="925" 
d="M246 1448q0 209 217 209t217 -209t-217 -209t-217 209zM590 1448q0 127 -127 127t-127 -127t127 -127t127 127z" />
    <glyph glyph-name="ogonek" unicode="&#x2db;" horiz-adv-x="823" 
d="M311 31h62q35 0 26 -35q-18 -83 -18 -119q0 -40 18.5 -51.5t77.5 -11.5h74q31 0 31 -31v-70q0 -28 -25 -37q-43 -16 -123 -16q-100 0 -144 35t-44 121q0 74 30 188q9 27 35 27z" />
    <glyph glyph-name="tilde" unicode="&#x2dc;" horiz-adv-x="1167" 
d="M440 1516q48 0 148 -41t131 -41q37 0 56 14t38 55q13 32 39 23l47 -13q29 -10 23 -47q-37 -117 -76 -156.5t-117 -39.5q-47 0 -147 41q-96 41 -129 41q-38 0 -57 -14t-38 -56q-16 -29 -39 -20l-47 12q-31 9 -22 45q37 118 74 158q39 39 116 39z" />
    <glyph glyph-name="hungarumlaut.001" unicode="&#x2dd;" horiz-adv-x="1216" 
d="M424 1554h164q20 0 20 -20v-14q0 -15 -10 -25l-281 -254q-14 -11 -28 0l-33 25q-15 12 -6 28l149 248q6 12 25 12zM786 1554h164q21 0 21 -20v-14q0 -15 -10 -25l-281 -254q-14 -12 -29 0l-33 25q-15 12 -6 28l150 248q6 12 24 12z" />
    <glyph glyph-name="uni0326" unicode="&#x326;" horiz-adv-x="0" 
d="M424 -80h158q20 0 20 -20v-15q0 -14 -10 -24l-266 -252q-13 -10 -29 0l-39 26q-16 13 -6 29l147 244q6 12 25 12z" />
    <glyph glyph-name="pi" unicode="&#x3c0;" horiz-adv-x="1314" 
d="M80 1120h1161q31 0 31 -30v-113q0 -31 -31 -31h-170v-915q0 -31 -31 -31h-120q-31 0 -31 31v915h-453q0 -460 -82 -915q-3 -31 -30 -31h-121q-37 0 -31 31q80 466 80 915h-172q-31 0 -31 31v113q0 30 31 30z" />
    <glyph glyph-name="uni0401" unicode="&#x401;" horiz-adv-x="1288" 
d="M477 1923q123 0 123 -121q0 -125 -123 -125q-127 0 -127 125q0 121 127 121zM983 1802q0 -125 -125 -125t-125 125q0 121 125 121t125 -121zM199 1550h958q31 0 31 -30v-121q0 -31 -31 -31h-782v-526h712q31 0 31 -31v-119q0 -30 -31 -30h-712v-480h782q31 0 31 -30v-121
q0 -31 -31 -31h-958q-31 0 -31 31v1489q0 30 31 30z" />
    <glyph glyph-name="uni0410" unicode="&#x410;" horiz-adv-x="1388" 
d="M690 1561q158 0 205 -41q48 -40 92 -199l350 -1288q4 -20 -0.5 -26.5t-23.5 -6.5h-160q-12 0 -17.5 6.5t-9.5 26.5l-127 452h-616l-129 -452q-4 -20 -9.5 -26.5t-17.5 -6.5h-159q-19 0 -24 6.5t-1 26.5l363 1288q48 161 92 199q50 41 192 41zM690 1380q-42 0 -55.5 -17
t-32.5 -91l-168 -606h518l-159 606q-21 74 -37 90q-15 18 -66 18z" />
    <glyph glyph-name="uni0411" unicode="&#x411;" horiz-adv-x="1388" 
d="M375 1368v-448h413q258 0 386 -93q124 -87 124 -333v-84q0 -245 -124 -332q-122 -88 -386 -88q-400 0 -589 14q-19 2 -25 7.5t-6 23.5v1485q0 30 31 30h993q31 0 31 -30v-121q0 -31 -31 -31h-817zM1092 418v63q0 146 -70 202t-225 56h-422v-567h418q166 0 232.5 51.5
t66.5 194.5z" />
    <glyph glyph-name="uni0412" unicode="&#x412;" horiz-adv-x="1404" 
d="M725 1561q273 0 403 -95q132 -94 132 -336q0 -303 -181 -346v-6q219 -41 219 -368q0 -245 -124 -332q-122 -88 -386 -88q-400 0 -589 14q-19 2 -25 7.5t-6 23.5v1481q0 18 6 23t25 7q202 15 526 15zM707 1378h-332v-522h252q190 0 280 18q82 21 109 69.5t35 166.5
q0 162 -80 215q-77 53 -264 53zM797 690h-422v-518h418q166 0 232.5 51.5t66.5 194.5q0 155 -69.5 213.5t-225.5 58.5z" />
    <glyph glyph-name="uni0413" unicode="&#x413;" horiz-adv-x="1116" 
d="M344 0h-145q-31 0 -31 31v1489q0 30 31 30h862q31 0 31 -30v-121q0 -31 -31 -31h-686v-1337q0 -31 -31 -31z" />
    <glyph glyph-name="uni0414" unicode="&#x414;" horiz-adv-x="1427" 
d="M473 1550h721q31 0 31 -30v-1338h80q30 0 30 -30v-443q0 -31 -30 -31h-136q-30 0 -30 31v291h-883v-291q0 -31 -31 -31h-135q-31 0 -31 31v443q0 30 31 30h88q64 18 92.5 76.5t42.5 185.5l129 1074q3 32 31 32zM1016 182v1186h-383l-119 -989q-15 -122 -49 -197h551z" />
    <glyph glyph-name="uni0415" unicode="&#x415;" horiz-adv-x="1288" 
d="M199 1550h958q31 0 31 -30v-121q0 -31 -31 -31h-782v-526h712q31 0 31 -31v-119q0 -30 -31 -30h-712v-480h782q31 0 31 -30v-121q0 -31 -31 -31h-958q-31 0 -31 31v1489q0 30 31 30z" />
    <glyph glyph-name="uni0416" unicode="&#x416;" horiz-adv-x="1927" 
d="M1860 1511l-576 -680l619 -776q20 -19 11 -37t-46 -18h-158q-32 0 -45 23l-598 761v-753q0 -31 -31 -31h-145q-31 0 -31 31v753l-598 -761q-13 -23 -45 -23h-158q-37 0 -45.5 18t11.5 37l618 776l-575 680q-33 39 18 39h166q29 0 43 -20l565 -653v643q0 30 31 30h145
q31 0 31 -30v-643l563 653q14 20 43 20h168q52 0 19 -39z" />
    <glyph glyph-name="uni0417" unicode="&#x417;" horiz-adv-x="1230" 
d="M459 1561q378 0 508 -80q129 -77 129 -328v-41q0 -278 -172 -336q172 -61 172 -334v-34q0 -254 -129 -336q-125 -82 -508 -82q-162 0 -336 16q-33 6 -33 17v131q0 18 31 18h348q261 0 340 49q80 50 80 199v10q-3 147 -51 201q-48 57 -211 57h-430q-25 0 -25 23v127
q0 24 25 24h428q160 0 213 56q51 54 51 204v27q0 145 -86 186q-82 43 -350 43h-332q-31 0 -31 19v125q0 17 33 20q162 19 336 19z" />
    <glyph glyph-name="uni0418" unicode="&#x418;" horiz-adv-x="1579" 
d="M199 1550h145q31 0 31 -32v-1156l749 1129q25 37 44.5 47.5t72.5 11.5h139q31 0 31 -32v-1487q0 -31 -31 -31h-145q-31 0 -31 31v1224l-807 -1218q-27 -37 -73 -37h-125q-31 0 -31 31v1487q0 32 31 32z" />
    <glyph glyph-name="uni0419" unicode="&#x419;" horiz-adv-x="1579" 
d="M993 1946h68q35 0 29 -33q-21 -139 -89 -195q-63 -51 -221 -51t-221 51q-67 55 -88 195q-6 33 29 33h65q26 0 35 -25q29 -66 67 -90.5t113 -24.5q74 0 111.5 24t66.5 91q9 25 35 25zM199 1550h145q31 0 31 -32v-1156l749 1129q25 37 44.5 47.5t72.5 11.5h139q31 0 31 -32
v-1487q0 -31 -31 -31h-145q-31 0 -31 31v1224l-807 -1218q-27 -37 -73 -37h-125q-31 0 -31 31v1487q0 32 31 32z" />
    <glyph glyph-name="uni041A" unicode="&#x41a;" horiz-adv-x="1271" 
d="M1020 1550h166q51 0 18 -39l-608 -680l653 -776q19 -19 10 -37t-45 -18h-159q-32 0 -45 23l-633 761v-753q0 -31 -31 -31h-147q-31 0 -31 31v1489q0 30 31 30h147q31 0 31 -30v-643l600 653q14 20 43 20z" />
    <glyph glyph-name="uni041B" unicode="&#x41b;" horiz-adv-x="1429" 
d="M510 1550h721q31 0 31 -30v-1489q0 -31 -31 -31h-148q-30 0 -30 31v1337h-381l-121 -999q-27 -246 -139 -322q-49 -34 -93 -45.5t-108 -11.5q-67 0 -119 12q-33 6 -33 37v102q0 31 31 31h37q124 0 164 55q44 59 59 209l129 1082q3 32 31 32z" />
    <glyph glyph-name="uni041C" unicode="&#x41c;" horiz-adv-x="1935" 
d="M1499 1550h160q28 0 31 -30l133 -1489q3 -31 -31 -31h-147q-28 0 -31 31l-94 1163l-443 -1118q-9 -25 -37 -25h-145q-30 0 -39 25l-442 1118l-95 -1163q-3 -31 -30 -31h-146q-33 0 -30 31l131 1487q3 32 30 32h160q34 0 49 -15.5t35 -64.5l449 -1163l448 1163
q20 49 35 64.5t49 15.5z" />
    <glyph glyph-name="uni041D" unicode="&#x41d;" horiz-adv-x="1583" 
d="M1239 1550h145q31 0 31 -32v-1487q0 -31 -31 -31h-145q-31 0 -31 31v665h-833v-665q0 -31 -31 -31h-145q-31 0 -31 31v1487q0 32 31 32h145q31 0 31 -32v-639h833v639q0 32 31 32z" />
    <glyph glyph-name="uni041E" unicode="&#x41e;" horiz-adv-x="1482" 
d="M1366 772q0 -242 -27.5 -383.5t-99.5 -232.5q-70 -92 -185.5 -129t-312.5 -37q-196 0 -311.5 37t-187.5 129q-70 91 -97.5 232.5t-27.5 383.5q0 460 127 625q126 164 497 164q372 0 498 -164q127 -165 127 -625zM326 772q0 -360 77 -481q76 -119 338 -119t338 119
q78 122 78 481q0 196 -15.5 300.5t-60.5 176.5q-43 73 -121.5 101t-218.5 28t-218 -28t-124 -101q-43 -72 -58 -177.5t-15 -299.5z" />
    <glyph glyph-name="uni041F" unicode="&#x41f;" horiz-adv-x="1406" 
d="M199 1550h1009q31 0 31 -30v-1489q0 -31 -31 -31h-147q-31 0 -31 31v1337h-655v-1337q0 -31 -31 -31h-145q-31 0 -31 31v1489q0 30 31 30z" />
    <glyph glyph-name="uni0420" unicode="&#x420;" horiz-adv-x="1327" 
d="M635 1561q191 0 297.5 -19.5t179.5 -73.5q76 -54 106.5 -148.5t30.5 -258.5q0 -163 -31 -256.5t-102 -147.5q-46 -32 -119 -49q-122 -28 -362 -28h-260v-549q0 -19 -6 -25t-25 -6h-145q-19 0 -25 6t-6 25v1485q0 18 6 23t25 7q202 15 436 15zM616 1378h-241v-622h241
q101 0 132 2q135 4 178 24q65 28 90 89.5t24 185.5q0 206 -82 264q-77 57 -342 57z" />
    <glyph glyph-name="uni0421" unicode="&#x421;" horiz-adv-x="1226" 
d="M739 1561q237 0 381 -21q33 -3 33 -35v-96q0 -31 -31 -31h-383q-261 0 -338 -121t-77 -483q0 -360 77 -481t338 -121h383q31 0 31 -31v-96q0 -31 -33 -37q-132 -18 -381 -18q-196 0 -311 37t-186 129q-70 91 -97.5 233.5t-27.5 384.5t27.5 385t97.5 234q70 94 185 131
t312 37z" />
    <glyph glyph-name="uni0422" unicode="&#x422;" horiz-adv-x="1255" 
d="M59 1550h1137q31 0 31 -30v-121q0 -31 -31 -31h-465v-1337q0 -31 -31 -31h-145q-31 0 -31 31v1337h-465q-30 0 -30 31v121q0 30 30 30z" />
    <glyph glyph-name="uni0423" unicode="&#x423;" horiz-adv-x="1224" 
d="M1036 1550h158q40 0 25 -34l-426 -1121q-90 -239 -179 -325q-86 -80 -223 -80q-94 0 -149 14q-29 10 -29 39v98q0 31 31 31h108q66 0 110.5 43t94.5 154l-545 1144q-15 37 25 37h164q26 0 35 -22l423 -903l340 901q12 24 37 24z" />
    <glyph glyph-name="uni0424" unicode="&#x424;" horiz-adv-x="1734" 
d="M797 1567h145q31 0 31 -31v-152q395 -9 538 -131q142 -121 142 -469q0 -187 -32 -295.5t-114 -175.5q-80 -67 -202.5 -95.5t-331.5 -33.5v-153q0 -31 -31 -31h-145q-31 0 -31 31v153q-208 5 -331 33t-206 94q-82 67 -114.5 177t-32.5 296q0 348 143 467q145 124 541 133
v152q0 31 31 31zM766 367v833q-290 -9 -383 -90q-94 -82 -94 -326q0 -131 21 -205t75 -122q56 -46 142 -65.5t239 -24.5zM973 1200v-833q286 9 379 90q94 82 94 327q0 244 -94 326q-90 81 -379 90z" />
    <glyph glyph-name="uni0425" unicode="&#x425;" horiz-adv-x="1318" 
d="M1067 1550h158q26 0 31 -11t-9 -34l-467 -698l514 -772q29 -45 -22 -45h-158q-35 0 -55 33l-402 606l-393 -596q-23 -33 -55 -33h-160q-51 0 -22 45l510 762l-469 698q-14 23 -9 34t31 11h158q36 0 55 -32l354 -535l355 535q19 32 55 32z" />
    <glyph glyph-name="uni0426" unicode="&#x426;" horiz-adv-x="1474" 
d="M1260 1520v-1338h135q30 0 30 -30v-443q0 -31 -30 -31h-135q-31 0 -31 31v291h-1030q-31 0 -31 31v1489q0 30 31 30h145q31 0 31 -30v-1338h676v1338q0 30 30 30h148q31 0 31 -30z" />
    <glyph glyph-name="uni0427" unicode="&#x427;" horiz-adv-x="1320" 
d="M975 1550h147q31 0 31 -32v-1487q0 -31 -31 -31h-147q-31 0 -31 31v544h-221q-111 0 -207 7q-196 15 -274 71q-71 54 -102 147.5t-31 256.5v463q0 30 30 30h148q30 0 30 -30v-461q0 -96 13.5 -154t48.5 -86q31 -24 56.5 -36t72.5 -17q96 -8 231 -8h205v760q0 32 31 32z
" />
    <glyph glyph-name="uni0428" unicode="&#x428;" horiz-adv-x="1980" 
d="M1636 1550h146q30 0 30 -30v-1489q0 -31 -30 -31h-1583q-31 0 -31 31v1489q0 30 31 30h147q31 0 31 -30v-1338h510v1338q0 30 31 30h147q31 0 31 -30v-1338h510v1338q0 30 30 30z" />
    <glyph glyph-name="uni0429" unicode="&#x429;" horiz-adv-x="2027" 
d="M1812 1520v-1338h136q30 0 30 -30v-443q0 -31 -30 -31h-133q-31 0 -31 31v291h-1585q-31 0 -31 31v1489q0 30 31 30h147q31 0 31 -30v-1338h510v1338q0 30 31 30h147q31 0 31 -30v-1338h510v1338q0 30 30 30h146q30 0 30 -30z" />
    <glyph glyph-name="uni042A" unicode="&#x42a;" horiz-adv-x="1447" 
d="M451 1520v-600h413q257 0 385 -93q125 -88 125 -333v-84q0 -244 -125 -332q-122 -88 -385 -88q-404 0 -590 14q-19 2 -24.5 7t-5.5 24v1333h-174q-31 0 -31 31v121q0 30 31 30h350q31 0 31 -30zM1165 418v63q0 148 -69 203t-224 55h-421v-567h417q164 0 230.5 51.5
t66.5 194.5z" />
    <glyph glyph-name="uni042B" unicode="&#x42b;" horiz-adv-x="1861" 
d="M377 1520v-600h411q258 0 386 -93q124 -87 124 -333v-84q0 -245 -124 -332q-122 -88 -386 -88q-400 0 -589 14q-19 2 -25 7.5t-6 23.5v1485q0 30 31 30h147q31 0 31 -30zM1518 1550h145q31 0 31 -32v-1487q0 -31 -31 -31h-145q-31 0 -31 31v1487q0 32 31 32zM1092 418v63
q0 146 -70 202t-225 56h-420v-567h416q166 0 232.5 51.5t66.5 194.5z" />
    <glyph glyph-name="uni042C" unicode="&#x42c;" horiz-adv-x="1372" 
d="M375 1520v-600h413q258 0 386 -93q124 -87 124 -333v-84q0 -245 -124 -332q-122 -88 -386 -88q-400 0 -589 14q-19 2 -25 7.5t-6 23.5v1485q0 30 31 30h145q31 0 31 -30zM1092 418v63q0 146 -70 202t-225 56h-422v-567h418q166 0 232.5 51.5t66.5 194.5z" />
    <glyph glyph-name="uni042D" unicode="&#x42d;" horiz-adv-x="1277" 
d="M537 1561q197 0 312 -37t185 -131q71 -91 99 -233.5t28 -385.5t-28 -385t-99 -233q-71 -92 -186 -129t-311 -37q-301 0 -433 18q-32 6 -32 37v96q0 31 30 31h435q243 0 325 104q82 107 88 410h-600q-31 0 -31 31v117q0 30 31 30h600q-6 304 -88 408q-81 106 -325 106
h-435q-30 0 -30 31v96q0 32 32 35q144 21 433 21z" />
    <glyph glyph-name="uni042E" unicode="&#x42e;" horiz-adv-x="2062" 
d="M1321 1561q372 0 498 -164q127 -165 127 -625q0 -242 -27.5 -383.5t-99.5 -232.5q-70 -92 -185.5 -129t-312.5 -37q-358 0 -487 147q-129 151 -138 559h-321v-665q0 -31 -31 -31h-145q-31 0 -31 31v1487q0 32 31 32h145q31 0 31 -32v-639h323q9 390 140 536
q134 146 483 146zM905 772q0 -359 78 -481q76 -119 338 -119t338 119q78 122 78 481q0 196 -15.5 300.5t-60.5 176.5q-43 73 -121.5 101t-218.5 28t-218 -28t-124 -101q-43 -73 -58.5 -178.5t-15.5 -298.5z" />
    <glyph glyph-name="uni042F" unicode="&#x42f;" horiz-adv-x="1353" 
d="M719 1561q234 0 436 -15q19 -2 25 -7t6 -23v-1485q0 -19 -6 -25t-25 -6h-147q-19 0 -25 6t-6 25v549h-309l-336 -535q-18 -26 -34.5 -35.5t-47.5 -9.5h-131q-23 0 -30 12t5 29l344 551q-187 24 -260 125q-74 103 -74 344q0 162 31 257t105 150q76 54 182 73.5t297 19.5z
M977 756v622h-242q-262 0 -342 -57q-80 -59 -80 -264q0 -96 13.5 -154t48.5 -86q31 -24 56.5 -36t72.5 -17q96 -8 231 -8h242z" />
    <glyph glyph-name="uni0430" unicode="&#x430;" horiz-adv-x="1095" 
d="M500 1130q241 0 352 -77t111 -244v-717q0 -42 -37 -57q-122 -45 -455 -45q-218 0 -307 63q-90 66 -90 254v27q0 162 87.5 231.5t276.5 69.5l330 2v137q0 97 -63 140.5t-205 43.5h-305q-19 0 -25 6t-6 25v84q0 17 5.5 22.5t23.5 10.5q144 24 307 24zM768 186v291h-319
q-119 0 -150 -28q-29 -29 -29 -127v-13q0 -94 44.5 -121.5t168.5 -27.5q184 0 285 26z" />
    <glyph glyph-name="uni0431" unicode="&#x431;" horiz-adv-x="1185" 
d="M944 1561h70q26 0 26 -56q0 -87 -49.5 -124.5t-179.5 -63.5q-54 -12 -109 -19q-34 -5 -100 -16q-41 -8 -80 -20q-45 -11 -68 -26.5t-57 -51.5q-51 -51 -63 -174q46 64 107 87t171 23q290 0 377 -112q92 -112 92 -449q0 -189 -18.5 -289.5t-71.5 -165.5q-54 -66 -140 -90
t-245 -24q-296 0 -387 110q-93 116 -90 459v168q-11 413 135 578q40 47 123 81q82 37 162 56q77 20 219 45q96 18 127 43q3 3 9.5 13t14.5 14t25 4zM606 950q-182 0 -231 -76q-49 -73 -49 -315q0 -245 49 -321t231 -76q181 0 230 76t49 321q0 242 -49 315q-49 76 -230 76z
" />
    <glyph glyph-name="uni0432" unicode="&#x432;" horiz-adv-x="1146" 
d="M590 1130q229 0 329.5 -72t100.5 -243q0 -116 -37 -175.5t-121 -76.5v-4q100 -12 143.5 -76t43.5 -186q0 -169 -97 -238t-317 -69q-349 0 -467 14q-27 3 -27 27v1059q0 23 27 26q167 14 422 14zM571 952h-225v-319h178q173 0 232 26q61 27 61 129q0 92 -56.5 128
t-189.5 36zM633 483h-287v-315h285q119 0 168 32.5t49 118.5q0 93 -50.5 128.5t-164.5 35.5z" />
    <glyph glyph-name="uni0433" unicode="&#x433;" horiz-adv-x="925" 
d="M166 1120h692q25 0 25 -24v-135q0 -23 -25 -23h-508v-915q0 -23 -26 -23h-158q-25 0 -25 23v1073q0 24 25 24z" />
    <glyph glyph-name="uni0434" unicode="&#x434;" horiz-adv-x="1173" 
d="M369 1120h598q26 0 26 -24v-918h70q24 0 24 -22v-353q0 -22 -24 -22h-139q-25 0 -25 22v197h-655v-197q0 -22 -25 -22h-139q-25 0 -25 22v355q0 20 25 20h67q49 17 71.5 61.5t35.5 139.5l90 717q3 24 25 24zM788 178v764h-256l-81 -625q-16 -94 -35 -139h372z" />
    <glyph glyph-name="uni0435" unicode="&#x435;" horiz-adv-x="1114" 
d="M573 1130q274 0 363 -108q91 -111 94 -432v-60q0 -33 -15 -45t-61 -12h-651q6 -190 57 -250q52 -61 218 -61h335q31 0 31 -31v-90q0 -30 -29 -33q-135 -18 -342 -18q-288 0 -376 110q-91 117 -91 459t91 459q87 112 376 112zM573 958q-162 0 -215 -65q-52 -64 -55 -260
h531q-3 195 -54 262q-48 63 -207 63z" />
    <glyph glyph-name="uni0436" unicode="&#x436;" horiz-adv-x="1658" 
d="M1593 1090l-444 -488l483 -565q12 -13 7 -25t-25 -12h-182q-21 0 -37 16l-463 541v-526q0 -31 -31 -31h-143q-31 0 -31 31v526l-463 -541q-16 -16 -37 -16h-182q-20 0 -25 12t7 25l483 565l-444 488q-11 12 -3.5 21t27.5 9h168q25 0 33 -14l436 -471v455q0 30 31 30h143
q31 0 31 -30v-455l436 471q8 14 33 14h168q20 0 27.5 -9t-3.5 -21z" />
    <glyph glyph-name="uni0437" unicode="&#x437;" horiz-adv-x="1021" 
d="M416 1130q278 0 383 -57q108 -58 108 -227v-62q0 -188 -147 -225q147 -35 147 -223v-55q0 -177 -106 -234q-105 -57 -385 -57q-173 0 -299 20q-29 6 -29 31v106q0 23 25 23h299q173 0 233 29q55 27 55 116v13q0 87 -37.5 118t-152.5 31h-328q-22 0 -22 27v110q0 25 22 25
h326q115 0 153.5 32t38.5 120v22q0 87 -59 111q-56 26 -240 26h-288q-25 0 -25 21v108q0 25 29 31q131 20 299 20z" />
    <glyph glyph-name="uni0438" unicode="&#x438;" horiz-adv-x="1280" 
d="M989 1120h125q25 0 25 -22v-1075q0 -23 -25 -23h-156q-24 0 -24 23v768l-586 -758q-23 -33 -67 -33h-115q-25 0 -25 23v1075q0 22 25 22h156q24 0 24 -22v-738l549 713q20 29 38 38t56 9z" />
    <glyph glyph-name="uni0439" unicode="&#x439;" horiz-adv-x="1280" 
d="M864 1536h66q34 0 28 -33q-21 -139 -88 -194q-64 -52 -221 -52t-221 52q-65 53 -86 194q-6 33 29 33h65q26 0 35 -25q26 -66 64.5 -90t113.5 -24t113 24t67 90q9 25 35 25zM989 1120h125q25 0 25 -22v-1075q0 -23 -25 -23h-156q-24 0 -24 23v768l-586 -758
q-23 -33 -67 -33h-115q-25 0 -25 23v1075q0 22 25 22h156q24 0 24 -22v-738l549 713q20 29 38 38t56 9z" />
    <glyph glyph-name="uni043A" unicode="&#x43a;" horiz-adv-x="1067" 
d="M819 1120h166q20 0 27.5 -9t-2.5 -21l-445 -488l484 -565q12 -13 6.5 -25t-25.5 -12h-182q-21 0 -37 16l-461 541v-526q0 -31 -31 -31h-147q-31 0 -31 31v1059q0 30 31 30h147q31 0 31 -30v-455l434 471q11 14 35 14z" />
    <glyph glyph-name="uni043B" unicode="&#x43b;" horiz-adv-x="1163" 
d="M391 1120h606q25 0 25 -22v-1075q0 -23 -25 -23h-157q-23 0 -23 23v917h-262l-82 -649q-38 -299 -285 -299q-42 0 -104 10q-31 9 -31 37v113q0 20 25 20h31q88 0 121.5 38t45.5 140l93 748q3 22 22 22z" />
    <glyph glyph-name="uni043C" unicode="&#x43c;" horiz-adv-x="1579" 
d="M1198 1120h150q21 0 24 -20l109 -1077q3 -23 -23 -23h-160q-21 0 -24 23l-70 747l-317 -715q-9 -18 -33 -18h-131q-24 0 -33 18l-313 715l-72 -747q-3 -23 -24 -23h-160q-26 0 -23 23l109 1075q3 22 24 22h150q32 0 48.5 -12t29.5 -47l329 -756l332 758q13 35 29 46
t49 11z" />
    <glyph glyph-name="uni043D" unicode="&#x43d;" horiz-adv-x="1284" 
d="M967 1120h145q31 0 31 -30v-1059q0 -31 -31 -31h-145q-31 0 -31 31v438h-586v-438q0 -31 -31 -31h-147q-31 0 -31 31v1059q0 30 31 30h147q31 0 31 -30v-439h586v439q0 30 31 30z" />
    <glyph glyph-name="uni043E" unicode="&#x43e;" horiz-adv-x="1165" 
d="M342 1106q88 24 242 24q152 0 241 -24q179 -46 215 -264q19 -108 19 -283q0 -174 -19 -285q-17 -103 -72 -170t-143 -92q-93 -22 -241 -22q-151 0 -244 22q-176 50 -215 262q-19 111 -19 285q0 175 19 283q39 218 217 264zM584 958q-183 0 -232 -75q-49 -76 -49 -324
q0 -245 49 -321t232 -76q180 0 229 76t49 321q0 248 -49 324q-49 75 -229 75z" />
    <glyph glyph-name="uni043F" unicode="&#x43f;" horiz-adv-x="1150" 
d="M172 1120h807q31 0 31 -30v-1059q0 -31 -31 -31h-145q-31 0 -31 31v907h-453v-907q0 -31 -31 -31h-147q-31 0 -31 31v1059q0 30 31 30z" />
    <glyph glyph-name="uni0440" unicode="&#x440;" horiz-adv-x="1179" 
d="M596 1130q295 0 385 -112q92 -115 92 -457q0 -343 -90 -459q-87 -112 -377 -112q-162 0 -270 12v-377q0 -31 -31 -31h-135q-31 0 -31 31v1436q0 29 33 35q214 34 424 34zM598 958h-262v-780q141 -16 258 -16q183 0 233 74q52 76 52 323t-50 324q-49 75 -231 75z" />
    <glyph glyph-name="uni0441" unicode="&#x441;" horiz-adv-x="995" 
d="M586 1130q174 0 309 -18q29 -3 29 -35v-88q0 -31 -31 -31h-307q-183 0 -232 -75q-49 -76 -49 -324q0 -245 49 -321t232 -76h307q31 0 31 -31v-88q0 -32 -29 -35q-135 -18 -309 -18q-159 0 -246 24t-141 90q-53 65 -71.5 165.5t-18.5 289.5q0 272 53 397q46 99 140 135
t284 39z" />
    <glyph glyph-name="uni0442" unicode="&#x442;" horiz-adv-x="1034" 
d="M72 1120h891q30 0 30 -30v-121q0 -31 -30 -31h-342v-907q0 -31 -31 -31h-148q-30 0 -30 31v907h-340q-31 0 -31 31v121q0 30 31 30z" />
    <glyph glyph-name="uni0443" unicode="&#x443;" horiz-adv-x="1208" 
d="M901 1120h135q31 0 31 -30v-988q0 -165 -19 -255.5t-71 -151.5q-53 -62 -141.5 -86.5t-241.5 -24.5q-164 0 -307 19q-29 3 -29 32v89q0 30 29 30h303q170 0 225 49t55 191v12q-109 -16 -270 -16q-288 0 -379 110q-90 116 -90 449v541q0 30 31 30h135q31 0 31 -30v-529
q0 -247 49 -323q52 -76 235 -76q152 0 258 14v914q0 30 31 30z" />
    <glyph glyph-name="uni0444" unicode="&#x444;" horiz-adv-x="1558" 
d="M1092 1130q191 0 276 -131q86 -130 86 -440q0 -307 -86 -440q-86 -129 -276 -129q-151 0 -215 55v-420q0 -31 -31 -31h-135q-31 0 -31 31v420q-61 -55 -213 -55q-191 0 -277 129q-86 133 -86 440q0 310 86 440q85 131 277 131q146 0 213 -55v445q0 30 31 30h135
q31 0 31 -30v-445q67 55 215 55zM680 205v710q-50 41 -176 41q-123 0 -164 -84q-39 -79 -39 -313t39 -313q41 -84 164 -84q124 0 176 43zM1055 956q-126 0 -176 -41v-710q52 -43 176 -43q123 0 164 84q38 77 38 313t-38 313q-41 84 -164 84z" />
    <glyph glyph-name="uni0445" unicode="&#x445;" horiz-adv-x="1081" 
d="M825 1120h166q17 0 21.5 -12t-6.5 -25l-351 -489l396 -557q10 -17 5.5 -27t-22.5 -10h-166q-19 0 -28 18l-297 420l-301 -420q-9 -18 -29 -18h-166q-17 0 -21.5 10t5.5 27l395 557l-350 489q-11 13 -7 25t21 12h166q21 0 33 -18l254 -352l250 352q12 18 32 18z" />
    <glyph glyph-name="uni0446" unicode="&#x446;" horiz-adv-x="1210" 
d="M1022 1090v-908h98q31 0 31 -30v-340q0 -31 -31 -31h-135q-31 0 -31 31v188h-782q-31 0 -31 31v1059q0 30 31 30h145q31 0 31 -30v-908h465v908q0 30 31 30h147q31 0 31 -30z" />
    <glyph glyph-name="uni0447" unicode="&#x447;" horiz-adv-x="1073" 
d="M754 1120h147q31 0 31 -30v-1059q0 -31 -31 -31h-147q-31 0 -31 31v362h-61q-99 0 -205 4q-185 14 -256 74q-62 56 -87.5 147.5t-25.5 255.5v216q0 30 31 30h147q31 0 31 -30v-211q0 -115 13 -173t50 -88q23 -17 70 -28q73 -15 248 -15h45v515q0 30 31 30z" />
    <glyph glyph-name="uni0448" unicode="&#x448;" horiz-adv-x="1601" 
d="M1282 1120h148q30 0 30 -30v-1059q0 -31 -30 -31h-1258q-31 0 -31 31v1059q0 30 31 30h147q31 0 31 -30v-910h348v910q0 30 31 30h143q31 0 31 -30v-910h348v910q0 30 31 30z" />
    <glyph glyph-name="uni0449" unicode="&#x449;" horiz-adv-x="1646" 
d="M1458 1090v-908h98q31 0 31 -30v-340q0 -31 -31 -31h-135q-30 0 -30 31v188h-1219q-31 0 -31 31v1059q0 30 31 30h147q31 0 31 -30v-908h346v908q0 30 31 30h147q31 0 31 -30v-908h346v908q0 30 31 30h145q31 0 31 -30z" />
    <glyph glyph-name="uni044A" unicode="&#x44a;" horiz-adv-x="1261" 
d="M487 1098v-418h291q220 0 317 -69t97 -238v-76q0 -169 -97 -238t-317 -69q-355 0 -473 14q-22 3 -22 21v913h-217q-25 0 -25 23v137q0 22 25 22h397q24 0 24 -22zM985 317v37q0 87 -49 120.5t-158 33.5h-291v-340h285q119 0 166 32t47 117z" />
    <glyph glyph-name="uni044B" unicode="&#x44b;" horiz-adv-x="1501" 
d="M346 1098v-418h291q220 0 318 -69.5t98 -237.5v-76q0 -168 -98 -237.5t-318 -69.5q-355 0 -473 14q-23 3 -23 21v1073q0 22 25 22h156q24 0 24 -22zM1194 1120h135q31 0 31 -30v-1059q0 -31 -31 -31h-135q-31 0 -31 31v1059q0 30 31 30zM846 317v37q0 87 -49 120.5
t-158 33.5h-293v-340h287q118 0 165.5 32t47.5 117z" />
    <glyph glyph-name="uni044C" unicode="&#x44c;" horiz-adv-x="1120" 
d="M346 1096v-416h291q220 0 318 -69.5t98 -237.5v-76q0 -168 -98 -237.5t-318 -69.5q-355 0 -473 14q-23 3 -23 27v1067q0 22 25 22h156q24 0 24 -24zM846 317v37q0 87 -49 120.5t-158 33.5h-293v-340h287q118 0 165.5 32t47.5 117z" />
    <glyph glyph-name="uni044D" unicode="&#x44d;" horiz-adv-x="1058" 
d="M455 1130q295 0 397 -120t102 -449q0 -332 -102 -452q-101 -119 -397 -119q-218 0 -344 20q-31 3 -31 33v102q0 23 24 23h351q168 0 227 65q60 66 66 244h-455q-27 0 -27 21v125q0 20 27 20h455q-6 178 -66 244q-59 65 -227 65h-351q-24 0 -24 23v100q0 29 31 35
q123 20 344 20z" />
    <glyph glyph-name="uni044E" unicode="&#x44e;" horiz-adv-x="1626" 
d="M1044 1130q160 0 247 -24.5t139 -91.5q54 -65 73 -166t19 -289t-19 -289t-73 -166q-52 -65 -139.5 -89.5t-246.5 -24.5q-274 0 -370 96t-105 383h-219v-438q0 -31 -31 -31h-147q-31 0 -31 31v1059q0 30 31 30h147q31 0 31 -30v-439h219q9 287 105 383t370 96zM1325 559
q0 248 -49 324q-49 75 -232 75q-182 0 -231 -75q-49 -76 -49 -324q0 -245 49 -321t231 -76q183 0 232 76t49 321z" />
    <glyph glyph-name="uni044F" unicode="&#x44f;" horiz-adv-x="1116" 
d="M573 1130q257 0 375 -14q25 -3 25 -22v-1071q0 -13 -5.5 -18t-19.5 -5h-157q-14 0 -19.5 5t-5.5 18v385h-199l-262 -375q-20 -33 -63 -33h-148q-41 0 -18 29l268 393q-140 23 -196 96.5t-56 237.5q0 220 103 297q106 77 378 77zM766 567v383h-180q-172 0 -228 -39
q-57 -39 -57 -159q0 -119 53 -154q57 -31 232 -31h180z" />
    <glyph glyph-name="uni0451" unicode="&#x451;" horiz-adv-x="1114" 
d="M379 1513q125 0 125 -120q0 -125 -125 -125q-127 0 -127 125q0 120 127 120zM762 1513q125 0 125 -120q0 -125 -125 -125q-127 0 -127 125q0 120 127 120zM573 1130q274 0 363 -108q91 -111 94 -432v-60q0 -33 -15 -45t-61 -12h-651q6 -190 57 -250q52 -61 218 -61h335
q31 0 31 -31v-90q0 -30 -29 -33q-135 -18 -342 -18q-288 0 -376 110q-91 117 -91 459t91 459q87 112 376 112zM573 958q-162 0 -215 -65q-52 -64 -55 -260h531q-3 195 -54 262q-48 63 -207 63z" />
    <glyph glyph-name="Wgrave" unicode="&#x1e80;" horiz-adv-x="2232" 
d="M823 1964h181q18 0 24 -12l150 -248q9 -16 -7 -29l-38 -26q-15 -12 -29 0l-291 256q-10 10 -10 24v15q0 20 20 20zM1974 1550h162q33 0 27 -32l-279 -1289q-35 -159 -80 -198q-47 -41 -186 -41q-156 0 -201 39q-42 39 -82 200l-221 928l-221 -928q-25 -108 -53 -159
q-24 -44 -74 -62t-158 -18q-141 0 -188 41q-42 37 -78 198l-276 1289q-6 32 24 32h162q19 0 27 -32l260 -1229q13 -67 28 -88t47 -21q41 0 56 18.5t32 90.5l293 1165q9 33 37 33h164q26 0 35 -33l293 -1165q19 -73 33 -91t55 -18q33 0 48 20.5t28 88.5l260 1229q8 32 26 32z
" />
    <glyph glyph-name="wgrave" unicode="&#x1e81;" horiz-adv-x="1712" 
d="M563 1554h180q19 0 25 -12l150 -248q9 -15 -7 -28l-39 -27q-14 -11 -28 0l-291 256q-10 10 -10 25v14q0 20 20 20zM1475 1120h147q17 0 22 -6.5t3 -26.5l-181 -866q-36 -155 -73 -192q-39 -39 -166 -39q-131 0 -166 35q-35 38 -72 196l-133 574l-133 -574
q-37 -158 -72 -196q-35 -35 -166 -35q-124 0 -166 39q-37 37 -73 192l-180 866q-2 21 2.5 27t21.5 6h150q15 0 24 -33l168 -841q12 -51 22 -64.5t33 -13.5q26 0 35 12t21 66l198 809q8 32 29 32h172q21 0 29 -32l198 -809q12 -54 21 -66t35 -12q23 0 33 13.5t22 64.5
l168 841q4 20 9.5 26.5t17.5 6.5z" />
    <glyph glyph-name="Wacute" unicode="&#x1e82;" horiz-adv-x="2232" 
d="M1206 1964h183q20 0 20 -20v-15q0 -14 -10 -24l-291 -256q-14 -12 -29 0l-41 26q-16 13 -6 29l150 248q6 12 24 12zM1974 1550h162q33 0 27 -32l-279 -1289q-35 -159 -80 -198q-47 -41 -186 -41q-156 0 -201 39q-42 39 -82 200l-221 928l-221 -928q-25 -108 -53 -159
q-24 -44 -74 -62t-158 -18q-141 0 -188 41q-42 37 -78 198l-276 1289q-6 32 24 32h162q19 0 27 -32l260 -1229q13 -67 28 -88t47 -21q41 0 56 18.5t32 90.5l293 1165q9 33 37 33h164q26 0 35 -33l293 -1165q19 -73 33 -91t55 -18q33 0 48 20.5t28 88.5l260 1229q8 32 26 32z
" />
    <glyph glyph-name="wacute" unicode="&#x1e83;" horiz-adv-x="1712" 
d="M948 1554h182q21 0 21 -20v-14q0 -15 -10 -25l-291 -256q-14 -12 -29 0l-41 27q-15 12 -6 28l150 248q6 12 24 12zM1475 1120h147q17 0 22 -6.5t3 -26.5l-181 -866q-36 -155 -73 -192q-39 -39 -166 -39q-131 0 -166 35q-35 38 -72 196l-133 574l-133 -574
q-37 -158 -72 -196q-35 -35 -166 -35q-124 0 -166 39q-37 37 -73 192l-180 866q-2 21 2.5 27t21.5 6h150q15 0 24 -33l168 -841q12 -51 22 -64.5t33 -13.5q26 0 35 12t21 66l198 809q8 32 29 32h172q21 0 29 -32l198 -809q12 -54 21 -66t35 -12q23 0 33 13.5t22 64.5
l168 841q4 20 9.5 26.5t17.5 6.5z" />
    <glyph glyph-name="Wdieresis" unicode="&#x1e84;" horiz-adv-x="2232" 
d="M924 1923q123 0 123 -121q0 -125 -123 -125q-127 0 -127 125q0 121 127 121zM1305 1923q127 0 127 -121q0 -125 -127 -125q-125 0 -125 125q0 121 125 121zM1974 1550h162q33 0 27 -32l-279 -1289q-35 -159 -80 -198q-47 -41 -186 -41q-156 0 -201 39q-42 39 -82 200
l-221 928l-221 -928q-25 -108 -53 -159q-24 -44 -74 -62t-158 -18q-141 0 -188 41q-42 37 -78 198l-276 1289q-6 32 24 32h162q19 0 27 -32l260 -1229q13 -67 28 -88t47 -21q41 0 56 18.5t32 90.5l293 1165q9 33 37 33h164q26 0 35 -33l293 -1165q19 -73 33 -91t55 -18
q33 0 48 20.5t28 88.5l260 1229q8 32 26 32z" />
    <glyph glyph-name="wdieresis" unicode="&#x1e85;" horiz-adv-x="1712" 
d="M666 1513q125 0 125 -120q0 -125 -125 -125q-127 0 -127 125q0 120 127 120zM1049 1513q125 0 125 -120q0 -125 -125 -125q-127 0 -127 125q0 120 127 120zM1475 1120h147q17 0 22 -6.5t3 -26.5l-181 -866q-36 -155 -73 -192q-39 -39 -166 -39q-131 0 -166 35
q-35 38 -72 196l-133 574l-133 -574q-37 -158 -72 -196q-35 -35 -166 -35q-124 0 -166 39q-37 37 -73 192l-180 866q-2 21 2.5 27t21.5 6h150q15 0 24 -33l168 -841q12 -51 22 -64.5t33 -13.5q26 0 35 12t21 66l198 809q8 32 29 32h172q21 0 29 -32l198 -809q12 -54 21 -66
t35 -12q23 0 33 13.5t22 64.5l168 841q4 20 9.5 26.5t17.5 6.5z" />
    <glyph glyph-name="Ygrave" unicode="&#x1ef2;" horiz-adv-x="1351" 
d="M389 1964h182q19 0 25 -12l149 -248q10 -16 -6 -29l-41 -26q-14 -11 -28 0l-291 256q-10 10 -10 24v15q0 20 20 20zM1155 1550h158q45 0 22 -45l-555 -1034v-440q0 -31 -30 -31h-148q-31 0 -31 31v440l-555 1034q-23 45 23 45h160q36 0 55 -32l422 -822l424 822
q14 32 55 32z" />
    <glyph glyph-name="ygrave" unicode="&#x1ef3;" horiz-adv-x="1208" 
d="M352 1554h183q18 0 24 -12l150 -248q9 -15 -7 -28l-40 -27q-14 -12 -29 0l-291 256q-10 10 -10 25v14q0 20 20 20zM901 1120h135q31 0 31 -30v-988q0 -165 -19 -255.5t-71 -151.5q-53 -62 -141.5 -86.5t-241.5 -24.5q-163 0 -309 19q-29 3 -29 32v89q0 30 31 30h303
q170 0 225 49t55 191v12q-109 -16 -270 -16q-288 0 -379 110q-90 116 -90 449v541q0 30 31 30h133q31 0 31 -30v-529q0 -247 49 -323q52 -76 237 -76q152 0 258 14v914q0 30 31 30z" />
    <glyph glyph-name="uni1EF8" unicode="&#x1ef8;" horiz-adv-x="1351" 
d="M532 1925q50 0 146 -41q100 -41 131 -41q37 0 56 14.5t38 55.5q15 31 39 22l47 -12q32 -10 23 -47q-37 -117 -76 -157t-117 -40q-47 0 -147 41q-96 41 -129 41q-38 0 -56.5 -14t-37.5 -55q-16 -29 -39 -21l-48 12q-32 9 -22 46q37 118 76 157t116 39zM1155 1550h158
q45 0 22 -45l-555 -1034v-440q0 -31 -30 -31h-148q-31 0 -31 31v440l-555 1034q-23 45 23 45h160q36 0 55 -32l422 -822l424 822q14 32 55 32z" />
    <glyph glyph-name="uni1EF9" unicode="&#x1ef9;" horiz-adv-x="1208" 
d="M473 1516q49 0 145 -41q100 -41 132 -41q37 0 56 14t38 55q16 32 39 23l47 -13q31 -9 22 -47q-37 -117 -75.5 -156.5t-116.5 -39.5q-48 0 -148 41q-96 41 -129 41q-38 0 -56.5 -14t-37.5 -56q-16 -29 -39 -20l-47 12q-31 9 -22 45q38 121 75 158q39 39 117 39zM901 1120
h135q31 0 31 -30v-988q0 -165 -19 -255.5t-71 -151.5q-53 -62 -141.5 -86.5t-241.5 -24.5q-163 0 -309 19q-29 3 -29 32v89q0 30 31 30h303q170 0 225 49t55 191v12q-109 -16 -270 -16q-288 0 -379 110q-90 116 -90 449v541q0 30 31 30h133q31 0 31 -30v-529q0 -247 49 -323
q52 -76 237 -76q152 0 258 14v914q0 30 31 30z" />
    <glyph glyph-name="endash" unicode="&#x2013;" horiz-adv-x="1271" 
d="M166 653h940q31 0 31 -30v-121q0 -31 -31 -31h-940q-33 0 -33 31v121q0 30 33 30z" />
    <glyph glyph-name="emdash" unicode="&#x2014;" horiz-adv-x="1849" 
d="M166 653h1517q31 0 31 -30v-121q0 -31 -31 -31h-1517q-33 0 -33 31v121q0 30 33 30z" />
    <glyph glyph-name="quoteleft.001" unicode="&#x2018;" horiz-adv-x="524" 
d="M397 1548l47 -26q15 -9 7 -29l-142 -483q-7 -17 -26 -17h-185q-20 0 -20 21v28q0 10 10 27l281 469q13 19 28 10z" />
    <glyph glyph-name="quoteright" unicode="&#x2019;" horiz-adv-x="509" 
d="M256 1550h184q21 0 21 -20v-29q0 -9 -10 -26l-279 -469q-16 -20 -31 -11l-47 25q-15 9 -6 29l141 485q6 16 27 16z" />
    <glyph glyph-name="quotesinglbase" unicode="&#x201a;" horiz-adv-x="495" 
d="M180 244h187q20 0 20 -21v-28q0 -10 -10 -27l-281 -469q-13 -19 -28 -10l-50 24q-15 9 -6 29l144 483q6 19 24 19z" />
    <glyph glyph-name="quotedblleft.001" unicode="&#x201c;" horiz-adv-x="907" 
d="M397 1548l49 -26q15 -9 7 -29l-142 -483q-7 -17 -26 -17h-187q-20 0 -20 21v28q0 10 10 27l281 469q13 19 28 10zM778 1548l49 -26q15 -9 7 -29l-142 -483q-7 -17 -26 -17h-187q-20 0 -20 21v28q0 10 10 27l281 469q13 19 28 10z" />
    <glyph glyph-name="quotedblright" unicode="&#x201d;" horiz-adv-x="917" 
d="M256 1550h184q21 0 21 -20v-29q0 -9 -10 -26l-279 -469q-16 -20 -31 -11l-47 25q-15 9 -6 29l141 485q6 16 27 16zM664 1550h184q20 0 20 -20v-29q0 -9 -10 -26l-280 -469q-14 -20 -29 -11l-47 25q-15 9 -6 29l141 485q6 16 27 16z" />
    <glyph glyph-name="quotedblbase" unicode="&#x201e;" horiz-adv-x="894" 
d="M182 244h185q20 0 20 -21v-28q0 -10 -10 -27l-281 -469q-13 -19 -28 -10l-48 24q-15 9 -6 29l142 483q6 19 26 19zM580 244h186q20 0 20 -21v-28q0 -10 -10 -27l-280 -469q-13 -20 -29 -10l-49 24q-15 9 -6 29l141 483q6 19 27 19z" />
    <glyph glyph-name="dagger.001" unicode="&#x2020;" horiz-adv-x="978" 
d="M852 987h-264v-956q0 -31 -31 -31h-135q-31 0 -31 31v958h-264q-31 0 -31 31v108q0 31 31 31h264v361q0 30 31 30h135q31 0 31 -30v-361h264q31 0 31 -31v-110q0 -31 -31 -31z" />
    <glyph glyph-name="daggerdbl" unicode="&#x2021;" horiz-adv-x="978" 
d="M422 1550h135q31 0 31 -30v-361h264q31 0 31 -31v-110q0 -31 -31 -31h-264v-391h264q31 0 31 -31v-110q0 -31 -31 -31h-264v-393q0 -31 -31 -31h-135q-31 0 -31 31v395h-264q-31 0 -31 31v108q0 31 31 31h264v393h-264q-31 0 -31 31v108q0 31 31 31h264v361q0 30 31 30z
" />
    <glyph glyph-name="bullet" unicode="&#x2022;" horiz-adv-x="1146" 
d="M573 874q147 0 230.5 -74.5t83.5 -205.5q0 -133 -83 -208t-231 -75q-149 0 -232 74.5t-83 208.5q0 133 83 206.5t232 73.5z" />
    <glyph glyph-name="ellipsis.001" unicode="&#x2026;" horiz-adv-x="1226" 
d="M348 111q0 -121 -121 -121t-121 121q0 116 121 116t121 -116zM733 111q0 -121 -121 -121q-120 0 -120 121q0 116 120 116q121 0 121 -116zM999 227q121 0 121 -116q0 -121 -121 -121q-122 0 -122 121q0 116 122 116z" />
    <glyph glyph-name="perthousand.001" unicode="&#x2030;" horiz-adv-x="2760" 
d="M147 1470q77 89 289 89t289 -89q78 -90 78 -327q0 -238 -78 -328q-76 -88 -289 -88t-289 88q-77 89 -77 328q0 238 77 327zM1305 1550h90q30 0 12 -30l-780 -1489q-15 -31 -47 -31h-91q-29 0 -14 31l780 1489q18 30 50 30zM618 1143q0 143 -39 197.5t-143 54.5t-142 -53
t-38 -199t38 -200t142 -54t143 54t39 200zM1442 821q213 0 289 -88q77 -89 77 -327q0 -239 -77 -328q-76 -88 -289 -88t-289 88q-78 90 -78 328q0 237 78 327q76 88 289 88zM2036 733q76 88 288 88q213 0 289 -88q78 -90 78 -327q0 -238 -78 -328q-76 -88 -289 -88
q-212 0 -288 88q-78 90 -78 328q0 237 78 327zM1442 659q-103 0 -141.5 -53.5t-38.5 -199.5t38.5 -200t141.5 -54q104 0 143 54t39 200t-38.5 199.5t-143.5 53.5zM2468 604q-40 55 -144 55q-103 0 -143 -55q-37 -52 -37 -198t37 -201q41 -53 143 -53q103 0 144 53
q39 53 39 201q0 147 -39 198z" />
    <glyph glyph-name="guilsinglleft" unicode="&#x2039;" horiz-adv-x="634" 
d="M358 954h134q30 0 30 -30v-15q0 -23 -14 -37l-252 -313l252 -311q14 -14 14 -37v-14q0 -31 -30 -31h-134q-21 0 -36 18l-228 297q-14 14 -14 39v78q0 21 14 41l228 297q15 18 36 18z" />
    <glyph glyph-name="guilsinglright" unicode="&#x203a;" horiz-adv-x="634" 
d="M143 954h133q22 0 37 -18l230 -297q12 -21 12 -41v-78q0 -21 -12 -39l-230 -297q-15 -18 -37 -18h-133q-30 0 -30 31v14q0 23 14 37l252 311l-252 313q-14 14 -14 37v15q0 30 30 30z" />
    <glyph glyph-name="fraction.001" unicode="&#x2044;" horiz-adv-x="286" 
d="M483 1620h64q26 0 14 -35l-704 -1620q-15 -35 -47 -35h-68q-32 0 -14 35l708 1620q15 35 47 35z" />
    <glyph glyph-name="uni2070" unicode="&#x2070;" horiz-adv-x="796" 
d="M397 1872q188 0 254 -90q66 -91 66 -336t-66 -336q-65 -86 -254 -86q-190 0 -254 88q-63 86 -63 334q0 250 63 336q66 90 254 90zM397 1735q-94 0 -129 -62q-32 -54 -32 -227t32 -227q34 -58 129 -58q97 0 131 58q33 56 33 227t-33 227q-35 62 -131 62z" />
    <glyph glyph-name="uni2074" unicode="&#x2074;" horiz-adv-x="768" 
d="M217 1866h129q19 0 10 -15l-137 -473h213v187q0 11 10 14l131 43q15 3 15 -12v-232h121q14 0 14 -12v-111q0 -12 -14 -12h-121v-199q0 -14 -15 -14h-129q-12 0 -12 14v199h-366q-13 0 -13 12v82q0 16 8 35l142 483q4 11 14 11z" />
    <glyph glyph-name="uni2075" unicode="&#x2075;" horiz-adv-x="712" 
d="M129 1866h471q14 0 14 -13v-112q0 -12 -14 -12h-358l-13 -201q52 10 127 10q285 0 285 -203v-108q-7 -119 -85.5 -162.5t-221.5 -40.5q-132 0 -230 16q-20 6 -20 25v82q0 14 12 14h217q94 0 133 21.5t39 79.5v36q0 60 -39.5 82.5t-132.5 22.5h-204q-25 0 -25 20v95
l27 331q3 17 18 17z" />
    <glyph glyph-name="uni2076" unicode="&#x2076;" horiz-adv-x="729" 
d="M315 1866h138q18 0 8 -17l-166 -329q35 14 108 14q269 0 269 -188v-125q0 -110 -74.5 -153.5t-226.5 -43.5q-155 0 -230 43.5t-75 155.5v114q0 55 18 99l217 419q4 11 14 11zM371 1407q-87 0 -118.5 -20.5t-31.5 -81.5v-43q0 -60 31.5 -80.5t118.5 -20.5q86 0 115.5 20
t29.5 81v43q0 61 -30 81.5t-115 20.5z" />
    <glyph glyph-name="uni2077" unicode="&#x2077;" horiz-adv-x="694" 
d="M61 1866h576q14 0 14 -13v-86q0 -10 -8 -18l-373 -711q-3 -8 -12 -8h-154q-16 0 -8 14l363 685h-398q-14 0 -14 12v112q0 13 14 13z" />
    <glyph glyph-name="uni2078" unicode="&#x2078;" horiz-adv-x="780" 
d="M383 1872h18q285 0 285 -230q0 -140 -115 -202q138 -52 138 -191q0 -225 -310 -225h-20q-307 0 -307 223q0 147 141 215q-63 31 -89 73t-26 110q0 227 285 227zM397 1735h-10q-133 0 -133 -109q0 -77 94 -98l117 -25q65 35 65 119q0 113 -133 113zM459 1370l-140 33
q-92 -38 -92 -123q0 -119 156 -119h12q158 0 158 103q0 85 -94 106z" />
    <glyph glyph-name="uni2079" unicode="&#x2079;" horiz-adv-x="729" 
d="M356 1870q155 0 231.5 -44.5t76.5 -156.5v-115q0 -56 -21 -96l-217 -420q-3 -8 -14 -8h-136q-14 0 -8 14l168 330q-38 -12 -110 -12q-269 0 -269 188v123q0 111 73.5 154t225.5 43zM356 1733q-83 0 -113 -20.5t-30 -80.5v-43q0 -62 29.5 -82t113.5 -20q88 0 120 20.5
t32 81.5v43q0 60 -32 80.5t-120 20.5z" />
    <glyph glyph-name="uni207D" unicode="&#x207d;" horiz-adv-x="425" 
d="M268 1917h109q8 0 8 -8v-8q0 -11 -2 -13q-71 -98 -101 -148.5t-46 -111.5q-14 -58 -17 -98v-133q0 -140 25 -213q33 -85 139 -277q2 -2 2 -12v-8q0 -8 -8 -8h-109q-10 0 -16 6q-118 133 -146 221q-26 82 -26 252v39v67v64q0 84 8 108q2 5 7.5 27t12 42.5t13.5 31.5
q2 3 22 35t30 47t32.5 42t46.5 48q5 8 16 8z" />
    <glyph glyph-name="uni207E" unicode="&#x207e;" horiz-adv-x="425" 
d="M49 1917h109q9 0 14 -8q120 -135 147 -221t27 -252v-39v-68v-63q0 -83 -8 -107q-1 -4 -7 -26.5t-13 -43t-15 -32.5q-2 -3 -14.5 -22t-18 -27.5t-19 -27.5t-24 -32t-25.5 -30.5t-30 -32.5q-6 -6 -14 -6h-109q-8 0 -8 8v8q0 10 2 12q119 158 141 240q23 87 23 250
q0 63 -4 121q-3 38 -31 112q-27 70 -43 99l-86 159q-2 2 -2 13v8q0 8 8 8z" />
    <glyph glyph-name="lira" unicode="&#x20a4;" horiz-adv-x="1277" 
d="M905 1550q81 0 221 -10q31 -6 31 -27v-124q0 -21 -31 -21h-245q-246 0 -326 -57q-82 -55 -82 -219v-242h506q31 0 31 -31v-61q0 -31 -31 -31h-506v-143h506q31 0 31 -31v-64q0 -30 -31 -30h-506v-277h705q30 0 30 -30v-121q0 -31 -30 -31h-1084q-32 0 -26 31l20 121
q6 30 35 30h141v277h-110q-31 0 -31 30v64q0 31 31 31h110v143h-110q-31 0 -31 31v61q0 31 31 31h110v252q0 270 131 358q134 90 510 90z" />
    <glyph glyph-name="Euro" unicode="&#x20ac;" horiz-adv-x="1310" 
d="M1165 1378h-252q-221 0 -307 -86q-87 -84 -102 -315h536q34 0 25 -31l-21 -69q-6 -31 -36 -31h-510v-72v-51h477q28 0 22 -31l-18 -69q-9 -31 -39 -31h-438q15 -241 100 -332q85 -88 311 -88h275q31 0 31 -31v-96q0 -31 -31 -37q-132 -18 -275 -18q-336 0 -469 127
q-130 127 -151 475h-215q-32 0 -23 31l21 69q6 31 39 31h174v51v72h-144q-30 0 -24 31l20 69q9 31 39 31h115q21 330 156 459q131 125 462 125q137 0 281 -21q40 -3 31 -43l-27 -88q-12 -31 -33 -31z" />
    <glyph glyph-name="uni20B9" unicode="&#x20b9;" horiz-adv-x="1384" 
d="M139 1548h1145q31 0 31 -30v-66q0 -31 -31 -31h-364q74 -86 86 -264h278q33 0 33 -31v-65q0 -31 -33 -31h-276q-3 -226 -78 -319q-74 -95 -256 -119l346 -551q12 -17 5 -29t-30 -12h-131q-31 0 -47.5 9.5t-34.5 35.5l-340 535h-303q-30 0 -30 30v115q0 31 30 31h238
q96 0 127 2q131 4 176 22q63 25 90.5 81t30.5 169h-662q-30 0 -30 31v65q0 31 30 31h656q-15 138 -103 180q-87 41 -315 41h-238q-30 0 -30 31v109q0 30 30 30z" />
    <glyph glyph-name="uni20BD" unicode="&#x20bd;" horiz-adv-x="1427" 
d="M739 618h-258v-135h357q30 0 30 -30v-99q0 -30 -30 -30h-357v-293q0 -19 -5.5 -25t-24.5 -6h-148q-19 0 -25 6t-6 25v293h-157q-31 0 -31 30v99q0 30 31 30h157v154h-157q-31 0 -31 31v96q0 31 31 31h157v721q0 18 6 23t25 7q202 15 436 15q155 0 245.5 -9.5t168.5 -35.5
q112 -41 153.5 -136t47.5 -293q0 -162 -31.5 -253.5t-101.5 -143.5q-46 -31 -119 -45q-75 -17 -151 -22t-212 -5zM481 1378v-583h242q63 0 207 4q35 3 58 7.5t34 9t37 15.5q19 8 32 23.5t17 24.5t16 39q21 48 21 165q10 184 -84 254q-24 18 -82 27q-74 14 -256 14h-242z" />
    <glyph glyph-name="uni2113" unicode="&#x2113;" horiz-adv-x="851" 
d="M434 1561q142 0 221 -39q99 -46 99 -195v-670q0 -148 -99 -194q-45 -22 -93 -29.5t-126 -7.5h-117v-160q0 -61 27.5 -85t95.5 -29h203q31 0 31 -31v-82q0 -30 -29 -33q-141 -16 -207 -16q-152 0 -227.5 51.5t-75.5 181.5v1104q0 130 74 182t223 52zM446 1399
q-70 0 -98.5 -24t-28.5 -89v-700h125q71 5 99 28.5t28 85.5v586q0 64 -28.5 88.5t-96.5 24.5z" />
    <glyph glyph-name="uni2116" unicode="&#x2116;" horiz-adv-x="2213" 
d="M2132 1296q0 -262 -274 -262q-275 0 -275 262q0 265 275 265q274 0 274 -265zM1249 1550h146q30 0 30 -32v-1487q0 -31 -30 -31h-125q-48 0 -72 37l-809 1218v-1224q0 -31 -31 -31h-145q-31 0 -31 31v1487q0 32 31 32h139q53 -1 72.5 -11.5t44.5 -47.5l750 -1129v1156
q0 32 30 32zM1858 1434q-140 0 -140 -138q0 -137 140 -137q137 0 137 137q0 138 -137 138zM1614 905h487q31 0 31 -31v-55q0 -31 -31 -31h-487q-31 0 -31 31v55q0 31 31 31z" />
    <glyph glyph-name="uni2117" unicode="&#x2117;" horiz-adv-x="1769" 
d="M1475 174q-187 -190 -590 -190t-590 190q-189 192 -189 594t189 594q187 190 590 190t590 -190q188 -191 188 -594t-188 -594zM885 1436q-343 0 -502.5 -161t-159.5 -507q0 -341 160 -506q162 -162 502 -162q341 0 499 162q162 162 162 506t-160.5 506t-500.5 162z
M1219 899q0 -149 -64 -201q-64 -49 -235 -49h-127v-272q0 -15 -13 -15h-141q-12 0 -12 15v764q0 10 12 10q111 12 281 12q171 0 235 -56t64 -208zM901 1018h-108v-246h108q87 0 117.5 24.5t30.5 96.5q0 73 -31 99t-117 26z" />
    <glyph glyph-name="uni2120" unicode="&#x2120;" horiz-adv-x="2093" 
d="M473 1554q124 0 256 -22q16 -3 16 -16v-95q0 -14 -16 -14h-289q-133 0 -133 -92v-17q0 -70 82 -104l240 -98q91 -35 127.5 -87.5t36.5 -148.5v-35q0 -123 -86.5 -175t-260.5 -52t-305 20q-14 6 -14 21v90q0 16 16 16h351q127 0 127 86v19q0 80 -93 115l-254 96
q-74 29 -105.5 84t-31.5 153v29q0 124 82 175.5t254 51.5zM1741 1548h131q14 0 14 -20l88 -905q3 -19 -18 -19h-133q-18 0 -21 19l-55 624l-234 -598q-6 -16 -24 -16h-105q-16 0 -26 16l-236 600l-55 -626q-3 -19 -18 -19h-134q-18 0 -18 17l84 907q3 18 18 18h131
q27 0 39.5 -9t22.5 -38l242 -629l243 629q10 29 23.5 39t40.5 10z" />
    <glyph glyph-name="trademark.001" unicode="&#x2122;" horiz-adv-x="2027" 
d="M72 1548h698q21 0 21 -20v-111q0 -16 -21 -16h-264v-780q0 -17 -17 -17h-135q-16 0 -16 17v780h-266q-17 0 -17 16v111q0 20 17 20zM1673 1548h129q17 0 17 -22l88 -903q0 -19 -19 -19h-133q-15 0 -18 19l-56 624l-235 -598q-6 -16 -27 -16h-104q-19 0 -25 16l-235 600
l-58 -626q0 -19 -16 -19h-133q-19 0 -19 19l84 907q3 18 17 18h133q45 0 63 -47l240 -633l244 633q18 47 63 47z" />
    <glyph glyph-name="Omega" unicode="&#x2126;" horiz-adv-x="1757" 
d="M879 1556q395 0 581.5 -183.5t186.5 -575.5q0 -225 -109 -402q-107 -173 -319 -235h366q31 0 31 -31v-98q0 -31 -31 -31h-538q-31 0 -31 31v194q0 30 28 33q159 21 283 166q123 144 123 367q0 306 -138 448.5t-433 142.5q-294 0 -433 -143t-139 -448q0 -223 123 -367
q124 -145 283 -166q28 -3 28 -33v-194q0 -31 -30 -31h-539q-31 0 -31 31v98q0 31 31 31h369q-212 62 -322 235q-108 175 -108 402q0 391 187 575t581 184z" />
    <glyph glyph-name="estimated" unicode="&#x212e;" 
d="M662 1178q256 0 405 -174q154 -174 154 -422h-879v-396q135 -129 311 -129q148 0 245.5 63.5t184.5 196.5l64 -38q-64 -98 -129.5 -159t-157 -95.5t-207.5 -34.5q-243 0 -399 172q-156 176 -156 422q0 251 154 422q153 172 410 172zM662 1110q-196 0 -320 -127v-334h633
v334q-139 127 -313 127z" />
    <glyph glyph-name="oneeighth" unicode="&#x215b;" horiz-adv-x="1757" 
d="M1165 1620h64q26 0 14 -35l-706 -1620q-15 -35 -48 -35h-65q-29 0 -14 35l708 1620q15 35 47 35zM526 838v-111q0 -12 -14 -12h-414q-14 0 -14 14v109q0 14 14 14h135v518q0 60 -71 60h-74q-14 0 -14 12v86q0 15 14 18q75 10 109 10q93 0 138.5 -32t45.5 -115v-557h131
q14 0 14 -14zM1554 410q138 -52 138 -191q0 -225 -310 -225h-20q-307 0 -307 223q0 147 141 215q-63 31 -89 72.5t-26 109.5q0 228 285 228h18q285 0 285 -230q0 -140 -115 -202zM1380 705h-10q-131 0 -131 -109q0 -77 92 -98l117 -25q65 35 65 119q0 113 -133 113z
M1366 131h12q158 0 158 102q0 86 -94 107l-139 33q-93 -38 -93 -123q0 -119 156 -119z" />
    <glyph glyph-name="threeeighths" unicode="&#x215c;" horiz-adv-x="1873" 
d="M1241 1620h64q26 0 14 -35l-705 -1620q-15 -35 -47 -35h-67q-33 0 -15 35l709 1620q15 35 47 35zM344 1556q145 0 221 -45.5t76 -156.5v-62q0 -135 -135 -159q135 -21 135 -162v-62q0 -111 -75.5 -155.5t-221.5 -44.5q-118 0 -240 16q-22 3 -22 27v79q0 13 12 13h221
q95 0 133.5 20.5t38.5 79.5v25q0 58 -40 80t-134 22h-163q-15 0 -15 14v95q0 12 15 12h161q95 0 135.5 22t40.5 80v27q0 58 -38.5 78t-133.5 20h-221q-12 0 -12 13v81q0 22 22 25q85 18 240 18zM1485 842h18q283 0 283 -230q0 -141 -113 -202q135 -52 135 -191
q0 -225 -307 -225h-20q-307 0 -307 223q0 151 141 215q-63 31 -89 72.5t-26 109.5q0 228 285 228zM1499 705h-12q-131 0 -131 -109q0 -77 94 -98l115 -25q65 35 65 119q0 113 -131 113zM1561 340l-140 33q-92 -38 -92 -123q0 -119 156 -119h12q156 0 156 102q0 86 -92 107z
" />
    <glyph glyph-name="fiveeighths" unicode="&#x215d;" horiz-adv-x="1820" 
d="M1235 1620h63q27 0 15 -35l-707 -1620q-15 -35 -47 -35h-65q-30 0 -15 35l709 1620q15 35 47 35zM133 1550h473q12 0 12 -12v-113q0 -12 -12 -12h-358l-12 -201q57 11 126 11q283 0 283 -203v-109q-7 -119 -85.5 -162t-221.5 -40q-133 0 -227 16q-21 6 -21 25v81
q0 15 12 15h215q95 0 133.5 21t38.5 79v37q0 60 -39 82t-133 22h-202q-25 0 -25 21v94l27 332q0 16 16 16zM1430 842h18q285 0 285 -230q0 -140 -115 -202q137 -52 137 -191q0 -225 -309 -225h-21q-307 0 -307 223q0 147 142 215q-63 31 -89 72.5t-26 109.5q0 228 285 228z
M1444 705h-10q-131 0 -131 -109q0 -77 92 -98l116 -25q66 35 66 119q0 113 -133 113zM1507 340l-139 33q-92 -35 -92 -123q0 -119 154 -119h12q157 0 157 102q0 86 -92 107z" />
    <glyph glyph-name="seveneighths" unicode="&#x215e;" horiz-adv-x="1724" 
d="M1087 1620h64q26 0 14 -35l-706 -1620q-15 -35 -47 -35h-66q-29 0 -14 35l708 1620q15 35 47 35zM72 1550h575q15 0 15 -12v-86q0 -11 -7 -18l-372 -711q-3 -8 -15 -8h-153q-15 0 -9 14l363 684h-397q-15 0 -15 12v113q0 12 15 12zM1333 842h19q284 0 284 -230
q0 -138 -114 -202q137 -52 137 -191q0 -225 -309 -225h-21q-307 0 -307 223q0 147 141 215q-62 30 -88 72t-26 110q0 228 284 228zM1348 705h-13q-131 0 -131 -109q0 -77 94 -98l117 -25q64 34 64 119q0 113 -131 113zM1409 340l-139 33q-92 -38 -92 -123q0 -119 155 -119
h13q155 0 155 102q0 86 -92 107z" />
    <glyph glyph-name="arrowleft" unicode="&#x2190;" horiz-adv-x="1835" 
d="M805 1001h53q19 0 19 -18v-307h761q31 0 31 -31v-113q0 -30 -31 -30h-761v-307q0 -19 -19 -19h-53q-12 0 -35 10l-602 342q-18 9 -18 37v47q0 28 18 37l604 342q27 10 33 10z" />
    <glyph glyph-name="arrowup" unicode="&#x2191;" horiz-adv-x="1095" 
d="M524 1350h47q27 0 37 -19l342 -602q11 -26 11 -37v-51q0 -18 -19 -18h-307v-764q0 -31 -31 -31h-112q-31 0 -31 31v764h-307q-19 0 -19 18v51q0 5 10 35l342 604q9 19 37 19z" />
    <glyph glyph-name="arrowright" unicode="&#x2192;" horiz-adv-x="1835" 
d="M977 1001h53q3 0 33 -10l604 -342q19 -9 19 -37v-47q0 -27 -19 -37l-602 -342q-23 -10 -35 -10h-53q-19 0 -19 19v307h-761q-31 0 -31 30v113q0 31 31 31h761v307q0 18 19 18z" />
    <glyph glyph-name="arrowdown" unicode="&#x2193;" horiz-adv-x="1091" 
d="M489 1350h113q31 0 31 -31v-762h307q18 0 18 -20v-52q0 -7 -10 -34l-342 -603q-9 -20 -37 -20h-47q-28 0 -37 20l-342 601q-10 23 -10 36v52q0 20 19 20h307v762q0 31 30 31z" />
    <glyph glyph-name="arrowboth" unicode="&#x2194;" horiz-adv-x="2299" 
d="M1442 1001h51q8 0 35 -10l604 -342q18 -9 18 -37v-47q0 -28 -18 -37l-602 -342q-23 -10 -37 -10h-51q-19 0 -19 19v307h-546v-307q0 -19 -19 -19h-53q-12 0 -35 10l-602 342q-18 9 -18 37v47q0 28 18 37l604 342q27 10 33 10h53q19 0 19 -18v-307h546v307q0 18 19 18z
" />
    <glyph glyph-name="arrowupdn" unicode="&#x2195;" horiz-adv-x="1136" 
d="M545 1591h47q27 -3 37 -20l342 -602q10 -23 10 -35v-51q0 -21 -18 -21h-308v-545h308q18 0 18 -20v-51q0 -10 -10 -37l-342 -600q-9 -21 -37 -21h-47q-28 0 -37 21l-342 602q-10 33 -10 35v51q0 20 18 20h307v545h-307q-18 0 -18 21v51q0 6 10 33l342 604q9 20 37 20z
" />
    <glyph glyph-name="uni2196" unicode="&#x2196;" horiz-adv-x="1427" 
d="M229 1165l668 -184q23 -10 31 -18l37 -35q15 -14 0 -29l-217 -217l538 -539q25 -22 0 -43l-78 -80q-22 -22 -45 0l-538 539l-217 -217q-12 -12 -27 0l-37 37q-8 12 -16 33l-185 667q-6 20 13 39l32 35q15 18 41 12z" />
    <glyph glyph-name="uni2197" unicode="&#x2197;" horiz-adv-x="1425" 
d="M528 979l668 188q22 6 41 -16l31 -31q20 -20 14 -39l-184 -667q-6 -22 -17 -33l-39 -39q-14 -12 -26 0l-215 217l-539 -539q-24 -21 -45 0l-80 80q-21 21 0 45l539 539l-217 215q-9 14 0 29l37 37q5 5 32 14z" />
    <glyph glyph-name="uni2198" unicode="&#x2198;" horiz-adv-x="1427" 
d="M260 1157l541 -539l215 218q12 12 26 0l39 -37q3 -3 15 -33l186 -670q6 -19 -14 -39l-31 -32q-21 -21 -41 -15l-668 187q-22 6 -32 16l-37 37q-13 16 0 29l217 215l-539 538q-21 24 0 45l78 80q24 21 45 0z" />
    <glyph glyph-name="uni2199" unicode="&#x2199;" horiz-adv-x="1425" 
d="M1210 1157l78 -82q22 -21 0 -43l-538 -538l219 -218q14 -14 -2 -26l-37 -37q-7 -7 -31 -16l-668 -187q-20 -6 -41 15l-32 32q-22 22 -13 39l183 668q10 27 18 35l37 35q15 15 27 0l219 -216l538 539q21 21 43 0z" />
    <glyph glyph-name="partialdiff" unicode="&#x2202;" horiz-adv-x="1298" 
d="M803 1550h166q24 0 30 -20l201 -793q22 -105 -18 -252l-8 -41q-61 -242 -217 -348t-443 -106q-286 0 -386.5 106t-39.5 346l8 43q61 237 215.5 344t433.5 107q104 0 175 -23l-148 600q-9 37 31 37zM301 467v-8q-41 -154 19 -220.5t239 -66.5q180 0 274.5 67t135.5 222
l2 6q38 155 -22 222t-240 67q-179 0 -273 -66.5t-135 -222.5z" />
    <glyph glyph-name="Delta" unicode="&#x2206;" horiz-adv-x="1392" 
d="M616 1438h164q24 0 37 -25l524 -1352q7 -17 7 -24v-25q0 -12 -15 -12h-1272q-16 0 -16 12v25q0 9 6 24l529 1352q12 25 36 25zM1110 188l-414 1047l-389 -1047h803z" />
    <glyph glyph-name="product.001" unicode="&#x220f;" horiz-adv-x="1366" 
d="M45 1649h1274q31 0 31 -31v-111q0 -30 -31 -30h-170v-1559q0 -31 -31 -31h-123q-30 0 -30 31v1559h-564v-1559q0 -31 -30 -31h-123q-31 0 -31 31v1559h-172q-31 0 -31 30v111q0 31 31 31z" />
    <glyph glyph-name="summation.001" unicode="&#x2211;" horiz-adv-x="1189" 
d="M66 1649h976q31 0 31 -31v-119q0 -31 -31 -31h-751l432 -663q10 -17 10 -37v-14q0 -22 -10 -39l-432 -662h829q31 0 31 -30v-121q0 -31 -31 -31h-1057q-30 0 -30 31v84q0 19 12 37l449 692q12 18 12 37v8q0 22 -10 39l-449 698q-12 18 -12 37v84q0 31 31 31z" />
    <glyph glyph-name="minus" unicode="&#x2212;" horiz-adv-x="1079" 
d="M170 717h739q31 0 31 -31v-123q0 -31 -31 -31h-739q-31 0 -31 31v123q0 31 31 31z" />
    <glyph glyph-name="radical" unicode="&#x221a;" horiz-adv-x="1175" 
d="M969 1669h141q36 0 27 -35l-416 -1763q-6 -27 -35 -27h-147q-26 0 -35 25l-291 833l-113 -53q-28 -12 -41 17l-43 106q-13 28 19 41l282 121q29 13 39 -19l242 -708l336 1435q6 27 35 27z" />
    <glyph glyph-name="infinity.001" unicode="&#x221e;" horiz-adv-x="1769" 
d="M1307 967q185 0 270.5 -85t85.5 -268q0 -184 -85.5 -270t-270.5 -86q-180 3 -330 150l-92 88l-90 -86q-166 -152 -332 -152q-186 0 -271.5 85.5t-85.5 270.5q0 183 85.5 268t271.5 85q167 0 328 -146l96 -90l94 90q152 146 326 146zM477 797q-192 0 -192 -185
q0 -94 46 -138t146 -44q91 0 211 111l78 71l-82 76q-115 109 -207 109zM1290 797q-99 0 -196 -97l-93 -88l93 -86q96 -96 196 -96q193 0 193 182q0 185 -193 185z" />
    <glyph glyph-name="integral.001" unicode="&#x222b;" horiz-adv-x="811" 
d="M573 1653q86 0 183 -19q26 -6 26 -32v-91q0 -30 -30 -30h-113q-101 0 -136.5 -21t-35.5 -88q0 -210 37 -616t37 -619q0 -62 -20 -109.5t-52 -72.5q-28 -25 -76 -37q-66 -20 -155 -20q-92 0 -181 18q-28 6 -28 33v90q0 33 30 33h113q105 0 139.5 19.5t34.5 88.5
q0 222 -39 615q-37 406 -37 618q0 63 20.5 111t51.5 73q32 26 76 37q66 19 155 19z" />
    <glyph glyph-name="approxequal.001" unicode="&#x2248;" horiz-adv-x="1273" 
d="M393 1130q52 3 119.5 -27t121 -67t112.5 -67t98 -27q116 0 162 98q7 18 16 20t22 -9l82 -52q20 -13 11 -36q-30 -94 -106.5 -152.5t-180.5 -58.5q-54 -3 -120.5 27t-119 67t-112.5 67t-101 27q-110 0 -159 -100q-15 -26 -39 -11l-82 54q-20 13 -11 37q30 94 106.5 152
t180.5 58zM426 727q52 3 120 -27t122 -67t113.5 -67t97.5 -27q113 0 159 98q12 31 39 10l82 -51q19 -13 10 -37q-30 -95 -106.5 -153t-179.5 -58q-44 -2 -95.5 17.5t-98 48t-91.5 57.5t-89 48.5t-77 17.5q-116 0 -162 -101q-14 -26 -39 -10l-81 53q-20 13 -11 37
q30 94 106.5 152.5t180.5 58.5z" />
    <glyph glyph-name="notequal.001" unicode="&#x2260;" horiz-adv-x="1339" 
d="M936 1282h76q31 0 16 -35l-115 -262h256q31 0 31 -31v-120q0 -31 -31 -31h-335l-136 -309h471q31 0 31 -31v-121q0 -31 -31 -31h-551l-102 -239q-15 -35 -47 -35h-80q-29 0 -14 35l104 239h-309q-31 0 -31 31v121q0 31 31 31h389l135 309h-524q-31 0 -31 31v120
q0 31 31 31h604l115 262q15 35 47 35z" />
    <glyph glyph-name="lessequal" unicode="&#x2264;" horiz-adv-x="1171" 
d="M989 1262h19q12 0 12 -13v-139q0 -26 -25 -35l-624 -213l624 -211q25 -9 25 -35v-139q0 -12 -12 -12h-19q-10 0 -14 2l-821 293q-25 9 -25 35v137q0 26 25 35l821 290q10 5 14 5zM160 352h827q31 0 31 -30v-109q0 -31 -31 -31h-827q-31 0 -31 31v109q0 30 31 30z" />
    <glyph glyph-name="greaterequal" unicode="&#x2265;" horiz-adv-x="1171" 
d="M164 1262h18q10 0 15 -5l821 -290q24 -9 24 -35v-137q0 -26 -24 -35l-821 -293q-2 -2 -15 -2h-18q-12 0 -12 12v139q0 26 24 35l625 211l-625 213q-24 9 -24 35v139q0 13 12 13zM184 352h828q30 0 30 -30v-109q0 -31 -30 -31h-828q-30 0 -30 31v109q0 30 30 30z" />
    </font>
</defs>
</svg>
